<svg width="307" height="340" fill="none" xmlns="http://www.w3.org/2000/svg"><g filter="url(#filter0_b_13_3570)"><path fill="#fff" fill-opacity=".6" d="M0 0h306.271v339.309H0z"/></g><path fill-rule="evenodd" clip-rule="evenodd" d="M278.596 291.984H41.972v-.893h236.624v.893zm0-57.147H41.972v-.893h236.624v.893zm-.004-56.254H41.969v-.893h236.623v.893zm0-56.254H41.969v-.893h236.623v.893z" fill="#EEF0F2"/><path d="M21.239 291.268h4.787v-.941H22.75v-.054l1.446-1.513c1.331-1.345 1.711-1.988 1.711-2.801 0-1.169-.951-2.064-2.322-2.064-1.36 0-2.354.881-2.354 2.209h1.047c-.003-.781.5-1.292 1.286-1.292.738 0 1.3.454 1.3 1.179 0 .642-.384 1.104-1.165 1.931l-2.461 2.55v.796zm6.147 0h1.061v-1.936l.53-.529 1.853 2.465h1.303l-2.357-3.115 2.208-2.34h-1.27l-2.174 2.308h-.093v-4.126h-1.061v7.273zm-7.191-58.567h3.448v1.42h1.048v-1.42h.962v-.931h-.962v-4.922h-1.353l-3.143 4.965v.888zm3.456-.931h-2.305v-.057l2.248-3.558h.057v3.615zm3.254 2.351h1.062v-1.935l.53-.529 1.853 2.464h1.303l-2.358-3.114 2.209-2.34h-1.271l-2.174 2.308h-.092v-4.127h-1.062v7.273zm-4.022-56.155c1.52.014 2.529-1.08 2.525-2.475.004-1.392-1.009-2.39-2.27-2.39-.766 0-1.43.369-1.803.983h-.053c.003-1.651.628-2.631 1.694-2.631.7 0 1.14.426 1.289 1.03h1.083c-.167-1.151-1.073-1.989-2.372-1.989-1.69 0-2.745 1.453-2.745 3.981-.004 2.678 1.36 3.48 2.652 3.491zm-.003-.923c-.846 0-1.463-.711-1.463-1.527.003-.814.65-1.524 1.487-1.524.831 0 1.442.671 1.439 1.513.003.859-.632 1.538-1.463 1.538zm3.836.823h1.061v-1.935l.53-.529 1.853 2.464h1.304l-2.358-3.114 2.208-2.34h-1.27l-2.174 2.308h-.093v-4.126h-1.061v7.272zm-3.914-56.153c1.512 0 2.581-.86 2.588-2.039-.007-.916-.65-1.686-1.463-1.832v-.043c.707-.17 1.186-.834 1.193-1.619-.007-1.111-.987-1.939-2.319-1.939-1.345 0-2.325.828-2.318 1.939-.008.781.472 1.449 1.193 1.619v.043c-.828.146-1.47.916-1.463 1.832-.007 1.179 1.061 2.039 2.588 2.039zm0-.899c-.91 0-1.485-.483-1.478-1.211-.007-.756.618-1.296 1.477-1.296.846 0 1.47.54 1.478 1.296-.007.728-.58 1.211-1.477 1.211zm0-3.384c-.736 0-1.258-.465-1.25-1.158-.008-.681.497-1.132 1.25-1.132.738 0 1.242.451 1.25 1.132-.008.693-.526 1.158-1.25 1.158zm3.875 4.183h1.061v-1.935l.53-.529 1.853 2.464h1.303l-2.357-3.114 2.208-2.34h-1.27l-2.174 2.308h-.093v-4.126h-1.061v7.272zm5.362-51.323H29.28l-3.977 2.554v2.657l3.743-2.39h.093V86.29h2.899v-16zm9.922 16.219c3.453.023 5.773-2.352 5.765-5.516.008-3.023-2.148-5.211-4.953-5.211-1.719 0-3.234.836-4 2.211h-.11c.009-3.367 1.243-5.414 3.462-5.414 1.375 0 2.304.797 2.601 2.023h2.852c-.344-2.586-2.43-4.53-5.453-4.53-3.844 0-6.274 3.202-6.274 8.671-.008 5.867 3.04 7.75 6.11 7.766zm-.016-2.344c-1.71 0-2.96-1.414-2.969-3.086.016-1.68 1.313-3.086 3.008-3.086s2.938 1.344 2.93 3.063c.008 1.75-1.274 3.109-2.969 3.109zm9.508 2.297a1.74 1.74 0 001.719-1.719 1.736 1.736 0 00-1.72-1.703c-.952 0-1.726.765-1.718 1.703a1.709 1.709 0 001.719 1.719zm4.607-.172h10.97v-2.422h-6.97v-.11l2.758-2.804c3.11-2.984 3.969-4.438 3.969-6.242 0-2.68-2.18-4.64-5.399-4.64-3.171 0-5.421 1.968-5.421 5.007h2.757c0-1.633 1.032-2.656 2.625-2.656 1.524 0 2.657.93 2.657 2.437 0 1.336-.813 2.29-2.391 3.89l-5.555 5.446v2.094zm13.696 0h2.828v-4.031l1.031-1.102 3.672 5.133h3.383l-4.922-6.82 4.648-5.18h-3.305l-4.312 4.82h-.195v-8.82h-2.828v16z" fill="#313131"/><path d="M94.975 77.563H93.67v6.409h-.081l-4.44-6.41h-1.22v8.728h1.317v-6.4h.082l4.436 6.4h1.21v-8.727zm4.64 8.859c1.427 0 2.437-.703 2.727-1.769l-1.206-.217c-.23.618-.784.933-1.509.933-1.09 0-1.824-.707-1.858-1.968h4.654v-.452c0-2.365-1.415-3.29-2.898-3.29-1.824 0-3.026 1.39-3.026 3.4 0 2.033 1.185 3.363 3.115 3.363zm-1.842-3.976c.052-.929.725-1.734 1.76-1.734.989 0 1.637.733 1.641 1.734h-3.4zm7.471 3.844h1.295l1.33-4.726h.098l1.329 4.726h1.3l1.922-6.546h-1.317l-1.274 4.786h-.064l-1.279-4.786h-1.316l-1.287 4.807h-.064l-1.283-4.807h-1.317l1.927 6.546zm11.761 0h1.317v-3.806h3.707v-1.129h-3.707v-2.659h4.095v-1.133h-5.412v8.727zm9.206.132c1.845 0 3.051-1.35 3.051-3.375 0-2.037-1.206-3.388-3.051-3.388-1.846 0-3.052 1.351-3.052 3.388 0 2.024 1.206 3.375 3.052 3.375zm.004-1.07c-1.206 0-1.769-1.052-1.769-2.31 0-1.252.563-2.317 1.769-2.317 1.197 0 1.76 1.065 1.76 2.318 0 1.257-.563 2.31-1.76 2.31zm5.743-7.79h-1.274v8.728h1.274v-8.727zm2.988 0h-1.274v8.728h1.274v-8.727zm4.472 8.86c1.845 0 3.051-1.35 3.051-3.375 0-2.037-1.206-3.388-3.051-3.388-1.846 0-3.052 1.351-3.052 3.388 0 2.024 1.206 3.375 3.052 3.375zm.004-1.07c-1.206 0-1.769-1.052-1.769-2.31 0-1.252.563-2.317 1.769-2.317 1.197 0 1.76 1.065 1.76 2.318 0 1.257-.563 2.31-1.76 2.31zm5.689.938h1.295l1.33-4.726h.098l1.329 4.726h1.3l1.922-6.546h-1.317l-1.274 4.786h-.064l-1.278-4.786h-1.317l-1.287 4.807h-.064l-1.283-4.807h-1.316l1.926 6.546zm11.105.132c1.427 0 2.437-.703 2.727-1.769l-1.206-.217c-.23.618-.784.933-1.508.933-1.091 0-1.824-.707-1.858-1.968h4.653v-.452c0-2.365-1.415-3.29-2.898-3.29-1.823 0-3.025 1.39-3.025 3.4 0 2.033 1.184 3.363 3.115 3.363zm-1.841-3.976c.051-.929.724-1.734 1.76-1.734.989 0 1.636.733 1.641 1.734h-3.401zm6.063 3.844h1.274v-3.997c0-.857.66-1.475 1.564-1.475.264 0 .562.047.665.077v-1.219a5.206 5.206 0 00-.542-.03c-.767 0-1.423.435-1.661 1.138h-.069v-1.04h-1.231v6.546zm9.51-4.948c-.264-1.018-1.061-1.683-2.476-1.683-1.478 0-2.527.78-2.527 1.94 0 .928.563 1.546 1.79 1.819l1.108.243c.631.14.925.421.925.83 0 .508-.541.904-1.377.904-.762 0-1.253-.328-1.406-.972l-1.231.188c.213 1.159 1.176 1.811 2.646 1.811 1.581 0 2.676-.84 2.676-2.024 0-.925-.588-1.496-1.79-1.773l-1.04-.239c-.72-.17-1.031-.413-1.027-.856-.004-.503.542-.86 1.266-.86.793 0 1.159.438 1.308.877l1.155-.205z" fill="#666"/><path d="M25.119 47.931h1.536v-4.44h4.325v-1.317h-4.325v-3.102h4.777v-1.323H25.12v10.182zm10.74.154c2.152 0 3.56-1.576 3.56-3.937 0-2.377-1.408-3.953-3.56-3.953-2.153 0-3.56 1.577-3.56 3.953 0 2.361 1.407 3.937 3.56 3.937zm.005-1.248c-1.407 0-2.064-1.228-2.064-2.694 0-1.462.657-2.705 2.064-2.705 1.397 0 2.053 1.243 2.053 2.705 0 1.466-.657 2.694-2.053 2.694zm6.7-9.088h-1.487v10.182h1.487V37.75zm3.486 0h-1.486v10.182h1.486V37.75zm5.217 10.336c2.152 0 3.56-1.576 3.56-3.937 0-2.377-1.408-3.953-3.56-3.953-2.153 0-3.56 1.577-3.56 3.953 0 2.361 1.407 3.937 3.56 3.937zm.005-1.248c-1.407 0-2.063-1.228-2.063-2.694 0-1.462.656-2.705 2.063-2.705 1.397 0 2.053 1.243 2.053 2.705 0 1.466-.656 2.694-2.053 2.694zm6.637 1.094h1.511l1.551-5.513h.115l1.55 5.513h1.517l2.242-7.636H64.86l-1.486 5.583h-.075l-1.492-5.583H60.27l-1.501 5.608h-.075l-1.496-5.608h-1.536l2.247 7.636zm12.956.154c1.665 0 2.843-.82 3.181-2.063l-1.406-.253c-.269.72-.915 1.088-1.76 1.088-1.273 0-2.128-.825-2.168-2.297h5.429v-.527c0-2.759-1.65-3.837-3.38-3.837-2.129 0-3.53 1.62-3.53 3.967 0 2.371 1.382 3.922 3.634 3.922zm-2.148-4.638c.06-1.084.845-2.024 2.053-2.024 1.154 0 1.91.856 1.914 2.024h-3.967zm7.073 4.484h1.487v-4.663c0-1 .77-1.72 1.824-1.72.309 0 .657.054.776.09v-1.423a6.032 6.032 0 00-.631-.034c-.895 0-1.661.507-1.94 1.327h-.079v-1.213H75.79v7.636zm16.088-6.965h1.576c-.343-1.984-2.038-3.356-4.235-3.356-2.635 0-4.56 1.984-4.56 5.235 0 3.222 1.87 5.226 4.63 5.226 2.47 0 4.235-1.621 4.235-4.192v-1.158h-4.002v1.268h2.515c-.034 1.64-1.118 2.68-2.749 2.68-1.795 0-3.102-1.358-3.102-3.834 0-2.465 1.317-3.823 3.042-3.823 1.353 0 2.268.746 2.65 1.954zm3.477 6.965h1.486v-4.663c0-1 .77-1.72 1.825-1.72.308 0 .656.054.775.09v-1.423a6.034 6.034 0 00-.631-.034c-.895 0-1.66.507-1.939 1.327h-.08v-1.213h-1.436v7.636zm8.316.154c2.153 0 3.56-1.576 3.56-3.937 0-2.377-1.407-3.953-3.56-3.953s-3.56 1.577-3.56 3.953c0 2.361 1.407 3.937 3.56 3.937zm.005-1.248c-1.407 0-2.063-1.228-2.063-2.694 0-1.462.656-2.705 2.063-2.705 1.397 0 2.053 1.243 2.053 2.705 0 1.466-.656 2.694-2.053 2.694zm6.637 1.094h1.511l1.552-5.513h.114l1.551 5.513h1.516l2.243-7.636h-1.537l-1.486 5.583h-.075l-1.491-5.583h-1.536l-1.502 5.608h-.074l-1.497-5.608h-1.536l2.247 7.636zm13.462-7.636h-1.566v-1.83h-1.487v1.83h-1.118v1.193h1.118v4.51c-.005 1.386 1.054 2.058 2.228 2.033a2.83 2.83 0 00.964-.16l-.268-1.227c-.1.02-.284.064-.522.064-.483 0-.915-.159-.915-1.019v-4.2h1.566v-1.194zm3.295 3.102c0-1.218.77-1.914 1.829-1.914 1.024 0 1.636.651 1.636 1.77v4.678h1.486v-4.857c0-1.904-1.044-2.878-2.615-2.878-1.188 0-1.904.517-2.262 1.342h-.094V37.75h-1.467v10.18h1.487v-4.534z" fill="#313131"/><path d="M231.803 35.717h-10.001a2.143 2.143 0 00-2.143 2.143v10a2.143 2.143 0 002.143 2.143h10.001a2.143 2.143 0 002.143-2.143v-10a2.143 2.143 0 00-2.143-2.143zm0 1.428a.715.715 0 01.714.715v4.286h-5v-5h4.286zm-10.715.715a.714.714 0 01.714-.715h4.286v5h-5V37.86zm.714 10.715a.715.715 0 01-.714-.715v-4.286h5v5h-4.286zm10.715-.715a.714.714 0 01-.714.715h-4.286v-5h5v4.285z" fill="#999"/><circle cx="226.801" cy="42.86" r="16.519" stroke="#EEF0F2" stroke-width=".893"/><path d="M266.776 36.43a.7.7 0 00-.687-.714c-.379 0-.686.32-.686.714v7.276l-1.301-1.352a.668.668 0 00-.971 0 .735.735 0 000 1.01l2.473 2.572a.681.681 0 00.485.21.666.666 0 00.492-.216l2.467-2.566a.735.735 0 000-1.01.67.67 0 00-.972 0l-1.3 1.352V36.43z" fill="#999"/><path d="M260.526 45.36c.379 0 .687.32.687.714v1.928c0 .152.058.297.161.404a.537.537 0 00.388.168h8.655a.54.54 0 00.388-.167.584.584 0 00.161-.405v-1.928c0-.395.308-.715.687-.715.379 0 .687.32.687.715v1.928c0 .53-.203 1.04-.563 1.415-.361.375-.85.585-1.36.585h-8.655c-.51 0-.999-.21-1.36-.585a2.044 2.044 0 01-.563-1.415v-1.928c0-.395.308-.715.687-.715z" fill="#999"/><circle cx="266.09" cy="42.859" r="16.519" stroke="#EEF0F2" stroke-width=".893"/><path d="M56.255 216.532a3.125 3.125 0 016.25 0v74.559h-6.25v-74.559zm207.156-71.434a3.125 3.125 0 116.25 0V291.09h-6.25V145.098zm-25.895 77.686a3.127 3.127 0 016.251 0v68.308h-6.251v-68.308zm-25.894-56.255a3.126 3.126 0 116.25 0v124.562h-6.25V166.529zm-25.895 15.18a3.126 3.126 0 016.251 0v109.383h-6.251V181.709zm-25.894 34.823a3.126 3.126 0 016.251 0v74.558h-6.251v-74.558zm-25.894 8.037a3.125 3.125 0 116.25 0v66.523h-6.25v-66.523zm-25.896-81.256a3.126 3.126 0 016.251 0v147.778h-6.251V143.313zm-25.89 104.471a3.126 3.126 0 116.25 0v43.306h-6.25v-43.306z" fill="#0AC05E"/><defs><filter id="filter0_b_13_3570" x="-10" y="-10" width="326.271" height="359.309" filterUnits="userSpaceOnUse" color-interpolation-filters="sRGB"><feFlood flood-opacity="0" result="BackgroundImageFix"/><feGaussianBlur in="BackgroundImage" stdDeviation="5"/><feComposite in2="SourceAlpha" operator="in" result="effect1_backgroundBlur_13_3570"/><feBlend in="SourceGraphic" in2="effect1_backgroundBlur_13_3570" result="shape"/></filter></defs></svg>