<svg width="179" height="105" fill="none" xmlns="http://www.w3.org/2000/svg"><path d="M5.166 42.978c1.392 0 2.586.252 3.582.756a5.278 5.278 0 012.286 2.178c.528.948.792 2.076.792 3.384 0 1.296-.264 2.418-.792 3.366-.528.936-1.29 1.656-2.286 2.16-.996.492-2.19.738-3.582.738H1.44V42.978h3.726zm0 11.538c1.752 0 3.084-.456 3.996-1.368.924-.924 1.386-2.208 1.386-3.852 0-1.656-.462-2.946-1.386-3.87-.912-.936-2.244-1.404-3.996-1.404H2.7v10.494h2.466zm17.875-4.374c0 .432-.012.762-.036.99h-8.154c.036.744.216 1.38.54 1.908.324.528.75.93 1.278 1.206a3.81 3.81 0 001.728.396c.816 0 1.5-.198 2.052-.594.564-.396.936-.93 1.116-1.602h1.332a4.187 4.187 0 01-1.548 2.358c-.78.6-1.764.9-2.952.9-.924 0-1.752-.204-2.484-.612a4.524 4.524 0 01-1.728-1.764c-.408-.768-.612-1.662-.612-2.682s.204-1.914.612-2.682a4.254 4.254 0 011.71-1.764c.732-.408 1.566-.612 2.502-.612.936 0 1.752.204 2.448.612.708.408 1.248.96 1.62 1.656.384.684.576 1.446.576 2.286zm-1.278-.036c.012-.732-.138-1.356-.45-1.872a2.92 2.92 0 00-1.242-1.17 3.81 3.81 0 00-1.728-.396c-.936 0-1.734.3-2.394.9-.66.6-1.026 1.446-1.098 2.538h6.912zm15.283-4.554c1.152 0 2.088.366 2.808 1.098.732.72 1.098 1.77 1.098 3.15v5.76H39.71v-5.616c0-1.068-.258-1.884-.774-2.448-.516-.564-1.218-.846-2.106-.846-.924 0-1.662.306-2.214.918-.552.612-.828 1.5-.828 2.664v5.328h-1.242v-5.616c0-1.068-.258-1.884-.774-2.448-.516-.564-1.224-.846-2.124-.846-.924 0-1.662.306-2.214.918-.552.612-.828 1.5-.828 2.664v5.328h-1.26v-9.828h1.26v1.692a3.167 3.167 0 011.332-1.386 3.86 3.86 0 011.926-.486c.852 0 1.596.204 2.232.612.648.408 1.116 1.008 1.404 1.8.264-.78.714-1.374 1.35-1.782.648-.42 1.38-.63 2.196-.63zm11.007 10.152c-.924 0-1.758-.204-2.502-.612a4.651 4.651 0 01-1.747-1.764c-.42-.768-.63-1.662-.63-2.682s.217-1.908.648-2.664a4.454 4.454 0 011.764-1.764c.745-.42 1.578-.63 2.503-.63.924 0 1.758.21 2.502.63a4.307 4.307 0 011.764 1.764c.431.756.648 1.644.648 2.664 0 1.008-.217 1.896-.648 2.664a4.544 4.544 0 01-1.782 1.782c-.757.408-1.596.612-2.52.612zm0-1.098c.648 0 1.248-.144 1.8-.432.551-.3.995-.744 1.331-1.332.349-.6.523-1.332.523-2.196 0-.864-.169-1.59-.505-2.178-.335-.6-.78-1.044-1.331-1.332a3.71 3.71 0 00-1.8-.45 3.71 3.71 0 00-1.8.45c-.553.288-.996.732-1.333 1.332-.324.588-.486 1.314-.486 2.178 0 .864.163 1.596.486 2.196.337.588.774 1.032 1.314 1.332a3.833 3.833 0 001.8.432zm15.678-.27l3.312-8.604h1.332l-3.942 9.828H63.01l-3.942-9.828h1.35l3.312 8.604zm6.982-10.458a.884.884 0 01-.648-.27.905.905 0 01-.27-.666c0-.264.09-.48.27-.648.18-.18.396-.27.648-.27s.468.09.648.27c.18.168.27.384.27.648s-.09.486-.27.666a.884.884 0 01-.648.27zm.63 1.854v9.828h-1.26v-9.828h1.26zm2.277 4.896c0-1.008.204-1.89.612-2.646.408-.768.966-1.356 1.674-1.764.72-.42 1.53-.63 2.43-.63.864 0 1.644.21 2.34.63.696.42 1.206.966 1.53 1.638V42.24h1.26v13.32h-1.26v-2.196c-.3.684-.792 1.248-1.476 1.692-.684.432-1.488.648-2.412.648-.9 0-1.71-.21-2.43-.63a4.446 4.446 0 01-1.674-1.782c-.396-.768-.594-1.656-.594-2.664zm8.586.018c0-.792-.162-1.488-.486-2.088a3.449 3.449 0 00-1.332-1.386 3.56 3.56 0 00-1.836-.486c-.696 0-1.32.156-1.872.468-.552.312-.99.768-1.314 1.368-.312.588-.468 1.29-.468 2.106 0 .804.156 1.512.468 2.124.324.6.762 1.062 1.314 1.386.552.312 1.176.468 1.872.468a3.56 3.56 0 001.836-.486 3.449 3.449 0 001.332-1.386c.324-.6.486-1.296.486-2.088zm13.028-.504c0 .432-.012.762-.036.99h-8.154c.036.744.216 1.38.54 1.908.324.528.75.93 1.278 1.206a3.81 3.81 0 001.728.396c.816 0 1.5-.198 2.052-.594.564-.396.936-.93 1.116-1.602h1.332a4.187 4.187 0 01-1.548 2.358c-.78.6-1.764.9-2.952.9-.924 0-1.752-.204-2.484-.612a4.524 4.524 0 01-1.728-1.764c-.408-.768-.612-1.662-.612-2.682s.204-1.914.612-2.682a4.254 4.254 0 011.71-1.764c.732-.408 1.566-.612 2.502-.612.936 0 1.752.204 2.448.612.708.408 1.248.96 1.62 1.656.384.684.576 1.446.576 2.286zm-1.278-.036c.012-.732-.138-1.356-.45-1.872a2.92 2.92 0 00-1.242-1.17 3.81 3.81 0 00-1.728-.396c-.936 0-1.734.3-2.394.9-.66.6-1.026 1.446-1.098 2.538h6.912zm7.886 5.598c-.924 0-1.758-.204-2.502-.612a4.651 4.651 0 01-1.746-1.764c-.42-.768-.63-1.662-.63-2.682s.216-1.908.648-2.664a4.454 4.454 0 011.764-1.764c.744-.42 1.578-.63 2.502-.63.924 0 1.758.21 2.502.63a4.307 4.307 0 011.764 1.764c.432.756.648 1.644.648 2.664 0 1.008-.216 1.896-.648 2.664a4.544 4.544 0 01-1.782 1.782c-.756.408-1.596.612-2.52.612zm0-1.098c.648 0 1.248-.144 1.8-.432.552-.3.996-.744 1.332-1.332.348-.6.522-1.332.522-2.196 0-.864-.168-1.59-.504-2.178-.336-.6-.78-1.044-1.332-1.332a3.71 3.71 0 00-1.8-.45 3.71 3.71 0 00-1.8.45c-.552.288-.996.732-1.332 1.332-.324.588-.486 1.314-.486 2.178 0 .864.162 1.596.486 2.196.336.588.774 1.032 1.314 1.332a3.833 3.833 0 001.8.432zm32.969-5.512c1.709.986 1.709 3.452 0 4.438l-10.785 6.227c-1.709.987-3.844-.246-3.844-2.219V45.086c0-1.972 2.135-3.205 3.844-2.219l10.785 6.227z" fill="#0AC05E"/><mask id="path-3-inside-1_13_3521" fill="#fff"><path d="M78.63 30.817a52.34 52.34 0 11-.134 42.744l.733-.325a51.538 51.538 0 10.132-42.089l-.731-.33z"/></mask><path d="M78.63 30.817a52.34 52.34 0 11-.134 42.744l.733-.325a51.538 51.538 0 10.132-42.089l-.731-.33z" stroke="#0AC05E" stroke-width="2.562" stroke-dasharray="5.12 5.12" mask="url(#path-3-inside-1_13_3521)"/></svg>