<svg width="188" height="218" fill="none" xmlns="http://www.w3.org/2000/svg"><g filter="url(#filter0_b_20_4)"><path fill="#fff" fill-opacity=".6" d="M0 0h188v218H0z"/></g><rect x="17.001" y="107.87" width="155" height="95" rx="8" fill="#FBFBFB"/><path d="M53.676 128.817l3.694 6.185v3.997h1.53v-3.997l3.695-6.185H60.85l-2.66 4.629h-.11l-2.66-4.629h-1.744zm12.222 10.336c2.153 0 3.56-1.576 3.56-3.937 0-2.377-1.407-3.953-3.56-3.953-2.152 0-3.56 1.576-3.56 3.953 0 2.361 1.407 3.937 3.56 3.937zm.005-1.247c-1.407 0-2.063-1.228-2.063-2.695 0-1.462.656-2.705 2.063-2.705 1.397 0 2.053 1.243 2.053 2.705 0 1.467-.656 2.695-2.053 2.695zm10.051-2.074c.006 1.298-.959 1.914-1.794 1.914-.92 0-1.556-.666-1.556-1.705v-4.678h-1.487v4.857c0 1.894 1.04 2.879 2.506 2.879 1.148 0 1.929-.607 2.282-1.422h.08v1.322h1.461v-7.636h-1.492v4.469zm3.49 3.167h1.486v-4.663c0-.999.77-1.72 1.824-1.72.309 0 .657.054.776.089v-1.422a6.02 6.02 0 00-.631-.034c-.895 0-1.66.507-1.94 1.327h-.079v-1.213h-1.437v7.636zm16.087-6.965h1.576c-.343-1.984-2.038-3.356-4.235-3.356-2.635 0-4.56 1.984-4.56 5.235 0 3.222 1.87 5.225 4.63 5.225 2.47 0 4.235-1.62 4.235-4.191v-1.158h-4.002v1.268h2.516c-.035 1.64-1.12 2.679-2.75 2.679-1.795 0-3.102-1.357-3.102-3.833 0-2.466 1.317-3.823 3.043-3.823 1.352 0 2.267.746 2.65 1.954zm3.477 6.965h1.486v-4.663c0-.999.771-1.72 1.825-1.72a3.5 3.5 0 01.775.089v-1.422a6.008 6.008 0 00-.631-.034c-.895 0-1.66.507-1.939 1.327h-.079v-1.213h-1.437v7.636zm8.316.154c2.153 0 3.56-1.576 3.56-3.937 0-2.377-1.407-3.953-3.56-3.953s-3.56 1.576-3.56 3.953c0 2.361 1.407 3.937 3.56 3.937zm.005-1.247c-1.407 0-2.063-1.228-2.063-2.695 0-1.462.656-2.705 2.063-2.705 1.397 0 2.053 1.243 2.053 2.705 0 1.467-.656 2.695-2.053 2.695zm6.637 1.093h1.511l1.552-5.513h.114l1.551 5.513h1.516l2.243-7.636h-1.537l-1.486 5.583h-.075l-1.491-5.583h-1.536l-1.502 5.608h-.074l-1.497-5.608h-1.536l2.247 7.636zm13.462-7.636h-1.566v-1.83h-1.487v1.83h-1.118v1.193h1.118v4.509c-.005 1.387 1.054 2.059 2.228 2.034.472-.005.79-.095.964-.159l-.268-1.228c-.1.02-.284.064-.522.064-.483 0-.915-.159-.915-1.019v-4.201h1.566v-1.193zm3.295 3.102c0-1.218.77-1.914 1.829-1.914 1.024 0 1.636.651 1.636 1.77v4.678h1.486v-4.857c0-1.904-1.044-2.879-2.615-2.879-1.188 0-1.904.518-2.262 1.343h-.094v-3.789h-1.467v10.182h1.487v-4.534z" fill="#404040"/><path d="M59.185 176.091c4.9 0 8.406-2.696 8.395-6.424.01-2.717-1.715-4.656-4.922-5.061v-.17c2.44-.437 4.123-2.163 4.113-4.613.01-3.441-3.005-6.147-7.522-6.147-4.474 0-7.84 2.62-7.905 6.392h4.422c.053-1.662 1.576-2.738 3.462-2.738 1.864 0 3.11 1.129 3.1 2.77.01 1.715-1.449 2.876-3.547 2.876h-2.035v3.388h2.035c2.471 0 4.016 1.236 4.005 2.994.01 1.736-1.48 2.929-3.59 2.929-2.035 0-3.558-1.065-3.643-2.663h-4.645c.074 3.814 3.483 6.467 8.277 6.467zm16.071-3.282h-3.75l-.053 1.193c-.128 2.898-.96 5.87-1.268 7.117h2.94c.512-1.289 1.726-4.315 2.014-7.138l.117-1.172zm11.753 3.463c5.487 0 8.8-4.176 8.81-11.368.011-7.137-3.344-11.228-8.81-11.228-5.475 0-8.8 4.08-8.81 11.228-.021 7.17 3.313 11.357 8.81 11.368zm0-3.825c-2.503 0-4.123-2.514-4.112-7.543.01-4.953 1.62-7.446 4.112-7.446 2.483 0 4.102 2.493 4.102 7.446.01 5.029-1.609 7.543-4.102 7.543zm20.655 3.825c5.486 0 8.799-4.176 8.81-11.368.011-7.137-3.345-11.228-8.81-11.228-5.476 0-8.8 4.08-8.81 11.228-.022 7.17 3.313 11.357 8.81 11.368zm0-3.825c-2.504 0-4.123-2.514-4.113-7.543.011-4.953 1.62-7.446 4.113-7.446 2.482 0 4.101 2.493 4.101 7.446.011 5.029-1.608 7.543-4.101 7.543zm20.654 3.825c5.486 0 8.8-4.176 8.81-11.368.011-7.137-3.345-11.228-8.81-11.228-5.476 0-8.8 4.08-8.81 11.228-.022 7.17 3.313 11.357 8.81 11.368zm0-3.825c-2.504 0-4.123-2.514-4.112-7.543.01-4.953 1.619-7.446 4.112-7.446 2.482 0 4.102 2.493 4.102 7.446.01 5.029-1.609 7.543-4.102 7.543z" fill="#FF4D4A"/><path opacity=".96" d="M43.496 51l1.2-3.587h5.469L51.372 51h2.813l-5.128-14.545h-3.253L40.684 51h2.812zm1.91-5.703l1.968-5.86h.113l1.968 5.86h-4.049zM55.987 51h2.571v-6.633c0-1.343.895-2.252 2.003-2.252 1.087 0 1.832.732 1.832 1.854V51h2.522v-6.804c0-1.229.731-2.08 1.974-2.08 1.037 0 1.86.61 1.86 1.96V51h2.579v-7.322c0-2.436-1.406-3.73-3.41-3.73-1.583 0-2.79.782-3.273 1.997h-.114c-.419-1.236-1.477-1.996-2.947-1.996-1.463 0-2.557.753-3.012 1.996h-.128V40.09h-2.457V51zm21.089.22c1.711 0 2.734-.802 3.203-1.719h.085V51h2.471v-7.301c0-2.884-2.35-3.75-4.431-3.75-2.294 0-4.056 1.023-4.624 3.011l2.4.341c.256-.746.98-1.385 2.238-1.385 1.193 0 1.846.611 1.846 1.683v.043c0 .739-.774.774-2.698.98-2.117.227-4.141.86-4.141 3.317 0 2.145 1.57 3.281 3.65 3.281zm.667-1.889c-1.072 0-1.84-.49-1.84-1.435 0-.987.86-1.399 2.01-1.562.675-.093 2.025-.263 2.359-.533v1.286c0 1.214-.98 2.244-2.529 2.244zm10.249-4.723c0-1.577.951-2.486 2.308-2.486 1.328 0 2.124.874 2.124 2.33V51h2.57v-6.946c.008-2.614-1.484-4.105-3.735-4.105-1.634 0-2.756.781-3.253 1.996h-.128V40.09h-2.457V51h2.57v-6.392zm13.664 6.584c1.875 0 2.721-1.115 3.125-1.91h.157V51h2.528V36.455h-2.578v5.44h-.107c-.39-.789-1.193-1.946-3.117-1.946-2.522 0-4.503 1.974-4.503 5.61 0 3.594 1.924 5.633 4.495 5.633zm.718-2.11c-1.698 0-2.593-1.491-2.593-3.537 0-2.03.881-3.487 2.593-3.487 1.655 0 2.564 1.371 2.564 3.487 0 2.117-.924 3.537-2.564 3.537zm10.971 2.138c1.712 0 2.734-.802 3.203-1.719h.085V51h2.472v-7.301c0-2.884-2.351-3.75-4.432-3.75-2.294 0-4.055 1.023-4.623 3.011l2.4.341c.256-.746.98-1.385 2.237-1.385 1.194 0 1.847.611 1.847 1.683v.043c0 .739-.774.774-2.699.98-2.116.227-4.141.86-4.141 3.317 0 2.145 1.57 3.281 3.651 3.281zm.668-1.889c-1.073 0-1.84-.49-1.84-1.435 0-.987.859-1.399 2.01-1.562.675-.093 2.024-.263 2.358-.533v1.286c0 1.214-.98 2.244-2.528 2.244zm12.752-12.877V51h2.528V40.986h.135l4.02 9.971h1.889l4.02-9.95h.135V51h2.528V36.455h-3.224l-4.318 10.54h-.171l-4.318-10.54h-3.224zm19.595 14.702a1.58 1.58 0 001.562-1.562 1.578 1.578 0 00-1.562-1.549c-.867 0-1.57.697-1.563 1.549a1.554 1.554 0 001.563 1.562zM78.334 76c4.432 0 7.06-2.742 7.06-7.287 0-4.531-2.628-7.258-6.96-7.258h-5.029V76h4.93zm-2.294-2.28v-9.986h2.245c2.954 0 4.495 1.648 4.495 4.98 0 3.344-1.54 5.006-4.573 5.006H76.04zm14.883 2.5c1.712 0 2.734-.802 3.203-1.719h.085V76h2.472v-7.301c0-2.884-2.35-3.75-4.432-3.75-2.294 0-4.055 1.023-4.623 3.011l2.4.341c.256-.746.98-1.385 2.237-1.385 1.194 0 1.847.611 1.847 1.683v.043c0 .739-.774.774-2.699.98-2.116.227-4.14.86-4.14 3.317 0 2.145 1.57 3.281 3.65 3.281zm.668-1.889c-1.073 0-1.84-.49-1.84-1.435 0-.987.86-1.399 2.01-1.562.675-.093 2.024-.263 2.358-.533v1.286c0 1.214-.98 2.244-2.528 2.244zm13.125-9.24h-2.152v-2.614h-2.571v2.614h-1.549v1.989h1.549v6.065c-.014 2.052 1.477 3.061 3.409 3.004a5.174 5.174 0 001.513-.255l-.434-2.01a3.234 3.234 0 01-.752.099c-.647 0-1.165-.227-1.165-1.264v-5.64h2.152v-1.988zm5.289 11.13c1.712 0 2.735-.803 3.203-1.72h.086V76h2.471v-7.301c0-2.884-2.351-3.75-4.432-3.75-2.294 0-4.055 1.023-4.623 3.011l2.4.341c.256-.746.98-1.385 2.237-1.385 1.194 0 1.847.611 1.847 1.683v.043c0 .739-.774.774-2.699.98-2.116.227-4.14.86-4.14 3.317 0 2.145 1.569 3.281 3.65 3.281zm.668-1.89c-1.073 0-1.84-.49-1.84-1.435 0-.987.86-1.399 2.01-1.562.675-.093 2.024-.263 2.358-.533v1.286c0 1.214-.98 2.244-2.528 2.244z" fill="#313131"/><defs><filter id="filter0_b_20_4" x="-10" y="-10" width="208" height="238" filterUnits="userSpaceOnUse" color-interpolation-filters="sRGB"><feFlood flood-opacity="0" result="BackgroundImageFix"/><feGaussianBlur in="BackgroundImage" stdDeviation="5"/><feComposite in2="SourceAlpha" operator="in" result="effect1_backgroundBlur_20_4"/><feBlend in="SourceGraphic" in2="effect1_backgroundBlur_20_4" result="shape"/></filter></defs></svg>