<svg width="200" height="76" fill="none" xmlns="http://www.w3.org/2000/svg"><g filter="url(#filter0_b_13_3542)"><path fill="#fff" fill-opacity=".6" d="M0 0h200v76H0z"/></g><path d="M118 38a18.003 18.003 0 01-18 18 18 18 0 1118-18z" fill="url(#paint0_linear_13_3542)"/><g filter="url(#filter1_d_13_3542)"><path d="M93.7 50.49c0 1.188 2.819.999 6.3.999 3.478 0 6.299.189 6.299-1 0-1.43-2.821-2.364-6.3-2.364-3.48 0-6.3.934-6.3 2.365z" fill="#222"/></g><path d="M93.7 50.49c0 1.188 2.819.999 6.3.999 3.478 0 6.299.189 6.299-1 0-1.43-2.821-2.364-6.3-2.364-3.48 0-6.3.934-6.3 2.365z" fill="url(#paint1_linear_13_3542)"/><path d="M90.098 42.12c0-1.78 1.21-3.22 2.7-3.22 1.492 0 2.7 1.44 2.7 3.22 0 .74-.21 1.424-.567 1.967-.167.25-.423.426-.716.495-.337.08-.839.168-1.417.168a6.153 6.153 0 01-1.418-.168 1.18 1.18 0 01-.715-.495 3.574 3.574 0 01-.567-1.967zm14.4 0c0-1.78 1.208-3.22 2.7-3.22 1.489 0 2.7 1.44 2.7 3.22a3.6 3.6 0 01-.567 1.967 1.18 1.18 0 01-.716.495c-.464.11-.94.167-1.417.168a6.18 6.18 0 01-1.418-.168 1.19 1.19 0 01-.717-.495 3.586 3.586 0 01-.565-1.967z" fill="url(#paint2_linear_13_3542)"/><g filter="url(#filter2_i_13_3542)"><path d="M90.098 42.12c0-1.78 1.21-3.22 2.7-3.22 1.492 0 2.7 1.44 2.7 3.22 0 .74-.21 1.424-.567 1.967-.167.25-.423.426-.716.495-.337.08-.839.168-1.417.168a6.153 6.153 0 01-1.418-.168 1.18 1.18 0 01-.715-.495 3.574 3.574 0 01-.567-1.967zm14.4 0c0-1.78 1.208-3.22 2.7-3.22 1.489 0 2.7 1.44 2.7 3.22a3.6 3.6 0 01-.567 1.967 1.18 1.18 0 01-.716.495c-.464.11-.94.167-1.417.168a6.18 6.18 0 01-1.418-.168 1.19 1.19 0 01-.717-.495 3.586 3.586 0 01-.565-1.967z" fill="#222"/></g><path d="M93.18 40.998a.738.738 0 01.016.16c0 .452-.395.823-.886.823-.488 0-.884-.371-.884-.824a.78.78 0 01.18-.497c.504.12 1.032.234 1.575.338zm13.334.983c-.474 0-.861-.344-.884-.783a31.6 31.6 0 001.724-.306.763.763 0 01.045.268c0 .45-.394.82-.885.82z" fill="#4F4F67"/><g filter="url(#filter3_d_13_3542)"><path d="M102.249 37.1c0-1.004.367-1.35 1.001-1.35.63 0 .932.621 1.139 2.398 2.538 0 6.835-1.201 7.249-1.201.401 0 .624.191.714.6.078.356-.052.694-.498.9-1.397.646-5.496 2.104-8.964 2.104-.378 0-.641-.193-.641-.677V37.1zm-6.64 1.048c.207-1.777.509-2.398 1.139-2.398.634 0 1.001.346 1.001 1.35v2.774c0 .484-.263.677-.641.677-3.467 0-7.567-1.458-8.964-2.103-.446-.207-.576-.545-.497-.9.092-.41.315-.601.713-.601.414 0 4.711 1.201 7.25 1.201z" fill="#222"/></g><path d="M102.249 37.1c0-1.004.367-1.35 1.001-1.35.63 0 .932.621 1.139 2.398 2.538 0 6.835-1.201 7.249-1.201.401 0 .624.191.714.6.078.356-.052.694-.498.9-1.397.646-5.496 2.104-8.964 2.104-.378 0-.641-.193-.641-.677V37.1zm-6.64 1.048c.207-1.777.509-2.398 1.139-2.398.634 0 1.001.346 1.001 1.35v2.774c0 .484-.263.677-.641.677-3.467 0-7.567-1.458-8.964-2.103-.446-.207-.576-.545-.497-.9.092-.41.315-.601.713-.601.414 0 4.711 1.201 7.25 1.201z" fill="url(#paint3_linear_13_3542)"/><path d="M60 38a18 18 0 11-36.002 0A18 18 0 0160 38z" fill="url(#paint4_linear_13_3542)"/><path d="M36.697 44.498C36.342 48.649 38.33 51.5 42 51.5c3.668 0 5.659-2.85 5.303-7.002C46.95 40.344 44.795 38 42 38c-2.794 0-4.95 2.344-5.303 6.498z" fill="url(#paint5_linear_13_3542)"/><path d="M31.875 32.375c0-1.863 1.258-3.375 2.813-3.375 1.554 0 2.812 1.512 2.812 3.375 0 1.865-1.258 3.375-2.813 3.375-1.554 0-2.812-1.51-2.812-3.375zm14.625 0c0-1.863 1.26-3.375 2.813-3.375 1.554 0 2.812 1.512 2.812 3.375 0 1.865-1.258 3.375-2.813 3.375-1.552 0-2.812-1.51-2.812-3.375z" fill="url(#paint6_linear_13_3542)"/><g filter="url(#filter4_i_13_3542)"><path d="M31.875 32.375c0-1.863 1.258-3.375 2.813-3.375 1.554 0 2.812 1.512 2.812 3.375 0 1.865-1.258 3.375-2.813 3.375-1.554 0-2.812-1.51-2.812-3.375zm14.625 0c0-1.863 1.26-3.375 2.813-3.375 1.554 0 2.812 1.512 2.812 3.375 0 1.865-1.258 3.375-2.813 3.375-1.552 0-2.812-1.51-2.812-3.375z" fill="#222"/></g><path d="M34.085 30.277c.418.094.652.567.522 1.055-.129.49-.572.81-.99.716-.419-.095-.653-.567-.522-1.058.128-.486.571-.81.99-.713zm14.98.142c.464.105.725.63.58 1.17-.143.546-.634.9-1.1.796-.463-.103-.724-.63-.58-1.172.142-.545.635-.9 1.103-.794h-.003z" fill="#4E506A"/><g filter="url(#filter5_d_13_3542)"><path d="M48.901 23.815c.117-.01.234-.015.354-.015 1.095 0 2.227.459 3.087 1.264a.828.828 0 01-.197 1.336.773.773 0 01-.87-.134c-.618-.583-1.476-.9-2.232-.83a1.8 1.8 0 00-1.327.744.78.78 0 01-1.105.153.828.828 0 01-.15-1.14 3.353 3.353 0 012.44-1.378zm-17.246 1.25a4.594 4.594 0 013.087-1.265 3.354 3.354 0 012.795 1.392.83.83 0 01-.149 1.141.782.782 0 01-1.107-.153 1.803 1.803 0 00-1.327-.745c-.754-.07-1.614.248-2.232.83a.773.773 0 01-1.116-.053.828.828 0 01.05-1.148z" fill="#222"/></g><path d="M48.901 23.815c.117-.01.234-.015.354-.015 1.095 0 2.227.459 3.087 1.264a.828.828 0 01-.197 1.336.773.773 0 01-.87-.134c-.618-.583-1.476-.9-2.232-.83a1.8 1.8 0 00-1.327.744.78.78 0 01-1.105.153.828.828 0 01-.15-1.14 3.353 3.353 0 012.44-1.378zm-17.246 1.25a4.594 4.594 0 013.087-1.265 3.354 3.354 0 012.795 1.392.83.83 0 01-.149 1.141.782.782 0 01-1.107-.153 1.803 1.803 0 00-1.327-.745c-.754-.07-1.614.248-2.232.83a.773.773 0 01-1.116-.053.828.828 0 01.05-1.148z" fill="url(#paint7_linear_13_3542)"/><path d="M158 20a18 18 0 100 36 18 18 0 000-36z" fill="url(#paint8_linear_13_3542)"/><path d="M163.566 29c-4.945 0-5.564 4.104-5.564 4.104S157.386 29 152.44 29c-4.756 0-6.142 5-5.562 7.672 1.53 7.066 11.124 12.016 11.124 12.016s9.596-4.95 11.126-12.016c.579-2.672-.81-7.672-5.562-7.672z" fill="#fff"/><defs><linearGradient id="paint0_linear_13_3542" x1="100" y1="20" x2="100" y2="44.19" gradientUnits="userSpaceOnUse"><stop stop-color="#E04300"/><stop offset="1" stop-color="#FFA320"/></linearGradient><linearGradient id="paint1_linear_13_3542" x1="99.999" y1="48.582" x2="99.999" y2="51.5" gradientUnits="userSpaceOnUse"><stop stop-color="#3D0D00"/><stop offset="1" stop-color="#661C04"/></linearGradient><linearGradient id="paint2_linear_13_3542" x1="99.999" y1="38.9" x2="99.999" y2="44.749" gradientUnits="userSpaceOnUse"><stop stop-color="#191A33"/><stop offset=".872" stop-color="#3B426A"/></linearGradient><linearGradient id="paint3_linear_13_3542" x1="108.134" y1="40.999" x2="108.134" y2="35.75" gradientUnits="userSpaceOnUse"><stop stop-color="#9A2F00"/><stop offset="1" stop-color="#D44800"/></linearGradient><linearGradient id="paint4_linear_13_3542" x1="42" y1="23.69" x2="42" y2="56" gradientUnits="userSpaceOnUse"><stop stop-color="#FEEA70"/><stop offset="1" stop-color="#F69B30"/></linearGradient><linearGradient id="paint5_linear_13_3542" x1="42" y1="38" x2="42" y2="51.5" gradientUnits="userSpaceOnUse"><stop stop-color="#472315"/><stop offset="1" stop-color="#8B3A0E"/></linearGradient><linearGradient id="paint6_linear_13_3542" x1="42" y1="29" x2="42" y2="35.75" gradientUnits="userSpaceOnUse"><stop stop-color="#191A33"/><stop offset=".872" stop-color="#3B426A"/></linearGradient><linearGradient id="paint7_linear_13_3542" x1="41.998" y1="23.798" x2="41.998" y2="26.498" gradientUnits="userSpaceOnUse"><stop stop-color="#E78E0D"/><stop offset="1" stop-color="#CB6000"/></linearGradient><linearGradient id="paint8_linear_13_3542" x1="158" y1="20" x2="158" y2="56" gradientUnits="userSpaceOnUse"><stop stop-color="#FF6680"/><stop offset="1" stop-color="#E61739"/></linearGradient><filter id="filter0_b_13_3542" x="-10" y="-10" width="220" height="96" filterUnits="userSpaceOnUse" color-interpolation-filters="sRGB"><feFlood flood-opacity="0" result="BackgroundImageFix"/><feGaussianBlur in="BackgroundImage" stdDeviation="5"/><feComposite in2="SourceAlpha" operator="in" result="effect1_backgroundBlur_13_3542"/><feBlend in="SourceGraphic" in2="effect1_backgroundBlur_13_3542" result="shape"/></filter><filter id="filter1_d_13_3542" x="92.699" y="48.125" width="14.6" height="5.375" filterUnits="userSpaceOnUse" color-interpolation-filters="sRGB"><feFlood flood-opacity="0" result="BackgroundImageFix"/><feColorMatrix in="SourceAlpha" values="0 0 0 0 0 0 0 0 0 0 0 0 0 0 0 0 0 0 127 0" result="hardAlpha"/><feOffset dy="1"/><feGaussianBlur stdDeviation=".5"/><feColorMatrix values="0 0 0 0 1 0 0 0 0 0.509681 0 0 0 0 0 0 0 0 0.371207 0"/><feBlend in2="BackgroundImageFix" result="effect1_dropShadow_13_3542"/><feBlend in="SourceGraphic" in2="effect1_dropShadow_13_3542" result="shape"/></filter><filter id="filter2_i_13_3542" x="90.098" y="38.9" width="19.8" height="5.85" filterUnits="userSpaceOnUse" color-interpolation-filters="sRGB"><feFlood flood-opacity="0" result="BackgroundImageFix"/><feBlend in="SourceGraphic" in2="BackgroundImageFix" result="shape"/><feColorMatrix in="SourceAlpha" values="0 0 0 0 0 0 0 0 0 0 0 0 0 0 0 0 0 0 127 0" result="hardAlpha"/><feOffset/><feGaussianBlur stdDeviation=".5"/><feComposite in2="hardAlpha" operator="arithmetic" k2="-1" k3="1"/><feColorMatrix values="0 0 0 0 0.0387428 0 0 0 0 0.0406183 0 0 0 0 0.0875053 0 0 0 1 0"/><feBlend in2="shape" result="effect1_innerShadow_13_3542"/></filter><filter id="filter3_d_13_3542" x="87.525" y="35.75" width="24.948" height="5.502" filterUnits="userSpaceOnUse" color-interpolation-filters="sRGB"><feFlood flood-opacity="0" result="BackgroundImageFix"/><feColorMatrix in="SourceAlpha" values="0 0 0 0 0 0 0 0 0 0 0 0 0 0 0 0 0 0 127 0" result="hardAlpha"/><feOffset dy=".6"/><feGaussianBlur stdDeviation=".05"/><feColorMatrix values="0 0 0 0 0.565875 0 0 0 0 0.151272 0 0 0 0 0 0 0 0 0.15024 0"/><feBlend in2="BackgroundImageFix" result="effect1_dropShadow_13_3542"/><feBlend in="SourceGraphic" in2="effect1_dropShadow_13_3542" result="shape"/></filter><filter id="filter4_i_13_3542" x="31.875" y="29" width="20.25" height="6.75" filterUnits="userSpaceOnUse" color-interpolation-filters="sRGB"><feFlood flood-opacity="0" result="BackgroundImageFix"/><feBlend in="SourceGraphic" in2="BackgroundImageFix" result="shape"/><feColorMatrix in="SourceAlpha" values="0 0 0 0 0 0 0 0 0 0 0 0 0 0 0 0 0 0 127 0" result="hardAlpha"/><feOffset/><feGaussianBlur stdDeviation=".5"/><feComposite in2="hardAlpha" operator="arithmetic" k2="-1" k3="1"/><feColorMatrix values="0 0 0 0 0.0980392 0 0 0 0 0.101961 0 0 0 0 0.2 0 0 0 0.819684 0"/><feBlend in2="shape" result="effect1_innerShadow_13_3542"/></filter><filter id="filter5_d_13_3542" x="28.398" y="21.799" width="27.2" height="8.698" filterUnits="userSpaceOnUse" color-interpolation-filters="sRGB"><feFlood flood-opacity="0" result="BackgroundImageFix"/><feColorMatrix in="SourceAlpha" values="0 0 0 0 0 0 0 0 0 0 0 0 0 0 0 0 0 0 127 0" result="hardAlpha"/><feOffset dy="1"/><feGaussianBlur stdDeviation="1.5"/><feColorMatrix values="0 0 0 0 0.803922 0 0 0 0 0.388235 0 0 0 0 0.00392157 0 0 0 0.145679 0"/><feBlend in2="BackgroundImageFix" result="effect1_dropShadow_13_3542"/><feBlend in="SourceGraphic" in2="effect1_dropShadow_13_3542" result="shape"/></filter></defs></svg>