<svg width="188" height="68" fill="none" xmlns="http://www.w3.org/2000/svg"><g filter="url(#filter0_b_13_3565)"><path fill="#fff" fill-opacity=".6" d="M0 0h188v68H0z"/></g><path d="M111.08 22.66l-2.76 5.316V31h-1.368v-3.024l-2.772-5.316h1.524l1.932 4.092 1.932-4.092h1.512zm7.146 4.872c0 .248-.016.472-.048.672h-5.052c.04.528.236.952.588 1.272.352.32.784.48 1.296.48.736 0 1.256-.308 1.56-.924h1.476a2.998 2.998 0 01-1.092 1.5c-.52.384-1.168.576-1.944.576-.632 0-1.2-.14-1.704-.42a3.139 3.139 0 01-1.176-1.2c-.28-.52-.42-1.12-.42-1.8 0-.68.136-1.276.408-1.788.28-.52.668-.92 1.164-1.2.504-.28 1.08-.42 1.728-.42.624 0 1.18.136 1.668.408.488.272.868.656 1.14 1.152.272.488.408 1.052.408 1.692zm-1.428-.432c-.008-.504-.188-.908-.54-1.212-.352-.304-.788-.456-1.308-.456-.472 0-.876.152-1.212.456-.336.296-.536.7-.6 1.212h3.66zm2.318.564c0-.664.136-1.252.408-1.764a3.047 3.047 0 012.712-1.62c.52 0 .972.104 1.356.312.392.2.704.452.936.756v-.96h1.38V31h-1.38v-.984a2.717 2.717 0 01-.948.78c-.4.208-.856.312-1.368.312a2.938 2.938 0 01-1.56-.432 3.206 3.206 0 01-1.128-1.224c-.272-.528-.408-1.124-.408-1.788zm5.412.024c0-.456-.096-.852-.288-1.188a1.938 1.938 0 00-.732-.768 1.93 1.93 0 00-.984-.264c-.352 0-.68.088-.984.264-.304.168-.552.42-.744.756-.184.328-.276.72-.276 1.176 0 .456.092.856.276 1.2.192.344.44.608.744.792a1.974 1.974 0 001.968 0c.304-.176.548-.432.732-.768.192-.344.288-.744.288-1.2zm4.545-2.34c.2-.336.464-.596.792-.78.336-.192.732-.288 1.188-.288v1.416h-.348c-.536 0-.944.136-1.224.408-.272.272-.408.744-.408 1.416V31h-1.368v-6.612h1.368v.96zm5.637 5.76c-.52 0-.988-.092-1.404-.276a2.536 2.536 0 01-.972-.768 1.943 1.943 0 01-.384-1.092h1.416a.99.99 0 00.396.708c.248.184.556.276.924.276.384 0 .68-.072.888-.216.216-.152.324-.344.324-.576 0-.248-.12-.432-.36-.552-.232-.12-.604-.252-1.116-.396a10.83 10.83 0 01-1.212-.396 2.176 2.176 0 01-.816-.588c-.224-.264-.336-.612-.336-1.044 0-.352.104-.672.312-.96.208-.296.504-.528.888-.696.392-.168.84-.252 1.344-.252.752 0 1.356.192 1.812.576.464.376.712.892.744 1.548h-1.368a.974.974 0 00-.36-.708c-.216-.176-.508-.264-.876-.264-.36 0-.636.068-.828.204a.632.632 0 00-.288.54c0 .176.064.324.192.444s.284.216.468.288c.184.064.456.148.816.252.48.128.872.26 1.176.396.312.128.58.32.804.576.224.256.34.596.348 1.02 0 .376-.104.712-.312 1.008-.208.296-.504.528-.888.696-.376.168-.82.252-1.332.252zm-28.442 6.656v2.448h2.88v1.116h-2.88v2.556h3.24V45H104.9v-8.352h4.608v1.116h-3.24zm7.757 3.888L116.161 45h-1.548l-1.428-2.244L111.841 45h-1.428l2.136-3.252-2.136-3.36h1.548l1.428 2.244 1.344-2.244h1.428l-2.136 3.264zm4.524-2.292a2.78 2.78 0 01.948-.768c.4-.208.852-.312 1.356-.312.576 0 1.1.144 1.572.432.48.28.856.676 1.128 1.188.272.512.408 1.1.408 1.764 0 .664-.136 1.26-.408 1.788-.272.52-.648.928-1.128 1.224a2.96 2.96 0 01-1.572.432c-.504 0-.952-.1-1.344-.3a3.083 3.083 0 01-.96-.768v4.104h-1.368v-9.756h1.368v.972zm4.02 2.304c0-.456-.096-.848-.288-1.176a1.832 1.832 0 00-.744-.756 1.974 1.974 0 00-1.968 0 2.022 2.022 0 00-.744.768c-.184.336-.276.732-.276 1.188 0 .456.092.856.276 1.2.192.336.44.592.744.768a1.974 1.974 0 001.968 0c.312-.184.56-.448.744-.792.192-.344.288-.744.288-1.2zm8.805-.132c0 .248-.016.472-.048.672h-5.052c.04.528.236.952.588 1.272.352.32.784.48 1.296.48.736 0 1.256-.308 1.56-.924h1.476a2.998 2.998 0 01-1.092 1.5c-.52.384-1.168.576-1.944.576-.632 0-1.2-.14-1.704-.42a3.139 3.139 0 01-1.176-1.2c-.28-.52-.42-1.12-.42-1.8 0-.68.136-1.276.408-1.788.28-.52.668-.92 1.164-1.2.504-.28 1.08-.42 1.728-.42.624 0 1.18.136 1.668.408.488.272.868.656 1.14 1.152.272.488.408 1.052.408 1.692zm-1.428-.432c-.008-.504-.188-.908-.54-1.212-.352-.304-.788-.456-1.308-.456-.472 0-.876.152-1.212.456-.336.296-.536.7-.6 1.212h3.66zm4.142-1.752c.2-.336.464-.596.792-.78.336-.192.732-.288 1.188-.288v1.416h-.348c-.536 0-.944.136-1.224.408-.272.272-.408.744-.408 1.416V45h-1.368v-6.612h1.368v.96zm3.934-1.836a.847.847 0 01-.624-.252.847.847 0 01-.252-.624c0-.248.084-.456.252-.624a.847.847 0 01.624-.252c.24 0 .444.084.612.252a.847.847 0 01.252.624.847.847 0 01-.252.624.833.833 0 01-.612.252zm.672.876V45h-1.368v-6.612h1.368zm7.856 3.144c0 .248-.016.472-.048.672h-5.052c.04.528.236.952.588 1.272.352.32.784.48 1.296.48.736 0 1.256-.308 1.56-.924h1.476a2.998 2.998 0 01-1.092 1.5c-.52.384-1.168.576-1.944.576-.632 0-1.2-.14-1.704-.42a3.139 3.139 0 01-1.176-1.2c-.28-.52-.42-1.12-.42-1.8 0-.68.136-1.276.408-1.788.28-.52.668-.92 1.164-1.2.504-.28 1.08-.42 1.728-.42.624 0 1.18.136 1.668.408.488.272.868.656 1.14 1.152.272.488.408 1.052.408 1.692zm-1.428-.432c-.008-.504-.188-.908-.54-1.212-.352-.304-.788-.456-1.308-.456-.472 0-.876.152-1.212.456-.336.296-.536.7-.6 1.212h3.66zm6.11-2.82c.52 0 .984.108 1.392.324.416.216.74.536.972.96.232.424.348.936.348 1.536V45h-1.356v-3.696c0-.592-.148-1.044-.444-1.356-.296-.32-.7-.48-1.212-.48s-.92.16-1.224.48c-.296.312-.444.764-.444 1.356V45h-1.368v-6.612h1.368v.756c.224-.272.508-.484.852-.636a2.785 2.785 0 011.116-.228zm4.001 3.408c0-.68.136-1.276.408-1.788.28-.52.664-.92 1.152-1.2.488-.28 1.048-.42 1.68-.42.8 0 1.46.192 1.98.576.528.376.884.916 1.068 1.62h-1.476a1.56 1.56 0 00-.576-.768c-.264-.184-.596-.276-.996-.276-.56 0-1.008.2-1.344.6-.328.392-.492.944-.492 1.656s.164 1.268.492 1.668c.336.4.784.6 1.344.6.792 0 1.316-.348 1.572-1.044h1.476c-.192.672-.552 1.208-1.08 1.608-.528.392-1.184.588-1.968.588-.632 0-1.192-.14-1.68-.42a3.08 3.08 0 01-1.152-1.2c-.272-.52-.408-1.12-.408-1.8zm13.711-.156c0 .248-.016.472-.048.672h-5.052c.04.528.236.952.588 1.272.352.32.784.48 1.296.48.736 0 1.256-.308 1.56-.924h1.476a2.998 2.998 0 01-1.092 1.5c-.52.384-1.168.576-1.944.576-.632 0-1.2-.14-1.704-.42a3.139 3.139 0 01-1.176-1.2c-.28-.52-.42-1.12-.42-1.8 0-.68.136-1.276.408-1.788.28-.52.668-.92 1.164-1.2.504-.28 1.08-.42 1.728-.42.624 0 1.18.136 1.668.408.488.272.868.656 1.14 1.152.272.488.408 1.052.408 1.692zm-1.428-.432c-.008-.504-.188-.908-.54-1.212-.352-.304-.788-.456-1.308-.456-.472 0-.876.152-1.212.456-.336.296-.536.7-.6 1.212h3.66z" fill="#313131"/><path d="M25.92 41.8c2.56-2.213 4.573-4.027 6.04-5.44 1.493-1.44 2.733-2.933 3.72-4.48.987-1.547 1.48-3.093 1.48-4.64 0-1.6-.387-2.853-1.16-3.76-.747-.907-1.933-1.36-3.56-1.36-1.573 0-2.8.507-3.68 1.52-.853.987-1.307 2.32-1.36 4H23c.08-3.04.987-5.36 2.72-6.96 1.76-1.627 3.987-2.44 6.68-2.44 2.907 0 5.173.8 6.8 2.4 1.653 1.6 2.48 3.733 2.48 6.4 0 1.92-.493 3.773-1.48 5.56a22.068 22.068 0 01-3.48 4.76c-1.333 1.387-3.04 3-5.12 4.84l-1.8 1.6h12.68v3.8H23.04v-3.32l2.88-2.48zm20.566-8.76c0-4.613.773-8.213 2.32-10.8 1.573-2.613 4.267-3.92 8.08-3.92 3.813 0 6.493 1.307 8.04 3.92 1.573 2.587 2.36 6.187 2.36 10.8 0 4.667-.787 8.32-2.36 10.96-1.547 2.613-4.227 3.92-8.04 3.92-3.813 0-6.507-1.307-8.08-3.92-1.547-2.64-2.32-6.293-2.32-10.96zm16.32 0c0-2.16-.147-3.987-.44-5.48-.267-1.493-.827-2.707-1.68-3.64-.853-.96-2.12-1.44-3.8-1.44-1.68 0-2.947.48-3.8 1.44-.853.933-1.427 2.147-1.72 3.64-.267 1.493-.4 3.32-.4 5.48 0 2.24.133 4.12.4 5.64.267 1.52.827 2.747 1.68 3.68.88.933 2.16 1.4 3.84 1.4 1.68 0 2.947-.467 3.8-1.4.88-.933 1.453-2.16 1.72-3.68.267-1.52.4-3.4.4-5.64zm31.385 2.44h-8.08v8.28h-4.24v-8.28h-8.08v-3.84h8.08v-8.28h4.24v8.28h8.08v3.84z" fill="#0AC05E"/><defs><filter id="filter0_b_13_3565" x="-10" y="-10" width="208" height="88" filterUnits="userSpaceOnUse" color-interpolation-filters="sRGB"><feFlood flood-opacity="0" result="BackgroundImageFix"/><feGaussianBlur in="BackgroundImage" stdDeviation="5"/><feComposite in2="SourceAlpha" operator="in" result="effect1_backgroundBlur_13_3565"/><feBlend in="SourceGraphic" in2="effect1_backgroundBlur_13_3565" result="shape"/></filter></defs></svg>