<svg width="99" height="16" fill="none" xmlns="http://www.w3.org/2000/svg"><path d="M13.8 15h-3l-.84-2.52H4.38L3.54 15H.56l4.9-14h3.42l4.92 14zM7.18 4.18L5.26 9.9H9.1L7.18 4.18zM25.82 15h-2.98l-2.82-4.86h-2.1V15h-2.76V1h5.6c1.293 0 2.393.453 3.3 1.36.906.907 1.36 2 1.36 3.28 0 .867-.247 1.673-.74 2.42a4.658 4.658 0 01-1.96 1.66l3.1 5.28zM20.76 3.58h-2.84v4.14h2.84c.52 0 .966-.2 1.34-.6.373-.413.56-.907.56-1.48s-.187-1.06-.56-1.46c-.374-.4-.82-.6-1.34-.6zm16.464 11.7c-1.373 0-2.533-.307-3.48-.92a5.022 5.022 0 01-2.02-2.54l2.36-1.38c.547 1.427 1.62 2.14 3.22 2.14.747 0 1.307-.133 1.68-.4a1.26 1.26 0 00.56-1.08c0-.493-.22-.873-.66-1.14-.44-.28-1.226-.58-2.36-.9-1.226-.373-2.193-.807-2.9-1.3-.88-.653-1.32-1.613-1.32-2.88 0-1.28.447-2.287 1.34-3.02.894-.76 1.98-1.14 3.26-1.14 1.12 0 2.114.273 2.98.82.867.547 1.54 1.32 2.02 2.32l-2.32 1.34c-.56-1.2-1.453-1.8-2.68-1.8-.56 0-1.006.133-1.34.4-.333.253-.5.587-.5 1 0 .44.18.8.54 1.08.4.28 1.107.573 2.12.88l.96.32c.174.053.474.167.9.34.4.147.694.287.88.42.654.4 1.094.813 1.32 1.24.347.56.52 1.22.52 1.98 0 1.293-.473 2.32-1.42 3.08-.946.76-2.166 1.14-3.66 1.14zm14.743-8.72V1h2.74v14h-2.74V9.2h-5.2V15h-2.76V1h2.76v5.56h5.2zM69.307 15h-3l-.84-2.52h-5.58l-.84 2.52h-2.98l4.9-14h3.42l4.92 14zm-6.62-10.82l-1.92 5.72h3.84l-1.92-5.72zm13.54 3.62l5.38 7.2h-3.18l-5-6.56V15h-2.76V1h2.76v6.18l4.8-6.18h3.18l-5.18 6.8zm6.745 7.2V1h2.76v14h-2.76zm16.011 0h-2.98l-2.82-4.86h-2.1V15h-2.76V1h5.6c1.294 0 2.394.453 3.3 1.36.907.907 1.36 2 1.36 3.28 0 .867-.246 1.673-.74 2.42a4.657 4.657 0 01-1.96 1.66l3.1 5.28zm-5.06-11.42h-2.84v4.14h2.84c.52 0 .967-.2 1.34-.6.374-.413.56-.907.56-1.48s-.186-1.06-.56-1.46c-.373-.4-.82-.6-1.34-.6z" fill="#000"/></svg>