<svg width="138" height="33" fill="none" xmlns="http://www.w3.org/2000/svg"><path d="M.52 24.327a.663.663 0 01-.299-.517V8.327c0-.189.135-.421.3-.517L14.1.071a.664.664 0 01.599 0l13.58 7.74a.664.664 0 01.299.517v15.483a.664.664 0 01-.3.517l-13.58 7.74a.664.664 0 01-.598 0L.52 24.328zM41.335 9.868v6.28h2.686c1.948 0 2.815-.794 2.815-2.093v-2.093c0-1.3-.867-2.094-2.815-2.094h-2.686zm0 8.277v5.607c0 .336-.086.48-.39.48h-1.32c-.282 0-.39-.144-.39-.48v-15.4c0-.336.108-.48.39-.48h4.396c3.724 0 4.915 1.732 4.915 3.705v2.863c0 1.973-1.19 3.705-4.915 3.705h-2.686zm12.489-8.277v5.895h2.685c1.949 0 2.815-.77 2.815-2.093v-1.708c0-1.3-.866-2.094-2.815-2.094h-2.685zm0 7.893v5.99c0 .337-.087.482-.39.482h-1.321c-.282 0-.39-.145-.39-.481v-15.4c0-.336.108-.48.39-.48h4.396c3.725 0 4.916 1.732 4.916 3.705v2.502c0 1.468-.671 2.791-2.534 3.369l2.599 6.304c.108.288-.087.48-.39.48h-1.3c-.303 0-.346-.192-.476-.48l-2.447-5.991h-3.053zm18.985-5.992c0-1.299-.914-2.093-2.971-2.093-2.034 0-2.949.794-2.949 2.093v8.566c0 1.3.915 2.093 2.949 2.093 2.057 0 2.971-.794 2.971-2.093v-8.566zm-8.16-.385c0-1.973 1.28-3.705 5.189-3.705 3.931 0 5.212 1.732 5.212 3.705v9.336c0 1.973-1.28 3.705-5.212 3.705-3.909 0-5.189-1.732-5.189-3.705v-9.336zm22.47-3.513c.296 0 .434.12.434.458V9.41c0 .337-.138.457-.435.457h-3.657v13.884c0 .336-.114.48-.412.48h-1.417c-.297 0-.41-.144-.41-.48V9.868h-3.658c-.32 0-.434-.12-.434-.457V8.33c0-.337.114-.458.434-.458h9.554zM97.77 11.77c0-1.299-.914-2.093-2.97-2.093-2.035 0-2.95.794-2.95 2.093v8.566c0 1.3.915 2.093 2.95 2.093 2.056 0 2.97-.794 2.97-2.093V11.77zm-8.16-.385c0-1.973 1.28-3.705 5.19-3.705 3.93 0 5.211 1.732 5.211 3.705v9.336c0 1.973-1.28 3.705-5.212 3.705-3.909 0-5.189-1.732-5.189-3.705v-9.336zm23.631 12.392c0 .312-.086.457-.39.457h-1.191c-.216 0-.303-.073-.389-.217l-5.09-9.913c-.476-.89-.736-1.636-.779-1.732v11.405c0 .312-.109.457-.39.457h-1.213c-.281 0-.39-.145-.39-.457V8.329c0-.313.109-.458.39-.458h1.213c.173 0 .281.073.346.193l5.219 10.13c.304.577.672 1.54.672 1.54V8.328c0-.313.13-.458.411-.458h1.191c.304 0 .39.145.39.458v15.447zm3.724.457c-.281 0-.389-.145-.389-.481v-15.4c0-.336.108-.48.389-.48h7.407c.281 0 .411.12.411.457v1.08c0 .337-.13.457-.411.457h-5.696v4.86h5.306c.303 0 .433.121.433.458v1.035c0 .312-.13.457-.433.457h-5.306v5.558h5.934c.281 0 .411.096.411.433v1.107c0 .337-.13.457-.411.457h-7.645zM136.958 7.87c.281 0 .411.12.411.458V9.41c0 .337-.13.457-.411.457h-3.465v13.884c0 .336-.109.48-.39.48h-1.343c-.281 0-.389-.144-.389-.48V9.868h-3.465c-.304 0-.412-.12-.412-.457V8.33c0-.337.108-.458.412-.458h9.052z" fill="#E15B29"/></svg>