<svg width="138" height="18" fill="none" xmlns="http://www.w3.org/2000/svg"><path d="M59.912 11.754h9.062l-4.792-7.71-8.794 13.94h-4.003L62.082 1.24a2.528 2.528 0 012.1-1.085c.832 0 1.607.394 2.058 1.057l10.74 16.772h-4.003l-1.889-3.115h-9.175l-2.001-3.115zm41.577 3.115V.324h-3.396v15.969c0 .436.169.86.493 1.183.324.325.761.508 1.24.508h15.49l2.001-3.115h-15.828zm-56.193-2.607c3.298 0 5.976-2.664 5.976-5.962A5.979 5.979 0 0045.296.324h-14.86v17.66h3.396V3.439h11.239a2.851 2.851 0 012.847 2.86 2.851 2.851 0 01-2.847 2.862l-9.576-.014 10.14 8.837h4.933l-6.822-5.722h1.55zm-35.76 5.722C4.66 17.984.703 14.037.703 9.16.704 4.284 4.66.324 9.535.324H19.8c4.877 0 8.83 3.96 8.83 8.837s-3.953 8.823-8.83 8.823H9.535zm10.036-3.115a5.709 5.709 0 005.716-5.708 5.72 5.72 0 00-5.716-5.722h-9.81A5.722 5.722 0 004.046 9.16a5.71 5.71 0 005.716 5.708h9.81zm64.497 3.115c-4.877 0-8.837-3.947-8.837-8.823 0-4.877 3.96-8.837 8.837-8.837H96.26l-1.987 3.115h-9.978a5.726 5.726 0 00-5.723 5.722c0 3.157 2.566 5.708 5.723 5.708h12.247l-2.001 3.115H84.069zm41.535-3.115a5.707 5.707 0 01-5.496-4.158h14.517l2.001-3.115h-16.518a5.723 5.723 0 015.496-4.157h9.965l2.015-3.115h-12.205c-4.877 0-8.837 3.96-8.837 8.837s3.96 8.823 8.837 8.823h10.472l2.001-3.115h-12.248z" fill="#EA1B22"/></svg>