<svg width="138" height="26" fill="none" xmlns="http://www.w3.org/2000/svg"><path d="M3.66 20.318a2.855 2.855 0 01-2.488-1.443 2.76 2.76 0 01.078-2.842L6.372 7.99a2.857 2.857 0 012.53-1.374 2.851 2.851 0 012.447 1.509 2.759 2.759 0 01-.155 2.837l-5.119 8.044a2.856 2.856 0 01-2.416 1.313z" fill="#F62B54"/><path d="M12.446 20.318a2.846 2.846 0 01-2.483-1.44c-.5-.887-.47-1.977.078-2.834l5.113-8.026a2.852 2.852 0 012.53-1.403 2.848 2.848 0 012.464 1.517 2.751 2.751 0 01-.184 2.85l-5.112 8.026a2.851 2.851 0 01-2.406 1.31z" fill="#FC0"/><path d="M21.036 20.386c1.456 0 2.637-1.156 2.637-2.582s-1.18-2.582-2.637-2.582-2.637 1.156-2.637 2.582 1.18 2.582 2.637 2.582z" fill="#00CA72"/><path d="M135.607 15.37c.797 0 1.273.567 1.273 1.495v3.18h1.082v-3.253c0-1.578-.743-2.493-2.141-2.493-.547 0-1.416.15-1.933 1.156a1.773 1.773 0 00-1.451-1.096 2.5 2.5 0 00-.608-.036c-.445.036-1.237.313-1.534.94v-.843h-1.083v5.625h1.083V17.01c0-1.18.773-1.638 1.547-1.638.725 0 1.201.554 1.201 1.482v3.192h1.077V17.01c0-.94.564-1.65 1.487-1.638zm-10.37 3.735c.495.011.972-.186 1.318-.545.348-.358.532-.845.514-1.345 0-1.133-.834-1.844-1.832-1.844-1 0-1.832.71-1.832 1.844-.02.499.165.985.51 1.342.345.358.82.557 1.313.548h.009zm0 1.055c-1.583 0-2.903-1.169-2.903-2.952s1.32-2.915 2.903-2.915c1.582 0 2.914 1.132 2.914 2.915 0 1.783-1.339 2.958-2.922 2.958l.008-.006zm-8.476-2.952l-.011.007c0-1.784 1.355-2.915 2.949-2.922a2.86 2.86 0 012.141.903l-.821.699a1.848 1.848 0 00-1.32-.53c-.999 0-1.867.711-1.867 1.843 0 .765.455 1.455 1.152 1.748a1.85 1.85 0 002.035-.41l.833.698a2.877 2.877 0 01-2.153.916c-1.582 0-2.938-1.169-2.938-2.952zm-3.466 1.757a.75.75 0 01.74-.758.747.747 0 01.741.758.75.75 0 01-.741.711.75.75 0 01-.74-.71zm2.961-11.695h-3.854l-2.701 6.964-2.687-6.964h-3.854l4.685 11.005-2.914 7.275h3.826l7.499-18.28zm-23.438 6.12c0 1.759 1.537 2.916 3.046 2.916 1.484 0 2.942-1.077 2.942-2.916 0-1.84-1.458-2.918-2.942-2.918-1.51 0-3.046 1.158-3.046 2.918zm5.988 6.146v-1.393c-.782 1.183-2.605 1.63-3.54 1.63-3.098 0-6.197-2.442-6.197-6.383s3.098-6.383 6.196-6.383c.78 0 2.604.26 3.54 1.628V7.274h3.593v12.264l-3.592-.001v-.001zm-10.759 0h-3.592v-1.524c-.6 1.129-2.056 1.786-3.567 1.786-3.124 0-5.884-2.495-5.884-6.358 0-3.937 2.76-6.435 5.884-6.435 1.509 0 2.969.63 3.567 1.759V.588h3.592v18.948zm-3.67-6.174c0-1.838-1.328-2.916-2.811-2.916-1.537 0-2.814 1.156-2.814 2.916 0 1.817 1.277 2.968 2.812 2.968 1.512.002 2.812-1.207 2.812-2.968zm-18.255-.316c0-1.865.963-2.496 2.239-2.496 1.223 0 2.108.814 2.108 2.442v6.541h3.619v-7.328c0-3.492-1.72-5.2-4.453-5.2-1.432 0-2.863.814-3.514 2.049V7.27h-3.617v12.264h3.618v-6.488zm-10.965 6.698c-3.436 0-6.303-2.521-6.303-6.383 0-3.863 2.863-6.36 6.303-6.36s6.327 2.497 6.327 6.36c0 3.864-2.891 6.384-6.327 6.384v-.001zm0-3.57c1.508 0 2.76-1.105 2.76-2.812 0-1.655-1.25-2.784-2.76-2.784a2.679 2.679 0 00-1.956.804 2.728 2.728 0 00-.778 1.98c.001 1.709 1.25 2.811 2.734 2.811zm-12.79-5.622c1.067 0 2.005.84 2.005 2.441v6.543h3.593V12.57c0-3.703-1.801-5.567-4.687-5.567-.857 0-2.472.26-3.644 2.179-.678-1.419-1.979-2.155-3.902-2.155a3.476 3.476 0 00-3.176 2.024V7.27h-3.62v12.264h3.617v-6.49c0-1.864 1.016-2.495 2.109-2.495 1.042 0 1.977.814 2.004 2.364v6.62h3.619v-6.488c0-1.784.938-2.493 2.083-2.493v-.002z" fill="#333"/></svg>