<svg width="138" height="30" fill="none" xmlns="http://www.w3.org/2000/svg"><path d="M136.385 10.754c1.075.87-.063 2.246-1.012 1.55-1.171-.744-3.828-1.092-4.16.553-.427 2.594 6.453 1.107 6.342 5.315-.111 4.017-5.931 4.112-8.114 2.309-.522-.427-.506-1.123-.221-1.55.411-.411.87-.554 1.408-.111 1.297.886 4.634 1.55 4.871-.696-.206-2.34-6.785-.933-6.295-5.425.364-3.068 4.998-3.622 7.181-1.945zm-10.376.617v5.725c0 5.915-9.538 5.915-9.538 0V11.37c0-1.423 2.072-1.486 2.072 0v5.726c0 3.116 5.394 3.306 5.394 0V11.37c0-1.407 2.072-1.518 2.072 0zM60.701 9.93c2.768.143 5.662 2.056 5.662 5.805 0 3.748-2.894 5.694-5.662 5.694-2.926.126-5.963-1.82-5.963-5.694 0-3.891 3.037-5.805 5.963-5.805zm13.935.396c4.017 0 4.84 5.377 1.486 6.722l2.104 2.562c.822 1.218-.823 2.388-1.772 1.186l-2.388-3.416h-2.483v2.863c0 1.375-2.103 1.423-2.103.031v-8.983c0-.554.427-.965.948-.965h4.208zm-32.773-.143c.459 0 .728.27.997.57l3.48 4.697 3.605-4.871c.522-.649 1.803-.396 1.803.696v8.904c0 .696-.442 1.092-.948 1.092-.57 0-1.013-.396-1.013-1.092v-5.852l-2.625 3.322c-.57.696-1.281.696-1.803 0l-2.357-3.322v5.852c0 .696-.57 1.092-1.139 1.092-.506 0-.949-.396-.949-1.092v-8.904c0-.823.696-1.092.95-1.092zm44.24 0c2.056 0 3.907 1.376 3.907 4.018 0 2.499-1.851 3.89-3.907 3.89h-2.641v2.088c0 .696-.443 1.092-1.013 1.092a1.069 1.069 0 01-1.075-1.092v-8.904c0-.522.411-1.092 1.075-1.092h3.654zm15.105.143c.554 0 .981.41.981.98v8.984c0 .553-.427.98-.981.98-.569 0-1.076-.427-1.076-.98v-3.464h-5.156v3.464c0 .553-.41.98-.965.98-.711 0-1.122-.427-1.122-.98v-8.984c0-.57.41-.98 1.123-.98.553 0 .964.41.964.98v3.448h5.156v-3.448c0-.57.507-.98 1.076-.98zm11.009 0c1.455 0 1.423 2.056 0 2.056h-4.555v2.372h3.985c1.408 0 1.408 2.072 0 2.072h-3.985V19.2h4.824c1.439 0 1.549 2.072 0 2.072h-5.947a.966.966 0 01-.981-.981v-8.984c0-.57.427-.98.981-.98h5.678zm-51.69 1.66c-1.771 0-3.7 1.25-3.7 3.749 0 2.483 1.929 3.748 3.7 3.748 1.819 0 3.764-1.265 3.764-3.748 0-2.5-1.945-3.749-3.764-3.749zm25.576.19h-2.641v3.939h2.64c1.06 0 1.899-.934 1.899-1.914 0-1.107-.839-2.025-1.898-2.025zm-11.467.063h-3.053v3.322h3.053c2.056 0 2.182-3.322 0-3.322zM28.368 18.63c-1.542 6.195-7.184 10.603-13.829 10.603-6.675 0-12.268-4.669-13.747-10.89 1.778 0 3.44.009 4.212.009.365 0 .435.006.456.004.581-.028 1.31-.22 1.794-1.398l1.845-4.828L13.2 22c.368.787.984.73 1.35.73h.035c.716 0 1.028-.25 1.3-.77l4.63-9.756 1.58 4.397.096.213c.334.733.575 1.456 1.401 1.55.17.02 2.15-.014 4.816-.014 0 0 0 .017-.04.28z" fill="#3DB5E6"/><path d="M28.82 14.981v.26h-4.262l-2.484-6.939c-.221-.516-.554-1.29-1.522-1.29-.593 0-1.129.49-1.433 1.298l-4.502 10.43-4.334-10.367c-.425-.92-.718-1.354-1.566-1.354-.577 0-1 .213-1.46 1.303l-2.572 7.021-4.274-.004a11.369 11.369 0 01-.005-.32C.407 7.213 6.735.905 14.54.905c7.804 0 14.28 6.27 14.28 14.075z" fill="#D8292F"/></svg>