<svg width="138" height="22" fill="none" xmlns="http://www.w3.org/2000/svg"><path d="M19.272 21.75v-5.56h-6.055A4.677 4.677 0 009.2 18.464L7.238 21.75h12.034z" fill="#63D2F9"/><path d="M0 .389v5.56h15.949L19.272.39H0z" fill="#4E5EE4"/><path d="M7.633 9.079L.018 21.749h6.488l9.107-15.158H12.03a5.125 5.125 0 00-4.397 2.488z" fill="#63B0F9"/><path d="M33.076 16.413c-3.262 0-5.663-2.371-5.663-5.554 0-3.152 2.416-5.554 5.679-5.554 3.262 0 5.678 2.433 5.678 5.554 0 3.152-2.431 5.554-5.694 5.554zm.016-1.943c2.062 0 3.54-1.53 3.54-3.61 0-2.051-1.478-3.612-3.54-3.612-2.078 0-3.555 1.561-3.555 3.611 0 2.081 1.477 3.611 3.555 3.611zm7.863 5.263V8.166h1.97v1.026h.108c.215-.337.954-1.224 2.431-1.224 2.263 0 3.817 1.683 3.817 4.192 0 2.509-1.54 4.253-3.755 4.253-1.431 0-2.2-.796-2.463-1.24h-.107v4.56h-2zm4.125-5.125c1.292 0 2.17-.995 2.17-2.418 0-1.468-.878-2.417-2.186-2.417-1.323 0-2.154 1.056-2.154 2.417 0 1.5.923 2.418 2.17 2.418zm9.925 1.805c-2.385 0-4.078-1.775-4.078-4.177 0-2.54 1.708-4.268 4.078-4.268 2.6 0 4.017 1.912 4.017 4.176v.628h-6.156c.062 1.224.908 2.05 2.2 2.05.986 0 1.74-.46 2.017-1.117h1.862c-.4 1.637-1.847 2.708-3.94 2.708zm-2.108-5.049h4.216c-.092-1.086-.938-1.805-2.108-1.805-1.123 0-1.985.795-2.108 1.805zm8.279 4.85V8.166h1.908v.98h.108c.323-.597 1.123-1.178 2.277-1.178 1.816 0 2.924 1.27 2.924 2.983v5.263h-2v-4.743c0-.979-.631-1.637-1.555-1.637-.97 0-1.662.765-1.662 1.775v4.605h-2zm9.202 0v-1.82L75.98 7.37v-.107h-5.402v-1.76h7.956V7.31l-5.601 7.022v.123h5.632v1.76h-8.187zm13.604.2c-2.386 0-4.079-1.776-4.079-4.178 0-2.54 1.709-4.268 4.079-4.268 2.6 0 4.016 1.912 4.016 4.176v.628h-6.156c.062 1.224.908 2.05 2.201 2.05.985 0 1.74-.46 2.016-1.117h1.862c-.4 1.637-1.847 2.708-3.94 2.708zm-2.109-5.05h4.217c-.092-1.086-.939-1.805-2.108-1.805-1.124 0-1.986.795-2.109 1.805zm8.28 8.37V8.165h1.969v1.026h.108c.215-.337.954-1.224 2.431-1.224 2.263 0 3.817 1.683 3.817 4.192 0 2.509-1.54 4.253-3.755 4.253-1.431 0-2.2-.796-2.463-1.24h-.107v4.56h-2zm4.123-5.126c1.293 0 2.17-.995 2.17-2.418 0-1.468-.877-2.417-2.185-2.417-1.323 0-2.154 1.056-2.154 2.417 0 1.5.923 2.418 2.17 2.418zm6.356 5.125V8.166h1.97v1.026h.107c.216-.337.954-1.224 2.432-1.224 2.262 0 3.816 1.683 3.816 4.192 0 2.509-1.539 4.253-3.755 4.253-1.431 0-2.2-.796-2.462-1.24h-.108v4.56h-2zm4.124-5.125c1.293 0 2.17-.995 2.17-2.418 0-1.468-.877-2.417-2.185-2.417-1.324 0-2.155 1.056-2.155 2.417 0 1.5.924 2.418 2.17 2.418zm9.926 1.805c-2.386 0-4.078-1.775-4.078-4.177 0-2.54 1.708-4.268 4.078-4.268 2.6 0 4.016 1.912 4.016 4.176v.628h-6.155c.061 1.224.908 2.05 2.2 2.05.985 0 1.739-.46 2.016-1.117h1.862c-.4 1.637-1.846 2.708-3.939 2.708zm-2.109-5.049h4.217c-.092-1.086-.939-1.805-2.108-1.805-1.124 0-1.986.795-2.109 1.805zm10.249 4.85c-1.416 0-2.216-.841-2.216-2.264V4.74h2.001v9.026c0 .46.23.704.646.704h.323v1.744h-.754zm3.678-9.119c-.724 0-1.232-.443-1.232-1.162 0-.689.508-1.148 1.232-1.148.723 0 1.231.46 1.231 1.148 0 .719-.508 1.162-1.231 1.162zm-1.001 9.12v-8.05h2.001v8.048h-2.001zm4.432 0v-8.05h1.908v.98h.108c.323-.597 1.123-1.178 2.277-1.178 1.816 0 2.924 1.27 2.924 2.983v5.263h-2V11.47c0-.979-.631-1.637-1.554-1.637-.97 0-1.663.765-1.663 1.775v4.605h-2z" fill="#282846"/></svg>