<svg width="138" height="22" fill="none" xmlns="http://www.w3.org/2000/svg"><path d="M130.325 9.792v2.86h2.009v2.837c.006.217-.004.45-.034.649l-.017.097a.87.87 0 01-.012.066l-.016.07-.01.036-.023.073c-.181.523-.725 1.185-1.948 1.185-1.302 0-1.825-.76-1.968-1.294l-.017-.07-.012-.066a4.866 4.866 0 01-.051-.746v-8.96c0-.283.016-.588.067-.837l.035-.151.008-.032.019-.067.011-.034.025-.071c.186-.495.677-1.155 1.873-1.155.922 0 1.419.376 1.685.765l.047.073.042.072.037.072.033.071.028.069.024.066.021.064.017.06.014.056.011.052c.006.025.01.053.015.08l.011.089.005.045.012.138.008.132.007.18.002.092v1.088h4.938l.001-.677.003-.243-.001-.187-.004-.22-.004-.117-.009-.183-.013-.188-.011-.126c-.334-3.31-2.822-4.584-5.849-4.805l-.203-.013-.204-.01a14.167 14.167 0 00-.308-.01l-.208-.003h-.104l-.208.001-.104.002-.206.006-.205.008-.203.012-.201.015a6.458 6.458 0 00-.2.018l-.198.021a8.238 8.238 0 00-.098.012l-.195.026a8.935 8.935 0 00-1.3.283l-.175.055c-1.914.627-3.304 1.962-3.589 4.382l-.03.269-.02.208-.019.218-.016.217a6.3 6.3 0 00-.014.386v8.349l.002.103.004.158.005.11.007.118.008.128.012.142.022.242.018.186c.277 3.076 2.609 4.444 5.461 4.767l.2.02c.335.033.676.05 1.021.056l.207.001.209-.001c.347-.005.69-.023 1.025-.055l.201-.021c2.862-.323 5.178-1.691 5.46-4.767l.023-.271.017-.23.015-.257.009-.222.008-.313V9.792h-6.935zM96.278 1.191H91.32v14.505c.008.252 0 .536-.043.745l-.015.063-.018.067a1.921 1.921 0 01-.022.07l-.026.074c-.187.499-.663 1.15-1.803 1.15-1.07 0-1.557-.588-1.762-1.074l-.03-.076a2.41 2.41 0 01-.013-.037l-.024-.072-.019-.07a1.987 1.987 0 01-.008-.032l-.014-.063c-.05-.209-.056-.493-.05-.745V1.19h-4.956v14.054l-.001.113.001.198.007.29.014.354.01.178.006.094.006.07c.243 2.6 1.768 3.953 3.923 4.52l.183.046c.401.095.822.165 1.26.212l.203.02.206.016.207.014c.105.006.21.01.316.014l.212.006.215.003h.108l.216-.001.107-.002.213-.006a14.7 14.7 0 00.316-.014l.207-.014.206-.016.204-.02c2.9-.308 5.075-1.629 5.375-4.778l.004-.032.008-.082.012-.165.01-.199.007-.144.006-.22.001-.144v-.135l-.003-.121a3.45 3.45 0 00-.003-.055V1.191zm-45.56 0l-2.474 15.326-2.472-15.326h-7.999l-.424 19.606h4.9l.133-18.15 3.371 18.15h4.972L54.1 2.648l.133 18.15h4.913l-.44-19.606h-7.989zm-29.615 0L17.47 20.797h5.296l2.737-18.15 2.671 18.15h5.26L29.818 1.191h-8.715zm92.505 15.786L108.99 1.19h-7.275v19.402h4.813l-.28-16.29 4.959 16.29h6.978V1.191h-4.845l.268 15.786zM69.088 6.294a2.63 2.63 0 01-.018-1.014 2.23 2.23 0 01.046-.172l.029-.086c.195-.544.653-1.054 1.702-1.054 1.133 0 1.797.706 1.797 1.765v1.2h4.833V5.565c0-3.084-2.018-4.27-4.175-4.686l-.177-.033-.178-.029-.178-.026L72.59.77l-.178-.02-.177-.017-.177-.015-.175-.012-.174-.01-.173-.007-.17-.005-.17-.004-.25-.002h-.11l-.218.004-.109.003-.216.008a13.57 13.57 0 00-.213.01l-.212.015c-2.949.226-5.25 1.437-5.71 4.278-.137.865-.17 1.633.046 2.612.341 1.61 1.683 2.756 3.223 3.717l.238.147.12.072.242.142.243.14.244.139.367.203.963.528.234.13.23.129.225.129.22.129c1.05.624 1.89 1.258 2.193 2.015.167.45.13 1.017.05 1.379l-.014.058c-.02.087-.046.174-.077.26l-.034.085c-.223.52-.71.963-1.78.963-1.22 0-1.954-.7-1.954-1.758l-.001-1.882h-5.203v1.496c0 3.51 2.227 5.035 5.017 5.488l.208.032c.139.02.279.037.42.052l.213.02c.25.021.502.036.756.043l.218.005.11.001h.327l.217-.006.107-.003.214-.01c.07-.003.141-.008.212-.013l.21-.016c.138-.012.276-.026.412-.042l.203-.027.2-.03c.067-.01.133-.021.199-.033l.195-.037c2.361-.473 4.118-1.756 4.471-4.223.049-.367.078-.707.095-1.018l.008-.202.003-.099.004-.19v-.18l-.004-.172-.005-.163-.008-.154a7.424 7.424 0 00-.005-.074l-.01-.14-.013-.13-.013-.123-.021-.165-.023-.144-.029-.16-.013-.064c-.34-1.708-1.836-2.914-3.496-3.906l-.239-.14-.24-.138-.24-.136-.362-.198-.48-.257-.818-.435-.336-.183-.11-.06-.215-.12-.21-.12c-1.03-.597-1.809-1.184-1.976-1.864zM5.322 6.246a2.488 2.488 0 01-.029-.987l.019-.085.021-.084c.164-.589.61-1.196 1.764-1.196 1.147 0 1.822.713 1.822 1.781V6.89h4.89V5.51c0-2.943-1.83-4.179-3.876-4.662l-.178-.04a9.496 9.496 0 00-.45-.085l-.18-.028-.18-.025-.18-.022-.18-.018a12.46 12.46 0 00-.18-.017L8.23.601 8.052.59 7.876.58 7.703.575 7.53.57 7.277.566h-.084c-.073 0-.146 0-.22.002l-.216.005c-.145.004-.288.01-.43.019l-.21.014-.105.008-.209.02-.205.022-.204.027c-.168.023-.334.05-.497.08l-.194.04-.192.041-.188.046a8.255 8.255 0 00-.186.05l-.182.054C2.057 1.577.69 2.8.345 4.924c-.143.879-.168 1.652.038 2.643.363 1.712 1.841 2.904 3.496 3.906l.243.145.122.072.246.141.37.209.493.272.727.398.353.196.343.196.222.13.109.066.213.131c.908.569 1.62 1.155 1.894 1.842.18.447.138 1.014.053 1.387l-.015.06a2.228 2.228 0 01-.078.257l-.034.084c-.229.53-.719.984-1.802.984-1.225 0-1.958-.713-1.958-1.785l-.007-1.887H.113v1.5c0 4.208 3.172 5.59 6.686 5.695l.22.005.22.001.219-.001c.109-.002.217-.005.324-.009l.214-.009c.106-.006.212-.012.317-.02l.209-.018.206-.02.205-.025.202-.028.2-.031.196-.035c2.445-.458 4.268-1.755 4.635-4.292.05-.363.082-.698.1-1.005l.01-.2.005-.193.003-.184v-.176l-.004-.166-.006-.159-.008-.15-.01-.14-.012-.132-.019-.182-.02-.161-.028-.184-.032-.178c-.34-1.687-1.79-2.887-3.42-3.874l-.24-.143-.122-.07-.242-.14-.244-.136-.244-.134-.243-.131-1.075-.57-.344-.185-.223-.122-.218-.12-.211-.121-.104-.06-.2-.12c-.889-.542-1.54-1.083-1.692-1.702z" fill="#1428A0"/></svg>