<svg width="226" height="127" fill="none" xmlns="http://www.w3.org/2000/svg"><path d="M78.456 56.272h4.073v16.467h-4.073V56.272zm5.698 10.273c0-4.079 2.538-6.524 6.345-6.524s6.345 2.445 6.345 6.524c0 4.079-2.45 6.55-6.345 6.55-3.896 0-6.345-2.382-6.345-6.55zm8.654 0c0-2.242-.875-3.56-2.271-3.56s-2.26 1.267-2.26 3.56.864 3.547 2.26 3.547 2.296-1.254 2.296-3.534l-.025-.013zm5.66 7.043h3.934a2.101 2.101 0 002.208 1.267c1.56 0 2.373-.836 2.373-2.078v-2.28h.012a3.9 3.9 0 01-3.807 2.217c-2.982 0-4.961-2.267-4.961-6.169 0-3.901 1.89-6.334 5.076-6.334a3.899 3.899 0 013.807 2.395h-.115v-2.293h4.036V72.65c0 2.977-2.64 4.839-6.523 4.839-3.528-.013-5.786-1.622-6.015-3.89l-.025-.012zm8.527-7.043c0-1.989-.913-3.243-2.36-3.243-1.447 0-2.335 1.267-2.335 3.243s.876 3.142 2.335 3.142 2.36-1.077 2.36-3.142zm5.647 0c0-4.079 2.538-6.524 6.345-6.524s6.345 2.445 6.345 6.524c0 4.079-2.462 6.55-6.345 6.55-3.883 0-6.319-2.382-6.319-6.55h-.026zm8.655 0c0-2.242-.889-3.56-2.272-3.56-1.383 0-2.259 1.267-2.259 3.56s.863 3.547 2.259 3.547 2.297-1.254 2.297-3.534l-.025-.013zm5.685-9.234a2.077 2.077 0 012.43-2.137 2.083 2.083 0 011.683 1.609 2.076 2.076 0 01-2.032 2.516 2.005 2.005 0 01-2.056-1.976l-.025-.012zm0 2.99h4.124v12.49h-4.061l-.063-12.49zm18.958 6.244c0 4.066-1.827 6.422-4.936 6.422a3.892 3.892 0 01-3.807-2.318h-.076v6.157h-4.074V60.338h4.048v2.23h.077a3.925 3.925 0 013.806-2.407c3.198-.026 5.038 2.318 5.038 6.397l-.076-.013zm-4.149 0c0-1.976-.927-3.255-2.361-3.255-1.434 0-2.335 1.266-2.347 3.255-.013 1.989.913 3.243 2.347 3.243s2.437-1.178 2.437-3.23l-.076-.013zm11.103-6.536c3.414 0 5.533 1.608 5.558 4.193h-3.718c0-.9-.748-1.457-1.865-1.457s-1.65.43-1.65 1.077c0 .646.47.848 1.409 1.038l2.614.532c2.538.532 3.553 1.546 3.553 3.433 0 2.534-2.348 4.256-5.837 4.256-3.49 0-5.762-1.672-5.926-4.218h3.946c.114.925.85 1.47 2.043 1.47s1.751-.38 1.751-1.052c0-.671-.38-.785-1.358-.988l-2.36-.494c-2.449-.52-3.731-1.799-3.731-3.711.077-2.483 2.208-4.067 5.647-4.067l-.076-.012zm19.542 12.768h-3.946v-2.343h-.076a3.573 3.573 0 01-3.642 2.597 4.36 4.36 0 01-3.295-1.348 4.34 4.34 0 01-1.185-3.352v-8.018h4.074v7.144c0 1.47.774 2.268 2.043 2.268a2.08 2.08 0 002.043-2.382v-7.03h4.061l-.077 12.464zm1.967-12.477h3.96v2.407h.088a3.626 3.626 0 013.566-2.635 3.254 3.254 0 012.252.652 3.24 3.24 0 011.225 1.996h.178a3.81 3.81 0 013.807-2.648 3.962 3.962 0 013.874 2.608c.19.523.266 1.08.225 1.636v8.474h-4.099v-7.436c0-1.266-.597-1.976-1.751-1.976a1.776 1.776 0 00-1.79 2.014v7.398h-3.883v-7.474c0-1.266-.622-1.938-1.738-1.938a1.819 1.819 0 00-1.371.609 1.803 1.803 0 00-.444 1.43v7.373h-4.073l-.026-12.49zM70.398 57.349a12.5 12.5 0 00-2.188-7.065 12.534 12.534 0 00-5.801-4.599 12.559 12.559 0 00-13.786 3.202H32.785v33.366h33.437V66.659a12.504 12.504 0 004.175-9.31zm-6.434 0a6.098 6.098 0 01-1.024 3.396 6.114 6.114 0 01-6.278 2.606 6.12 6.12 0 01-3.135-1.668 6.103 6.103 0 01-1.331-6.655 6.124 6.124 0 019.973-1.988 6.1 6.1 0 011.795 4.309zM59.79 75.83H39.22V55.309h6.27a12.077 12.077 0 00-.191 2.04 12.53 12.53 0 003.68 8.855 12.574 12.574 0 008.87 3.673c.65-.004 1.3-.059 1.941-.165v6.118z" fill="#1E1B1B"/></svg>