<svg width="226" height="127" fill="none" xmlns="http://www.w3.org/2000/svg"><path d="M81.25 56.032h3.807v15.365H81.25V56.03zm5.317 9.563c0-3.8 2.335-6.067 5.939-6.067s5.939 2.267 5.939 6.067c0 3.8-2.284 6.08-5.94 6.08-3.654 0-5.938-2.216-5.938-6.08zm8.058 0c0-2.09-.825-3.319-2.12-3.319-1.293 0-2.106 1.267-2.106 3.32 0 2.051.8 3.293 2.107 3.293 1.307 0 2.119-1.166 2.119-3.281v-.013zm5.254 6.55h3.654a1.963 1.963 0 002.056 1.14c1.447 0 2.208-.786 2.208-1.926V69.23h-.076a3.6 3.6 0 01-3.464 2.077c-2.78 0-4.62-2.115-4.62-5.75 0-3.636 1.752-5.929 4.67-5.929a3.648 3.648 0 013.503 2.23v-2.116h3.807V71.27c0 2.774-2.45 4.497-6.066 4.497-3.363 0-5.457-1.507-5.672-3.61v-.013zm7.931-6.562c0-1.85-.851-3.015-2.196-3.015-1.345 0-2.17 1.153-2.17 3.015s.813 2.913 2.17 2.913c1.358 0 2.196-1.026 2.196-2.9v-.013zm5.241 0c0-3.8 2.334-6.068 5.938-6.068 3.604 0 5.952 2.267 5.952 6.068 0 3.8-2.284 6.08-5.952 6.08-3.667 0-5.938-2.204-5.938-6.068v-.012zm8.058 0c0-2.09-.825-3.32-2.12-3.32-1.294 0-2.043 1.28-2.043 3.345 0 2.065.8 3.293 2.094 3.293 1.294 0 2.069-1.178 2.069-3.293v-.025zm5.278-8.602a1.94 1.94 0 012.275-1.959 1.94 1.94 0 011.476 2.612 1.945 1.945 0 01-1.771 1.235 1.857 1.857 0 01-1.831-1.12 1.856 1.856 0 01-.149-.742v-.026zm0 2.787h3.807v11.629h-3.807V59.768zm17.627 5.815c0 3.8-1.688 5.966-4.581 5.966a3.633 3.633 0 01-3.554-2.154h-.076v5.726h-3.807V59.743h3.807v2.077h.076a3.64 3.64 0 013.528-2.242c2.919.051 4.657 2.23 4.657 6.03l-.05-.025zm-3.807 0c0-1.85-.851-3.028-2.183-3.028-1.332 0-2.183 1.19-2.195 3.028-.013 1.836.863 3.014 2.195 3.014 1.332 0 2.183-1.152 2.183-2.989v-.025zm10.342-6.08c3.16 0 5.076 1.494 5.165 3.888h-3.465c0-.823-.685-1.343-1.738-1.343-1.054 0-1.523.406-1.523 1.001 0 .596.419.785 1.269.963l2.436.494c2.323.494 3.312 1.431 3.312 3.192 0 2.407-2.195 3.952-5.431 3.952s-5.355-1.545-5.52-3.914h3.667c.115.861.8 1.368 1.917 1.368 1.116 0 1.624-.367 1.624-.975s-.355-.735-1.269-.925l-2.195-.469c-2.272-.468-3.465-1.672-3.465-3.445.026-2.28 2.069-3.762 5.216-3.762v-.026zm18.159 11.869h-3.668v-2.166h-.076a3.315 3.315 0 01-3.375 2.42 4.052 4.052 0 01-4.04-2.67 4.031 4.031 0 01-.224-1.701v-7.512h3.807v6.638c0 1.38.711 2.115 1.891 2.115a1.938 1.938 0 001.861-1.375c.081-.264.104-.542.068-.816v-6.562h3.807l-.051 11.629zm1.84-11.629h3.68v2.242h.076a3.371 3.371 0 013.312-2.457 3.03 3.03 0 013.236 2.533h.076a3.583 3.583 0 013.579-2.533 3.7 3.7 0 012.785 1.129 3.69 3.69 0 011.021 2.823v7.917h-3.806v-6.904c0-1.266-.571-1.85-1.637-1.85a1.67 1.67 0 00-1.259.56 1.659 1.659 0 00-.404 1.316v6.878h-3.616v-6.954c0-1.166-.571-1.8-1.612-1.8a1.704 1.704 0 00-1.622 1.192 1.7 1.7 0 00-.066.709v6.853h-3.807l.064-11.654zm-99.945-3.015a16.777 16.777 0 00-2.537-4.079 17.165 17.165 0 00-5.616-4.486 17.195 17.195 0 00-20.025 3.415 17.134 17.134 0 00-4.777 13.206c.183 2.413.875 4.76 2.033 6.887a17.147 17.147 0 004.68 5.451c1.237.96 2.605 1.74 4.06 2.319a17.016 17.016 0 006.435 1.266 17.222 17.222 0 0012.138-5.04 17.161 17.161 0 005.03-12.124 16.935 16.935 0 00-1.42-6.815zm-15.76-6.878c1.981 0 3.94.432 5.736 1.266a5.574 5.574 0 01-1.37.393 7.276 7.276 0 00-4.1 2.051 7.253 7.253 0 00-2.055 4.093 3.797 3.797 0 01-1.122 2.289 3.81 3.81 0 01-2.317 1.068 7.276 7.276 0 00-4.1 2.05 7.253 7.253 0 00-2.055 4.093 3.683 3.683 0 01-1.002 2.204 13.659 13.659 0 01.81-13.174 13.695 13.695 0 014.975-4.666 13.725 13.725 0 016.613-1.693l-.013.026zM44.348 72.41c.153-.14.305-.266.457-.418a6.937 6.937 0 002.056-4.091 3.696 3.696 0 011.104-2.306 3.593 3.593 0 012.297-1.09 7.276 7.276 0 004.1-2.05 7.253 7.253 0 002.054-4.093 3.696 3.696 0 011.104-2.42 3.645 3.645 0 012.323-1.05 6.96 6.96 0 003.807-1.812c1.196.99 2.21 2.182 2.994 3.521a1.09 1.09 0 01-.165.178 3.644 3.644 0 01-2.296 1.114 7.252 7.252 0 00-4.105 2.047 7.229 7.229 0 00-2.05 4.097 3.797 3.797 0 01-1.1 2.305 3.81 3.81 0 01-2.313 1.09 7.309 7.309 0 00-4.117 2.047 7.292 7.292 0 00-2.076 4.097 3.974 3.974 0 01-.622 1.735 13.816 13.816 0 01-3.452-2.9zm10.495 4.89a13.78 13.78 0 01-3.807-.532 7.31 7.31 0 00.812-2.534 3.797 3.797 0 011.096-2.301 3.81 3.81 0 012.305-1.094 7.276 7.276 0 004.107-2.047 7.253 7.253 0 002.06-4.096 3.797 3.797 0 011.096-2.302 3.81 3.81 0 012.305-1.093 7.253 7.253 0 003.249-1.267 13.683 13.683 0 01-2.383 11.84 13.75 13.75 0 01-10.84 5.362v.064z" fill="#1E1B1B"/></svg>