<svg width="390" height="342" fill="none" xmlns="http://www.w3.org/2000/svg"><path d="M73 216.092c-3.414 0-6.795-.667-9.95-1.962a26.022 26.022 0 01-8.434-5.589 25.765 25.765 0 01-5.637-8.364A25.596 25.596 0 0147 190.311h26v25.781z" fill="#FF7F5C"/><g filter="url(#filter0_dddddd_1_884)"><rect x="59" y="50.661" width="53.217" height="159.047" rx="26.609" fill="#fff"/><rect x="59.303" y="50.963" width="52.613" height="158.443" rx="26.306" stroke="#E2E2E2" stroke-width=".605"/></g><path d="M79.082 184.444c1.022 0 1.865.322 2.527.965.663.633.994 1.456.994 2.469s-.331 1.841-.994 2.484c-.662.642-1.505.964-2.527.964-1.033 0-1.88-.322-2.542-.964-.653-.643-.98-1.471-.98-2.484 0-.789.205-1.471.614-2.046l3.287-4.923h1.55l-2.411 3.565c.214-.02.375-.03.482-.03zm-1.578 4.997c.409.39.935.585 1.578.585s1.164-.195 1.563-.585c.41-.399.614-.92.614-1.563 0-.643-.205-1.159-.614-1.549-.4-.389-.92-.584-1.563-.584-.653 0-1.179.195-1.578.584-.4.39-.6.906-.6 1.549 0 .643.2 1.164.6 1.563zm12.076-5.289c0 .789-.21 1.476-.629 2.06h.015l-3.302 4.924H84.13l2.425-3.58c-.214.02-.38.03-.496.03-1.033 0-1.88-.317-2.543-.95-.652-.643-.978-1.471-.978-2.484s.326-1.836.978-2.469c.663-.643 1.51-.964 2.543-.964 1.032 0 1.875.321 2.527.964.663.633.994 1.456.994 2.469zm-5.1-1.548c-.399.389-.598.905-.598 1.548s.2 1.164.599 1.564c.409.389.935.584 1.578.584.642 0 1.164-.195 1.563-.584.41-.4.614-.921.614-1.564s-.2-1.159-.6-1.548c-.399-.39-.925-.585-1.577-.585-.643 0-1.17.195-1.578.585zm-.427-103.947c.128-.267.311-.478.55-.634.239-.161.514-.242.825-.242.467 0 .859.164 1.176.492.317.328.475.728.475 1.2v2.518h-5.835v-2.334c0-.456.152-.842.458-1.159a1.513 1.513 0 011.134-.475c.517 0 .922.211 1.217.634zm-2.084 1v1.559h1.784v-1.559a.825.825 0 00-.259-.617.876.876 0 00-.633-.25.852.852 0 00-.626.258.803.803 0 00-.266.61zm4.385-.183a.881.881 0 00-.275-.659.933.933 0 00-.676-.267.908.908 0 00-.667.275.872.872 0 00-.275.65v1.743h1.893v-1.742zm-5.11-6.183h.733v1.725h5.102v.767h-5.102V77.5h-.734v-4.21zm5.943-3.176c0 .883-.291 1.614-.875 2.192-.584.572-1.3.859-2.15.859-.851 0-1.568-.287-2.152-.86-.583-.577-.875-1.308-.875-2.191a2.9 2.9 0 01.383-1.468c.256-.45.6-.8 1.034-1.05l.392.675a1.846 1.846 0 00-.767.75 2.1 2.1 0 00-.292 1.093c0 .672.217 1.222.65 1.65.434.422.976.634 1.626.634.645 0 1.184-.212 1.617-.634.434-.428.65-.978.65-1.65 0-.4-.094-.765-.283-1.093a1.913 1.913 0 00-.767-.75l.384-.675c.433.244.78.592 1.042 1.042.255.45.383.942.383 1.476zm6.701 117.122a.85.85 0 01-.628-.25.831.831 0 01-.25-.611c0-.237.084-.439.25-.606.17-.17.38-.256.628-.256a.854.854 0 01.878.862.83.83 0 01-.25.611.839.839 0 01-.628.25zm-.322-.533a.437.437 0 00.322.127.41.41 0 00.317-.133.448.448 0 00.128-.322.43.43 0 00-.128-.317.41.41 0 00-.317-.133.427.427 0 00-.322.133.44.44 0 00-.122.317c0 .129.04.239.122.328zm-.294 2.223l2.584-2.89.272.15-2.59 2.895-.266-.155zm2.923.366a.85.85 0 01-.628.25.85.85 0 01-.628-.25.83.83 0 01-.25-.611.83.83 0 01.25-.611.85.85 0 01.628-.25.85.85 0 01.628.25.83.83 0 01.25.611.83.83 0 01-.25.611zm-.95-.289a.434.434 0 00.322.128c.13 0 .235-.042.317-.128a.448.448 0 00.127-.322.432.432 0 00-.127-.317.41.41 0 00-.317-.133.427.427 0 00-.323.133.442.442 0 00-.122.317c0 .126.04.233.122.322z" fill="#0B1018"/><g filter="url(#filter1_dddddd_1_884)"><rect x="121.894" y="50.661" width="53.217" height="159.047" rx="26.609" fill="#fff"/><rect x="122.196" y="50.963" width="52.613" height="158.443" rx="26.306" stroke="#E2E2E2" stroke-width=".605"/></g><path d="M144.006 185.847c.497.253.886.594 1.169 1.023.282.428.423.915.423 1.461 0 .935-.326 1.67-.978 2.206-.653.526-1.496.789-2.528.789-1.023 0-1.86-.263-2.513-.789-.653-.536-.979-1.271-.979-2.206 0-.546.141-1.033.424-1.461.282-.429.672-.77 1.169-1.023-.838-.526-1.257-1.271-1.257-2.235 0-.926.307-1.637.921-2.133.623-.507 1.368-.76 2.235-.76.877 0 1.622.253 2.235.76.624.496.935 1.207.935 2.133 0 .964-.418 1.709-1.256 2.235zm-1.914-3.828c-.516 0-.95.136-1.3.409-.341.273-.512.677-.512 1.213 0 .516.176.92.526 1.213.351.282.779.423 1.286.423.506 0 .935-.141 1.286-.423.35-.293.526-.697.526-1.213 0-.536-.171-.94-.512-1.213-.341-.273-.774-.409-1.3-.409zm0 8.007c.653 0 1.174-.151 1.563-.453.4-.312.599-.755.599-1.33 0-.565-.199-.998-.599-1.3-.389-.312-.91-.468-1.563-.468-.643 0-1.164.156-1.563.468-.39.302-.585.735-.585 1.3 0 .575.195 1.018.585 1.33.399.302.92.453 1.563.453zm4.298 1.11v-1.11l3.608-3.682c.965-.964 1.447-1.792 1.447-2.484 0-.575-.175-1.023-.526-1.344-.351-.322-.779-.482-1.286-.482-.964 0-1.665.458-2.104 1.373l-1.139-.672c.321-.662.764-1.164 1.329-1.505a3.655 3.655 0 011.9-.511c.857 0 1.602.282 2.235.847.633.565.95 1.325.95 2.279 0 1.033-.609 2.158-1.827 3.375l-2.615 2.601h4.632v1.315h-6.604zm3.057-111.593v-2.518h.734v3.293h-5.836v-.775h5.102zm-5.102-6.436h.734v1.726h5.102v.767h-5.102v1.717h-.734v-4.21zm5.944-3.176c0 .884-.292 1.615-.875 2.193-.584.572-1.301.858-2.151.858-.85 0-1.567-.286-2.151-.858-.583-.578-.875-1.31-.875-2.193 0-.534.128-1.022.383-1.467.256-.45.601-.8 1.034-1.05l.392.675a1.848 1.848 0 00-.767.75 2.105 2.105 0 00-.292 1.092c0 .672.217 1.223.651 1.65.433.423.975.634 1.625.634.645 0 1.184-.211 1.617-.633.434-.428.651-.978.651-1.651 0-.4-.095-.764-.284-1.092a1.908 1.908 0 00-.767-.75l.384-.675c.433.244.78.591 1.042 1.041.255.45.383.942.383 1.476zm6.493 117.306a.85.85 0 01-.628-.25.83.83 0 01-.25-.611c0-.237.083-.439.25-.606.17-.17.38-.256.628-.256a.855.855 0 01.878.862.83.83 0 01-.25.611.838.838 0 01-.628.25zm-.322-.533a.436.436 0 00.322.127.41.41 0 00.317-.133.45.45 0 00.128-.322.431.431 0 00-.128-.317.41.41 0 00-.317-.133.44.44 0 00-.445.45c0 .129.041.239.123.328zm-.295 2.223l2.584-2.89.273.15-2.59 2.895-.267-.155zm2.923.366a.85.85 0 01-.628.25.85.85 0 01-.628-.25.832.832 0 01-.25-.611c0-.241.084-.445.25-.611a.85.85 0 01.628-.25.85.85 0 01.628.25c.167.166.25.37.25.611a.828.828 0 01-.25.611zm-.95-.289a.434.434 0 00.322.128c.13 0 .236-.042.317-.128a.45.45 0 00.128-.322.433.433 0 00-.128-.317.409.409 0 00-.317-.133.427.427 0 00-.322.133.44.44 0 00-.122.317c0 .126.04.233.122.322z" fill="#0B1018"/><g filter="url(#filter2_dddddd_1_884)"><path d="M184.787 77.27c0-14.696 11.913-26.61 26.608-26.61 14.696 0 26.609 11.914 26.609 26.61v105.829c0 14.696-11.913 26.609-26.609 26.609-14.695 0-26.608-11.913-26.608-26.609V77.269z" fill="#4F46BA"/></g><path d="M210.393 184.152c0 .789-.209 1.476-.628 2.06h.015l-3.302 4.924h-1.534l2.425-3.58c-.214.02-.38.03-.497.03-1.032 0-1.88-.317-2.542-.95-.653-.643-.979-1.471-.979-2.484s.326-1.836.979-2.469c.662-.643 1.51-.964 2.542-.964 1.033 0 1.875.321 2.528.964.662.633.993 1.456.993 2.469zm-5.099-1.548c-.399.389-.599.905-.599 1.548s.2 1.164.599 1.564c.409.389.935.584 1.578.584s1.164-.195 1.564-.584c.409-.4.613-.921.613-1.564s-.2-1.159-.599-1.548c-.399-.39-.925-.585-1.578-.585-.643 0-1.169.195-1.578.585zm12.961 1.548c0 .789-.209 1.476-.628 2.06h.014l-3.302 4.924h-1.534l2.426-3.58c-.215.02-.38.03-.497.03-1.033 0-1.88-.317-2.542-.95-.653-.643-.979-1.471-.979-2.484s.326-1.836.979-2.469c.662-.643 1.509-.964 2.542-.964 1.032 0 1.875.321 2.527.964.663.633.994 1.456.994 2.469zm-5.099-1.548c-.399.389-.599.905-.599 1.548s.2 1.164.599 1.564c.409.389.935.584 1.578.584s1.164-.195 1.563-.584c.409-.4.614-.921.614-1.564s-.2-1.159-.599-1.548c-.4-.39-.926-.585-1.578-.585-.643 0-1.169.195-1.578.585zm8.523 4.633a.85.85 0 01-.628-.25.83.83 0 01-.25-.611c0-.237.083-.439.25-.606.17-.17.38-.256.628-.256a.855.855 0 01.878.862.83.83 0 01-.25.611.838.838 0 01-.628.25zm-.322-.533a.436.436 0 00.322.127.41.41 0 00.317-.133.45.45 0 00.128-.322.431.431 0 00-.128-.317.41.41 0 00-.317-.133.44.44 0 00-.445.45c0 .129.041.239.123.328zm-.295 2.223l2.584-2.89.273.15-2.59 2.895-.267-.155zm2.923.366a.85.85 0 01-.628.25.85.85 0 01-.628-.25.832.832 0 01-.25-.611c0-.241.084-.445.25-.611a.85.85 0 01.628-.25.85.85 0 01.628.25c.167.166.25.37.25.611a.828.828 0 01-.25.611zm-.95-.289a.434.434 0 00.322.128c.13 0 .236-.042.317-.128a.45.45 0 00.128-.322.433.433 0 00-.128-.317.409.409 0 00-.317-.133.427.427 0 00-.322.133.444.444 0 00-.122.317c0 .126.041.233.122.322zM213.073 77.29v.884l-2.3 1.434 2.3 1.433v.876l-3.001-1.876-2.834 1.767v-.875l2.126-1.325-2.126-1.326v-.875l2.826 1.759 3.009-1.876zm0-4.225l-2.234 1.309v1.375h2.234v.776h-5.835V74.19c0-.5.178-.928.534-1.284.35-.355.775-.533 1.275-.533.378 0 .723.114 1.034.342.311.222.531.511.658.867l2.334-1.376v.859zm-5.11 2.684h2.176V74.19a.97.97 0 00-.317-.733 1.086 1.086 0 00-.775-.309c-.3 0-.556.103-.767.309a.973.973 0 00-.317.733v1.56zm-.725-6.438c0-.54.181-.987.542-1.342.356-.362.8-.542 1.334-.542.528 0 .972.18 1.334.542.361.355.541.803.541 1.342v1.342h2.084v.775h-5.835v-2.117zm3.026 0c0-.323-.108-.59-.325-.8a1.151 1.151 0 00-.825-.317c-.334 0-.609.105-.826.316a1.073 1.073 0 00-.325.8v1.343h2.301v-1.342z" fill="#fff"/><g filter="url(#filter3_dddddd_1_884)"><rect x="247.68" y="50.661" width="53.217" height="159.047" rx="26.609" fill="#fff"/><rect x="247.983" y="50.963" width="52.613" height="158.443" rx="26.306" stroke="#E2E2E2" stroke-width=".605"/></g><path d="M267.762 184.444c1.022 0 1.865.322 2.527.965.663.633.994 1.456.994 2.469s-.331 1.841-.994 2.484c-.662.642-1.505.964-2.527.964-1.033 0-1.88-.322-2.543-.964-.652-.643-.978-1.471-.978-2.484 0-.789.204-1.471.613-2.046l3.287-4.923h1.549l-2.411 3.565c.215-.02.375-.03.483-.03zm-1.578 4.997c.409.39.935.585 1.578.585.642 0 1.164-.195 1.563-.585.409-.399.614-.92.614-1.563 0-.643-.205-1.159-.614-1.549-.399-.389-.921-.584-1.563-.584-.653 0-1.179.195-1.578.584-.4.39-.599.906-.599 1.549 0 .643.199 1.164.599 1.563zm12.076-5.289c0 .789-.21 1.476-.629 2.06h.015l-3.302 4.924h-1.534l2.425-3.58a5.71 5.71 0 01-.496.03c-1.033 0-1.88-.317-2.543-.95-.652-.643-.978-1.471-.978-2.484s.326-1.836.978-2.469c.663-.643 1.51-.964 2.543-.964 1.032 0 1.875.321 2.527.964.663.633.994 1.456.994 2.469zm-5.099-1.548c-.4.389-.599.905-.599 1.548s.199 1.164.599 1.564c.409.389.935.584 1.578.584.642 0 1.164-.195 1.563-.584.409-.4.614-.921.614-1.564s-.2-1.159-.599-1.548c-.4-.39-.926-.585-1.578-.585-.643 0-1.169.195-1.578.585zm-.428-106.137c.128-.267.311-.478.55-.634a1.45 1.45 0 01.825-.242c.467 0 .859.164 1.176.492.316.328.475.728.475 1.2v2.518h-5.836v-2.334c0-.456.153-.842.459-1.159a1.512 1.512 0 011.134-.475c.516 0 .922.211 1.217.634zm-2.084 1v1.559h1.784v-1.559a.826.826 0 00-.259-.617.874.874 0 00-.633-.25.854.854 0 00-.626.259.805.805 0 00-.266.608zm4.385-.183a.88.88 0 00-.276-.659.931.931 0 00-.675-.267.91.91 0 00-.667.275.873.873 0 00-.275.65v1.743h1.893v-1.742zm-.009-3.387V71.38h.734v3.293h-5.836v-.776h5.102zm-5.102-6.435h.734v1.725h5.102v.767h-5.102v1.718h-.734v-4.21zm12.645 119.775a.85.85 0 01-.628-.25.834.834 0 01-.25-.611c0-.237.084-.439.25-.606a.857.857 0 01.628-.256.853.853 0 01.878.862.83.83 0 01-.25.611.838.838 0 01-.628.25zm-.322-.533a.437.437 0 00.322.127c.13 0 .236-.044.317-.133a.45.45 0 00.128-.322.431.431 0 00-.128-.317.409.409 0 00-.317-.133.427.427 0 00-.322.133.443.443 0 00-.122.317c0 .129.041.239.122.328zm-.294 2.223l2.584-2.89.272.15-2.59 2.895-.266-.155zm2.923.366a.85.85 0 01-.628.25.85.85 0 01-.628-.25.828.828 0 01-.25-.611c0-.241.083-.445.25-.611a.85.85 0 01.628-.25.85.85 0 01.628.25c.166.166.25.37.25.611a.832.832 0 01-.25.611zm-.951-.289a.436.436 0 00.323.128.418.418 0 00.317-.128.448.448 0 00.127-.322.432.432 0 00-.127-.317.412.412 0 00-.317-.133.43.43 0 00-.323.133.444.444 0 00-.122.317c0 .126.041.233.122.322z" fill="#0B1018"/><path d="M335.593 107.51h.692v1.45h1.45v.692h-1.45v1.442h-.692v-1.442h-1.443v-.692h1.443v-1.45zm3.267-7.027l-1.308.475v2.626l1.308.475v.825l-5.835-2.176v-.875l5.835-2.176v.826zm-2.034 2.834v-2.092l-2.876 1.05 2.876 1.042zm-3.801-6.624c0-.794.284-1.453.85-1.975.562-.529 1.251-.793 2.068-.793.817 0 1.509.264 2.076.793.561.522.841 1.18.841 1.975v2.276h-5.835v-2.276zm5.102 0c0-.594-.209-1.08-.625-1.459-.417-.378-.937-.566-1.559-.566-.623 0-1.142.188-1.559.566-.417.378-.625.865-.625 1.46v1.5h4.368v-1.5zm-5.102-5.983c0-.795.284-1.454.85-1.976.562-.528 1.251-.792 2.068-.792.817 0 1.509.264 2.076.792.561.522.841 1.18.841 1.976v2.275h-5.835V90.71zm5.102 0c0-.595-.209-1.081-.625-1.46-.417-.377-.937-.566-1.559-.566-.623 0-1.142.189-1.559.567-.417.378-.625.864-.625 1.459v1.5h4.368v-1.5zm-5.102-9.418v-.776h5.835v.625l-4.359 3.001h4.359v.776h-5.835v-.625l4.352-3.002h-4.352zm5.102-2.8v-2.709h.733v3.485h-5.835v-3.443h.734v2.668h1.792v-2.46h.725v2.46h1.851zm.733-4.903l-5.835 1.675v-.817l4.802-1.334-4.802-1.417v-.783l4.802-1.417-4.802-1.334v-.817l5.835 1.675v.9l-4.66 1.385 4.66 1.383v.9z" fill="#000"/><rect x="310.851" y="50.938" width="52.662" height="158.492" rx="26.331" stroke="#607D7C" stroke-width=".556" stroke-dasharray="4.45 4.45"/><path d="M331.965 191.477l-1.563-5.447h.762l1.245 4.482 1.323-4.482h.731l1.323 4.482 1.245-4.482h.762l-1.564 5.447h-.84l-1.292-4.35-1.291 4.35h-.841zm9.294-3.89h.677v3.89h-.677v-.669c-.337.513-.828.77-1.471.77a1.871 1.871 0 01-1.392-.591 2.024 2.024 0 01-.576-1.455c0-.571.192-1.053.576-1.448a1.86 1.86 0 011.392-.599c.643 0 1.134.257 1.471.771v-.669zm-1.385 3.337c.394 0 .723-.132.988-.396a1.37 1.37 0 00.397-.996c0-.395-.133-.724-.397-.988a1.328 1.328 0 00-.988-.405 1.32 1.32 0 00-.981.405 1.34 1.34 0 00-.396.988c0 .394.132.726.396.996.265.264.592.396.981.396zm3.087.553v-5.68h.677v5.68h-.677z" fill="#607D7C"/><path d="M60.213 18.412h2.573l2.81 7.44h.119l2.81-7.44h2.588v10.59h-1.982v-5.22l.119-1.761h-.119l-2.691 6.981h-1.553l-2.707-6.981h-.118l.118 1.76v5.221h-1.967v-10.59zm15.258 10.235l-3.18-7.188h2.204l1.952 4.689h.118l1.879-4.689h2.159l-4.659 10.738H73.86l1.612-3.55zm8.378-10.235h2.218l1.45 5.946.177 1.11h.119l.236-1.11 1.864-5.946h1.967l1.819 5.946.237 1.08h.118l.177-1.08 1.435-5.946h2.219l-2.737 10.59h-2.144l-1.805-6.39-.236-1.138h-.118l-.237 1.139-1.893 6.389h-2.056l-2.81-10.59zm16.969 10.827c-.799 0-1.454-.232-1.967-.695-.513-.474-.77-1.09-.77-1.85 0-.502.134-.946.4-1.33.266-.385.631-.68 1.095-.888.463-.207.976-.31 1.538-.31.779 0 1.444.113 1.996.34v-.326a1.23 1.23 0 00-.473-1.005c-.305-.257-.72-.385-1.242-.385-.355 0-.7.084-1.035.252-.326.157-.597.37-.814.635l-1.242-.976a3.65 3.65 0 011.375-1.094 4.233 4.233 0 011.805-.385c1.153 0 2.031.267 2.632.799.602.532.902 1.311.902 2.337v4.644h-1.908v-.77h-.118a2.55 2.55 0 01-.902.726c-.365.187-.789.28-1.272.28zm.458-1.509c.563 0 1.006-.178 1.332-.532.335-.365.502-.79.502-1.272a3.669 3.669 0 00-1.582-.355c-1.006 0-1.509.374-1.509 1.124 0 .305.109.557.326.754.217.187.527.281.931.281zm5.525-9.318h1.938v10.59h-1.938v-10.59zm3.842 0h1.938v10.59h-1.938v-10.59zm7.305 10.827c-.75 0-1.425-.173-2.026-.518a3.77 3.77 0 01-1.42-1.42c-.336-.611-.503-1.296-.503-2.056 0-.72.167-1.385.503-1.996a3.852 3.852 0 011.39-1.48 3.7 3.7 0 011.982-.547c.779 0 1.449.168 2.011.503a3.23 3.23 0 011.272 1.376 4.21 4.21 0 01.444 1.937c0 .227-.015.444-.044.651h-5.665c.099.601.335 1.06.71 1.375.384.306.843.459 1.375.459.444 0 .824-.094 1.139-.281.326-.197.582-.459.769-.784l1.568.77c-.769 1.34-1.937 2.01-3.505 2.01zm1.789-4.925a1.407 1.407 0 00-.266-.696 1.646 1.646 0 00-.636-.576 1.822 1.822 0 00-.946-.237c-.464 0-.863.138-1.198.414-.326.266-.562.631-.71 1.095h3.756zm6.423 4.806c-.374 0-.72-.054-1.035-.162a2.117 2.117 0 01-.769-.474c-.464-.443-.695-1.074-.695-1.893v-3.476h-1.317V21.46h1.317v-2.13h1.937v2.13h1.849v1.657h-1.849v3.12c0 .385.084.66.252.828.138.158.374.237.71.237.187 0 .34-.025.458-.074.128-.05.291-.133.488-.251v1.893a3.627 3.627 0 01-1.346.251zm5.912.119c-.917 0-1.661-.188-2.233-.562a3.006 3.006 0 01-1.183-1.465l1.73-.754c.158.355.38.626.666.814a1.95 1.95 0 001.02.266c.355 0 .651-.055.888-.163a.59.59 0 00.355-.562.584.584 0 00-.326-.547c-.217-.128-.542-.242-.976-.34l-.887-.193c-.612-.148-1.119-.414-1.524-.798a1.965 1.965 0 01-.606-1.464c0-.434.128-.824.385-1.169a2.58 2.58 0 011.064-.799 3.878 3.878 0 011.494-.28c1.558 0 2.598.547 3.121 1.641l-1.657.725c-.295-.533-.769-.799-1.419-.799-.336 0-.602.064-.799.192-.197.119-.296.271-.296.459 0 .355.335.621 1.006.799l1.109.266c.749.187 1.311.473 1.686.858.385.384.577.857.577 1.42 0 .483-.143.912-.429 1.286-.276.365-.661.65-1.154.858a4.05 4.05 0 01-1.612.31z" fill="#3B3B3B"/><rect x="343.229" y="12.604" width="21.771" height="21.588" rx="6.047" fill="#fff"/><path d="M350.486 24.597c.668 0 1.209-.537 1.209-1.2 0-.662-.541-1.199-1.209-1.199s-1.21.537-1.21 1.2c0 .662.542 1.199 1.21 1.199zm3.628 0c.668 0 1.21-.537 1.21-1.2 0-.662-.542-1.199-1.21-1.199-.668 0-1.209.537-1.209 1.2 0 .662.541 1.199 1.209 1.199zm3.629 0c.668 0 1.209-.537 1.209-1.2 0-.662-.541-1.199-1.209-1.199s-1.21.537-1.21 1.2c0 .662.542 1.199 1.21 1.199z" fill="#3246D3"/><path d="M385.778 75.833l-6.27-6.84 6.27-6.216-5.329-5.285 5.329-5.284-5.329-5.285 5.329-5.285-5.329-5.284 5.329-5.285-5.329-5.284 5.329-5.285-5.329-5.284 5.329-5.285-5.329-5.285" stroke="#E6EFFF" stroke-width="1.254" stroke-linecap="round" stroke-linejoin="round"/><path d="M380.762 1.543c1.737 0 3.135 1.394 3.135 3.103 0 1.71-1.398 3.103-3.135 3.103-1.736 0-3.135-1.394-3.135-3.103 0-1.709 1.399-3.103 3.135-3.103zm5.016 70.875c1.737 0 3.135 1.395 3.135 3.104s-1.398 3.103-3.135 3.103c-1.736 0-3.135-1.394-3.135-3.103 0-1.71 1.399-3.104 3.135-3.104z" fill="#002F86" stroke="#fff" stroke-width="1.254"/><defs><filter id="filter0_dddddd_1_884" x=".559" y="49.714" width="170.1" height="291.488" filterUnits="userSpaceOnUse" color-interpolation-filters="sRGB"><feFlood flood-opacity="0" result="BackgroundImageFix"/><feColorMatrix in="SourceAlpha" values="0 0 0 0 0 0 0 0 0 0 0 0 0 0 0 0 0 0 127 0" result="hardAlpha"/><feOffset dy="1.353"/><feGaussianBlur stdDeviation="1.15"/><feColorMatrix values="0 0 0 0 0 0 0 0 0 0 0 0 0 0 0 0 0 0 0.01 0"/><feBlend in2="BackgroundImageFix" result="effect1_dropShadow_1_884"/><feColorMatrix in="SourceAlpha" values="0 0 0 0 0 0 0 0 0 0 0 0 0 0 0 0 0 0 127 0" result="hardAlpha"/><feOffset dy="5.952"/><feGaussianBlur stdDeviation="2.381"/><feColorMatrix values="0 0 0 0 0 0 0 0 0 0 0 0 0 0 0 0 0 0 0.01 0"/><feBlend in2="effect1_dropShadow_1_884" result="effect2_dropShadow_1_884"/><feColorMatrix in="SourceAlpha" values="0 0 0 0 0 0 0 0 0 0 0 0 0 0 0 0 0 0 127 0" result="hardAlpha"/><feOffset dy="14.61"/><feGaussianBlur stdDeviation="4.748"/><feColorMatrix values="0 0 0 0 0 0 0 0 0 0 0 0 0 0 0 0 0 0 0.01 0"/><feBlend in2="effect2_dropShadow_1_884" result="effect3_dropShadow_1_884"/><feColorMatrix in="SourceAlpha" values="0 0 0 0 0 0 0 0 0 0 0 0 0 0 0 0 0 0 127 0" result="hardAlpha"/><feOffset dy="28.139"/><feGaussianBlur stdDeviation="9.307"/><feColorMatrix values="0 0 0 0 0 0 0 0 0 0 0 0 0 0 0 0 0 0 0.01 0"/><feBlend in2="effect3_dropShadow_1_884" result="effect4_dropShadow_1_884"/><feColorMatrix in="SourceAlpha" values="0 0 0 0 0 0 0 0 0 0 0 0 0 0 0 0 0 0 127 0" result="hardAlpha"/><feOffset dy="47.348"/><feGaussianBlur stdDeviation="17.113"/><feColorMatrix values="0 0 0 0 0 0 0 0 0 0 0 0 0 0 0 0 0 0 0.01 0"/><feBlend in2="effect4_dropShadow_1_884" result="effect5_dropShadow_1_884"/><feColorMatrix in="SourceAlpha" values="0 0 0 0 0 0 0 0 0 0 0 0 0 0 0 0 0 0 127 0" result="hardAlpha"/><feOffset dy="73.052"/><feGaussianBlur stdDeviation="29.221"/><feColorMatrix values="0 0 0 0 0 0 0 0 0 0 0 0 0 0 0 0 0 0 0.01 0"/><feBlend in2="effect5_dropShadow_1_884" result="effect6_dropShadow_1_884"/><feBlend in="SourceGraphic" in2="effect6_dropShadow_1_884" result="shape"/></filter><filter id="filter1_dddddd_1_884" x="63.452" y="49.714" width="170.1" height="291.488" filterUnits="userSpaceOnUse" color-interpolation-filters="sRGB"><feFlood flood-opacity="0" result="BackgroundImageFix"/><feColorMatrix in="SourceAlpha" values="0 0 0 0 0 0 0 0 0 0 0 0 0 0 0 0 0 0 127 0" result="hardAlpha"/><feOffset dy="1.353"/><feGaussianBlur stdDeviation="1.15"/><feColorMatrix values="0 0 0 0 0 0 0 0 0 0 0 0 0 0 0 0 0 0 0.01 0"/><feBlend in2="BackgroundImageFix" result="effect1_dropShadow_1_884"/><feColorMatrix in="SourceAlpha" values="0 0 0 0 0 0 0 0 0 0 0 0 0 0 0 0 0 0 127 0" result="hardAlpha"/><feOffset dy="5.952"/><feGaussianBlur stdDeviation="2.381"/><feColorMatrix values="0 0 0 0 0 0 0 0 0 0 0 0 0 0 0 0 0 0 0.01 0"/><feBlend in2="effect1_dropShadow_1_884" result="effect2_dropShadow_1_884"/><feColorMatrix in="SourceAlpha" values="0 0 0 0 0 0 0 0 0 0 0 0 0 0 0 0 0 0 127 0" result="hardAlpha"/><feOffset dy="14.61"/><feGaussianBlur stdDeviation="4.748"/><feColorMatrix values="0 0 0 0 0 0 0 0 0 0 0 0 0 0 0 0 0 0 0.01 0"/><feBlend in2="effect2_dropShadow_1_884" result="effect3_dropShadow_1_884"/><feColorMatrix in="SourceAlpha" values="0 0 0 0 0 0 0 0 0 0 0 0 0 0 0 0 0 0 127 0" result="hardAlpha"/><feOffset dy="28.139"/><feGaussianBlur stdDeviation="9.307"/><feColorMatrix values="0 0 0 0 0 0 0 0 0 0 0 0 0 0 0 0 0 0 0.01 0"/><feBlend in2="effect3_dropShadow_1_884" result="effect4_dropShadow_1_884"/><feColorMatrix in="SourceAlpha" values="0 0 0 0 0 0 0 0 0 0 0 0 0 0 0 0 0 0 127 0" result="hardAlpha"/><feOffset dy="47.348"/><feGaussianBlur stdDeviation="17.113"/><feColorMatrix values="0 0 0 0 0 0 0 0 0 0 0 0 0 0 0 0 0 0 0.01 0"/><feBlend in2="effect4_dropShadow_1_884" result="effect5_dropShadow_1_884"/><feColorMatrix in="SourceAlpha" values="0 0 0 0 0 0 0 0 0 0 0 0 0 0 0 0 0 0 127 0" result="hardAlpha"/><feOffset dy="73.052"/><feGaussianBlur stdDeviation="29.221"/><feColorMatrix values="0 0 0 0 0 0 0 0 0 0 0 0 0 0 0 0 0 0 0.01 0"/><feBlend in2="effect5_dropShadow_1_884" result="effect6_dropShadow_1_884"/><feBlend in="SourceGraphic" in2="effect6_dropShadow_1_884" result="shape"/></filter><filter id="filter2_dddddd_1_884" x="137.303" y="33.859" width="148.185" height="254.015" filterUnits="userSpaceOnUse" color-interpolation-filters="sRGB"><feFlood flood-opacity="0" result="BackgroundImageFix"/><feColorMatrix in="SourceAlpha" values="0 0 0 0 0 0 0 0 0 0 0 0 0 0 0 0 0 0 127 0" result="hardAlpha"/><feOffset dy=".568"/><feGaussianBlur stdDeviation=".934"/><feColorMatrix values="0 0 0 0 0.0784314 0 0 0 0 0.133333 0 0 0 0 0.956863 0 0 0 0.0337037 0"/><feBlend in2="BackgroundImageFix" result="effect1_dropShadow_1_884"/><feColorMatrix in="SourceAlpha" values="0 0 0 0 0 0 0 0 0 0 0 0 0 0 0 0 0 0 127 0" result="hardAlpha"/><feOffset dy="2.5"/><feGaussianBlur stdDeviation="1.935"/><feColorMatrix values="0 0 0 0 0.0784314 0 0 0 0 0.133333 0 0 0 0 0.956863 0 0 0 0.054963 0"/><feBlend in2="effect1_dropShadow_1_884" result="effect2_dropShadow_1_884"/><feColorMatrix in="SourceAlpha" values="0 0 0 0 0 0 0 0 0 0 0 0 0 0 0 0 0 0 127 0" result="hardAlpha"/><feOffset dy="6.136"/><feGaussianBlur stdDeviation="3.858"/><feColorMatrix values="0 0 0 0 0.0784314 0 0 0 0 0.133333 0 0 0 0 0.956863 0 0 0 0.07 0"/><feBlend in2="effect2_dropShadow_1_884" result="effect3_dropShadow_1_884"/><feColorMatrix in="SourceAlpha" values="0 0 0 0 0 0 0 0 0 0 0 0 0 0 0 0 0 0 127 0" result="hardAlpha"/><feOffset dy="11.818"/><feGaussianBlur stdDeviation="7.562"/><feColorMatrix values="0 0 0 0 0.0784314 0 0 0 0 0.133333 0 0 0 0 0.956863 0 0 0 0.085037 0"/><feBlend in2="effect3_dropShadow_1_884" result="effect4_dropShadow_1_884"/><feColorMatrix in="SourceAlpha" values="0 0 0 0 0 0 0 0 0 0 0 0 0 0 0 0 0 0 127 0" result="hardAlpha"/><feOffset dy="19.886"/><feGaussianBlur stdDeviation="13.904"/><feColorMatrix values="0 0 0 0 0.0784314 0 0 0 0 0.133333 0 0 0 0 0.956863 0 0 0 0.106296 0"/><feBlend in2="effect4_dropShadow_1_884" result="effect5_dropShadow_1_884"/><feColorMatrix in="SourceAlpha" values="0 0 0 0 0 0 0 0 0 0 0 0 0 0 0 0 0 0 127 0" result="hardAlpha"/><feOffset dy="30.682"/><feGaussianBlur stdDeviation="23.742"/><feColorMatrix values="0 0 0 0 0.0784314 0 0 0 0 0.133333 0 0 0 0 0.956863 0 0 0 0.14 0"/><feBlend in2="effect5_dropShadow_1_884" result="effect6_dropShadow_1_884"/><feBlend in="SourceGraphic" in2="effect6_dropShadow_1_884" result="shape"/></filter><filter id="filter3_dddddd_1_884" x="189.239" y="49.714" width="170.1" height="291.488" filterUnits="userSpaceOnUse" color-interpolation-filters="sRGB"><feFlood flood-opacity="0" result="BackgroundImageFix"/><feColorMatrix in="SourceAlpha" values="0 0 0 0 0 0 0 0 0 0 0 0 0 0 0 0 0 0 127 0" result="hardAlpha"/><feOffset dy="1.353"/><feGaussianBlur stdDeviation="1.15"/><feColorMatrix values="0 0 0 0 0 0 0 0 0 0 0 0 0 0 0 0 0 0 0.01 0"/><feBlend in2="BackgroundImageFix" result="effect1_dropShadow_1_884"/><feColorMatrix in="SourceAlpha" values="0 0 0 0 0 0 0 0 0 0 0 0 0 0 0 0 0 0 127 0" result="hardAlpha"/><feOffset dy="5.952"/><feGaussianBlur stdDeviation="2.381"/><feColorMatrix values="0 0 0 0 0 0 0 0 0 0 0 0 0 0 0 0 0 0 0.01 0"/><feBlend in2="effect1_dropShadow_1_884" result="effect2_dropShadow_1_884"/><feColorMatrix in="SourceAlpha" values="0 0 0 0 0 0 0 0 0 0 0 0 0 0 0 0 0 0 127 0" result="hardAlpha"/><feOffset dy="14.61"/><feGaussianBlur stdDeviation="4.748"/><feColorMatrix values="0 0 0 0 0 0 0 0 0 0 0 0 0 0 0 0 0 0 0.01 0"/><feBlend in2="effect2_dropShadow_1_884" result="effect3_dropShadow_1_884"/><feColorMatrix in="SourceAlpha" values="0 0 0 0 0 0 0 0 0 0 0 0 0 0 0 0 0 0 127 0" result="hardAlpha"/><feOffset dy="28.139"/><feGaussianBlur stdDeviation="9.307"/><feColorMatrix values="0 0 0 0 0 0 0 0 0 0 0 0 0 0 0 0 0 0 0.01 0"/><feBlend in2="effect3_dropShadow_1_884" result="effect4_dropShadow_1_884"/><feColorMatrix in="SourceAlpha" values="0 0 0 0 0 0 0 0 0 0 0 0 0 0 0 0 0 0 127 0" result="hardAlpha"/><feOffset dy="47.348"/><feGaussianBlur stdDeviation="17.113"/><feColorMatrix values="0 0 0 0 0 0 0 0 0 0 0 0 0 0 0 0 0 0 0.01 0"/><feBlend in2="effect4_dropShadow_1_884" result="effect5_dropShadow_1_884"/><feColorMatrix in="SourceAlpha" values="0 0 0 0 0 0 0 0 0 0 0 0 0 0 0 0 0 0 127 0" result="hardAlpha"/><feOffset dy="73.052"/><feGaussianBlur stdDeviation="29.221"/><feColorMatrix values="0 0 0 0 0 0 0 0 0 0 0 0 0 0 0 0 0 0 0.01 0"/><feBlend in2="effect5_dropShadow_1_884" result="effect6_dropShadow_1_884"/><feBlend in="SourceGraphic" in2="effect6_dropShadow_1_884" result="shape"/></filter></defs></svg>