<svg width="329" height="203" fill="none" xmlns="http://www.w3.org/2000/svg"><path d="M26 0A26 26 0 000 26h26V0z" fill="#FF7F5C"/><path fill="#fff" d="M11 18h318v185H11z"/><path d="M85.492 87.11v-1.63h-3.006v-1.244h3.006v-3.805h-1.85l-1.54-1.54v-2.784l1.54-1.54h1.85v-1.63h1.303v1.63h2.65v1.243h-2.65v3.436h1.674l1.54 1.54v3.14l-1.54 1.554h-1.674v1.629h-1.303zm-1.244-7.863h1.244V75.81h-1.229l-.814.815v1.821l.8.8zm2.547 4.99h1.052l.814-.814v-2.177l-.8-.814h-1.066v3.805zm6.385 1.244l-1.495-1.51.873-.874 1.2 1.184h3.406l.814-.814v-2.784l-.814-.814h-4.976v-5.302h6.664v1.244h-5.316v2.858h4.235l1.555 1.555v3.702l-1.555 1.555h-4.59zm7.49 1.629l.592-3.376h1.303l-1.14 3.376h-.755zm3.978-1.629v-1.747l5.834-5.731v-1.422l-.8-.829-3.021.015-1.199 1.214-.874-.888 1.496-1.526h4.205l1.54 1.555v2.414l-5.671 5.612v.09h5.834v1.243h-7.344zm10.629 0l-1.496-1.51.874-.874 1.199 1.184h3.406l.814-.814v-2.784l-.814-.814h-4.976v-5.302h6.664v1.244h-5.316v2.858h4.235l1.555 1.555v3.702l-1.555 1.555h-4.59zm9.71 0l-1.555-1.555v-7.804l1.555-1.555h4.739l1.554 1.555v7.804l-1.554 1.555h-4.739zm.607-1.2h3.524l.815-.814v-6.886l-.815-.814h-3.524l-.814.814.015 6.886.799.814zm7.626 1.2v-1.747h1.304v1.747h-1.304zm5 0l-1.495-1.51.873-.874 1.2 1.184h3.539l.799-.814v-2.991l-.903.903h-3.954l-1.54-1.555v-3.702l1.54-1.555h4.665l1.54 1.555v7.804l-1.54 1.555h-4.724zm.681-5.301h3.228l1.007-1.052v-2.547l-.799-.814h-3.436l-.814.814v2.784l.814.815zm9.166 5.301l-1.555-1.555v-7.804l1.555-1.555h4.738l1.555 1.555v7.804l-1.555 1.555h-4.738zm.607-1.2h3.524l.814-.814v-6.886l-.814-.814h-3.524l-.815.814.015 6.886.8.814z" fill="#000"/><path d="M83.228 58.016h-1.894v-.763h4.58v.763h-1.885V64h-.801v-5.984zm4.994 6.135a2.406 2.406 0 01-2.158-1.263 2.705 2.705 0 01-.31-1.29c0-.472.103-.902.31-1.292a2.407 2.407 0 012.158-1.263c.471 0 .895.114 1.272.34.377.226.67.534.877.923.213.39.32.82.32 1.291s-.107.902-.32 1.291c-.208.39-.5.697-.877.924-.377.226-.8.339-1.272.339zm0-.726c.295 0 .569-.072.82-.216a1.63 1.63 0 00.612-.641c.157-.277.236-.6.236-.97a1.93 1.93 0 00-.236-.971 1.562 1.562 0 00-.612-.632 1.615 1.615 0 00-1.65 0 1.626 1.626 0 00-.621.632c-.15.276-.226.6-.226.97s.075.694.226.97a1.7 1.7 0 00.622.642c.257.144.534.216.83.216zm5.108.65a1.56 1.56 0 01-.547-.094 1.25 1.25 0 01-.414-.254 1.16 1.16 0 01-.283-.415 1.551 1.551 0 01-.094-.575V59.92h-.839v-.726h.839v-1.357h.8v1.357h1.17v.726h-1.17v2.62c0 .263.051.458.152.584.119.138.292.207.518.207a.977.977 0 00.528-.16v.782a1.216 1.216 0 01-.292.094 1.933 1.933 0 01-.368.028zm3.048.076c-.352 0-.666-.07-.942-.207a1.564 1.564 0 01-.641-.566 1.55 1.55 0 01-.226-.83c0-.508.191-.904.574-1.187.384-.288.867-.433 1.452-.433.289 0 .556.031.8.094.252.063.444.135.575.217v-.292c0-.358-.125-.644-.376-.858-.252-.22-.57-.33-.952-.33-.27 0-.519.06-.745.18a1.326 1.326 0 00-.537.48l-.603-.452c.188-.29.446-.515.773-.679a2.47 2.47 0 011.102-.245c.654 0 1.166.173 1.536.519.377.339.566.804.566 1.394V64h-.764v-.688h-.037a1.72 1.72 0 01-.622.594 1.8 1.8 0 01-.933.245zm.075-.707c.27 0 .522-.07.754-.207a1.57 1.57 0 00.556-.556 1.47 1.47 0 00.207-.764c-.15-.1-.336-.182-.556-.245a2.523 2.523 0 00-.697-.094c-.44 0-.773.091-.999.273a.876.876 0 00-.33.707c0 .264.101.478.302.641.201.163.455.245.763.245zm3.395-6.191h.801V64h-.801v-6.747zm4.178 1.941h.763v.707h.038c.132-.239.342-.44.631-.603.289-.17.597-.255.924-.255.578 0 1.017.17 1.319.51.308.332.462.788.462 1.366V64h-.801v-2.959c0-.446-.107-.77-.321-.97-.213-.201-.505-.302-.876-.302-.258 0-.49.072-.697.217a1.475 1.475 0 00-.472.575 1.66 1.66 0 00-.169.734V64h-.801v-4.806zm7.421 4.957c-.459 0-.87-.11-1.234-.33a2.325 2.325 0 01-.858-.905 2.813 2.813 0 01-.301-1.31c0-.464.094-.892.282-1.281.195-.39.468-.7.82-.933a2.17 2.17 0 011.225-.349c.471 0 .88.107 1.225.32.346.208.609.497.792.868.188.37.282.794.282 1.272a.933.933 0 01-.028.245h-3.797c.018.364.106.672.263.923.157.252.355.44.594.566.245.125.499.188.763.188.616 0 1.09-.289 1.423-.867l.679.33c-.208.39-.49.697-.848.924-.352.226-.779.339-1.282.339zm1.385-3.063a1.558 1.558 0 00-.169-.603 1.283 1.283 0 00-.481-.509c-.214-.138-.484-.207-.81-.207a1.36 1.36 0 00-.961.367c-.258.24-.428.556-.509.952h2.93zm3.495 2.987a1.56 1.56 0 01-.547-.094 1.17 1.17 0 01-.697-.67 1.547 1.547 0 01-.094-.574V59.92h-.839v-.726h.839v-1.357h.801v1.357h1.168v.726h-1.168v2.62c0 .263.05.458.15.584.12.138.292.207.519.207a.974.974 0 00.527-.16v.782a1.206 1.206 0 01-.292.094 1.931 1.931 0 01-.367.028zm3.266-4.88h.82l1.149 3.797h.01l1.206-3.798h.829l1.216 3.788h.009l1.141-3.788h.81L125.228 64h-.81l-1.244-3.835L121.939 64h-.801l-1.545-4.806zm9.975 4.956a2.409 2.409 0 01-2.158-1.263 2.708 2.708 0 01-.311-1.29c0-.472.104-.902.311-1.292a2.41 2.41 0 012.158-1.263c.471 0 .895.114 1.272.34.377.226.669.534.877.923.213.39.32.82.32 1.291s-.107.902-.32 1.291c-.208.39-.5.697-.877.924a2.426 2.426 0 01-1.272.339zm0-.726c.296 0 .569-.072.82-.216.258-.151.462-.365.613-.641.157-.277.235-.6.235-.97 0-.372-.078-.695-.235-.971a1.562 1.562 0 00-.613-.632 1.616 1.616 0 00-1.649 0 1.622 1.622 0 00-.622.632c-.151.276-.226.6-.226.97s.075.694.226.97a1.7 1.7 0 00.622.642c.258.144.534.216.829.216zm3.307-4.23h.763v.762h.038c.113-.282.305-.502.575-.66a1.73 1.73 0 01.886-.235c.138 0 .254.01.348.029v.82a1.967 1.967 0 00-.433-.038c-.408 0-.741.135-.999.405-.251.27-.377.622-.377 1.055V64h-.801v-4.806zm5.419 4.88a1.56 1.56 0 01-.547-.094 1.17 1.17 0 01-.697-.67 1.546 1.546 0 01-.095-.574V59.92h-.838v-.726h.838v-1.357h.801v1.357h1.169v.726h-1.169v2.62c0 .263.051.458.151.584.12.138.292.207.518.207a.974.974 0 00.528-.16v.782a1.206 1.206 0 01-.292.094 1.931 1.931 0 01-.367.028zm1.649-6.822h.801v1.988l-.038.66h.038c.132-.245.339-.45.622-.613a1.88 1.88 0 01.942-.245c.584 0 1.03.173 1.338.519.308.339.462.791.462 1.357V64h-.801v-2.959c0-.433-.11-.754-.33-.961-.22-.207-.506-.311-.858-.311-.251 0-.483.075-.697.226a1.636 1.636 0 00-.678 1.329V64h-.801v-6.747z" fill="#6F767E"/><rect opacity=".1" x="34.067" y="55" width="33.654" height="33.654" rx="6.623" fill="#427A0A"/><path fill-rule="evenodd" clip-rule="evenodd" d="M44.443 79.593h1.237V73.41h-1.237v6.181zm1.855 1.236h-2.473a.618.618 0 01-.618-.618v-7.418c0-.342.276-.618.618-.618h2.473c.341 0 .618.276.618.618v7.418a.618.618 0 01-.618.618zm3.709-1.236h1.236V68.466h-1.236v11.127zm1.854 1.236h-2.472a.618.618 0 01-.619-.618V67.848c0-.341.277-.618.618-.618h2.473c.342 0 .618.276.618.618v12.363a.618.618 0 01-.618.618zm3.709-1.236h1.236V63.52H55.57v16.072zm1.854 1.236h-2.472a.618.618 0 01-.619-.618V62.903c0-.341.277-.618.619-.618h2.472c.342 0 .618.277.618.618v17.308a.618.618 0 01-.618.618z" fill="#427A0A"/><path d="M228.859 88.456v-1.629h-3.006v-1.244h3.006v-3.805h-1.851l-1.54-1.54v-2.784l1.54-1.54h1.851v-1.63h1.303v1.63h2.65v1.244h-2.65v3.435h1.673l1.54 1.54v3.14l-1.54 1.554h-1.673v1.629h-1.303zm-1.244-7.863h1.244v-3.435h-1.23l-.814.814v1.821l.8.8zm2.547 4.99h1.051l.814-.814v-2.177l-.799-.814h-1.066v3.805zm4.978 1.244v-1.244h1.673v-8.425h-1.495v-1.244h2.843v9.67h1.673v1.243h-4.694zm7.994 0l-1.555-1.555V77.47l1.555-1.555h4.738l1.555 1.555v7.803l-1.555 1.555h-4.738zm.607-1.2h3.524l.815-.814v-6.885l-.815-.815h-3.524l-.814.815.014 6.885.8.815zm7.034 2.829l.592-3.376h1.303l-1.14 3.376h-.755zm5.222-1.629l-1.496-1.51.874-.874 1.199 1.185h3.406l.814-.815V82.03l-.814-.814h-4.975v-5.301h6.663v1.244h-5.316v2.858h4.235l1.555 1.554v3.702l-1.555 1.555h-4.59zm9.769 0l-1.495-1.51.873-.874 1.2 1.185h3.539l.8-.815v-2.99l-.904.902h-3.953l-1.54-1.554v-3.702l1.54-1.555h4.664l1.54 1.555v7.803l-1.54 1.555h-4.724zm.682-5.301h3.228l1.007-1.051v-2.547l-.8-.815h-3.435l-.815.815v2.784l.815.814zm9.165 5.301l-1.555-1.555V77.47l1.555-1.555h4.872l1.495 1.51-.873.874-1.2-1.185h-3.687l-.814.815v3.05l.918-.903h4.087l1.54 1.555v3.642l-1.54 1.555h-4.798zm.607-1.2h3.583l.8-.814v-2.74l-.8-.814h-3.435l-.962 1.007v2.547l.814.815zm7.727 1.2V85.08h1.304v1.747h-1.304zm4.941 0l-1.555-1.555V82.06l1.066-1.066-.711-.74V77.47l1.555-1.555h4.191l1.555 1.555v2.783l-.711.74 1.066 1.067v3.213l-1.555 1.555h-4.901zm.725-6.352h3.451l.577-.622v-1.925l-.799-.83-2.992.015-.814.815v1.925l.577.622zm-.118 5.153h3.687l.815-.815v-2.325l-.815-.829h-3.672l-.829.83v2.324l.814.815zm9.414 1.2l-1.555-1.556V77.47l1.555-1.555h4.739l1.555 1.555v7.803l-1.555 1.555h-4.739zm.607-1.2h3.525l.814-.815v-6.885l-.814-.815h-3.525l-.814.815.015 6.885.799.815z" fill="#000"/><path d="M226.594 59.362H224.7V58.6h4.58v.764h-1.885v5.983h-.801v-5.984zm4.995 6.135c-.472 0-.896-.113-1.273-.34a2.4 2.4 0 01-.885-.923 2.697 2.697 0 01-.311-1.29 2.7 2.7 0 01.311-1.292 2.4 2.4 0 012.158-1.262c.471 0 .895.113 1.272.339.377.226.669.534.876.923.214.39.32.82.32 1.291s-.106.902-.32 1.291c-.207.39-.499.698-.876.924a2.426 2.426 0 01-1.272.339zm0-.726c.295 0 .568-.072.819-.216.258-.151.462-.365.613-.641.157-.277.235-.6.235-.97 0-.371-.078-.695-.235-.971a1.562 1.562 0 00-.613-.632 1.617 1.617 0 00-1.649 0 1.629 1.629 0 00-.622.632c-.15.276-.226.6-.226.97s.076.694.226.97c.157.277.365.49.622.642.258.144.534.216.83.216zm5.107.65a1.56 1.56 0 01-.546-.094 1.252 1.252 0 01-.415-.254 1.156 1.156 0 01-.282-.415 1.547 1.547 0 01-.095-.575v-2.817h-.838v-.726h.838v-1.357h.801v1.357h1.169v.726h-1.169v2.62c0 .263.051.458.151.584.119.138.292.207.518.207a.977.977 0 00.528-.16v.782a1.22 1.22 0 01-.292.094 1.936 1.936 0 01-.368.029zm3.048.076c-.351 0-.666-.07-.942-.207a1.57 1.57 0 01-.641-.566 1.548 1.548 0 01-.226-.829c0-.509.192-.905.575-1.187.383-.29.867-.434 1.451-.434.289 0 .556.032.801.094.251.063.443.136.575.217v-.292c0-.358-.126-.644-.377-.857-.251-.22-.569-.33-.952-.33-.27 0-.518.06-.744.179a1.328 1.328 0 00-.537.48l-.603-.452c.188-.289.446-.515.772-.678a2.472 2.472 0 011.103-.245c.653 0 1.165.172 1.536.518.377.34.565.804.565 1.395v3.043h-.763v-.688h-.038c-.138.233-.345.43-.622.594a1.797 1.797 0 01-.933.245zm.076-.707c.27 0 .521-.069.754-.207a1.58 1.58 0 00.556-.556 1.47 1.47 0 00.207-.763 1.976 1.976 0 00-.556-.245 2.522 2.522 0 00-.697-.095c-.44 0-.773.092-.999.274a.875.875 0 00-.33.706c0 .264.1.478.301.641.201.164.456.245.764.245zm3.394-6.19h.801v6.746h-.801V58.6zm6.317 6.897c-.458 0-.87-.11-1.234-.33a2.34 2.34 0 01-.858-.904 2.813 2.813 0 01-.301-1.31c0-.465.094-.892.283-1.282.194-.39.468-.7.819-.933a2.174 2.174 0 011.225-.348c.472 0 .88.106 1.225.32.346.207.61.496.792.867.188.37.283.795.283 1.272a.93.93 0 01-.029.245h-3.797c.019.364.107.672.264.923.157.252.355.44.593.566.245.126.5.188.764.188.615 0 1.09-.289 1.423-.867l.678.33c-.207.39-.49.698-.848.924-.352.226-.779.339-1.282.339zm1.386-3.063a1.578 1.578 0 00-.17-.603 1.283 1.283 0 00-.481-.509c-.213-.138-.483-.207-.81-.207-.377 0-.697.123-.961.368-.258.238-.427.556-.509.951h2.931zm3.367 3.063c-.352 0-.666-.07-.942-.207a1.564 1.564 0 01-.641-.566 1.548 1.548 0 01-.226-.829c0-.509.191-.905.575-1.187.383-.29.867-.434 1.451-.434.289 0 .556.032.801.094.251.063.443.136.575.217v-.292c0-.358-.126-.644-.377-.857-.252-.22-.569-.33-.952-.33-.27 0-.518.06-.745.179a1.328 1.328 0 00-.537.48l-.603-.452c.189-.289.446-.515.773-.678.333-.164.7-.245 1.102-.245.654 0 1.166.172 1.536.518.377.34.566.804.566 1.395v3.043h-.763v-.688h-.038c-.138.233-.346.43-.622.594a1.797 1.797 0 01-.933.245zm.075-.707c.271 0 .522-.069.754-.207.233-.138.418-.324.556-.556a1.47 1.47 0 00.208-.763 1.99 1.99 0 00-.556-.245 2.53 2.53 0 00-.698-.095c-.439 0-.772.092-.999.274a.877.877 0 00-.329.706c0 .264.1.478.301.641.201.164.456.245.763.245zm3.395-4.25h.763v.773h.038c.094-.264.277-.48.547-.65.27-.176.552-.264.848-.264.22 0 .408.031.565.094v.867c-.201-.1-.427-.15-.678-.15-.233 0-.446.065-.641.197a1.448 1.448 0 00-.471.537c-.113.22-.17.459-.17.717v2.685h-.801V60.54zm3.534 0h.763v.707h.038c.132-.239.342-.44.631-.603.289-.17.597-.254.924-.254.578 0 1.017.17 1.319.508.308.333.462.789.462 1.367v3.081h-.801v-2.959c0-.446-.107-.77-.321-.97-.213-.201-.505-.302-.876-.302-.258 0-.49.072-.697.217a1.475 1.475 0 00-.472.575 1.66 1.66 0 00-.169.735v2.704h-.801V60.54zm5.753-.885a.553.553 0 01-.405-.17.554.554 0 01-.17-.405c0-.157.057-.29.17-.396a.552.552 0 01.405-.17c.157 0 .292.057.405.17.113.107.17.239.17.396a.554.554 0 01-.17.405.533.533 0 01-.405.17zm-.396.885h.792v4.806h-.792V60.54zm2.051 0h.763v.707h.038c.132-.239.342-.44.631-.603.289-.17.597-.254.924-.254.577 0 1.017.17 1.319.508.308.333.462.789.462 1.367v3.081h-.801v-2.959c0-.446-.107-.77-.321-.97-.213-.201-.506-.302-.876-.302-.258 0-.49.072-.698.217a1.464 1.464 0 00-.471.575 1.66 1.66 0 00-.169.735v2.704h-.801V60.54zm7.347 6.992c-.566 0-1.034-.132-1.404-.395-.365-.264-.61-.582-.735-.952l.725-.311c.107.276.283.5.528.669.251.176.546.264.886.264.496 0 .879-.145 1.149-.434.277-.289.415-.697.415-1.225v-.537h-.038c-.157.245-.38.446-.669.603a2.027 2.027 0 01-.97.226 2.13 2.13 0 01-1.141-.32 2.288 2.288 0 01-.81-.895 2.778 2.778 0 01-.302-1.31c0-.484.101-.917.302-1.3.201-.39.471-.691.81-.905a2.13 2.13 0 011.141-.32c.364 0 .687.078.97.235.289.15.512.352.669.603h.038v-.688h.763v4.618c0 .772-.213 1.36-.641 1.762-.427.408-.989.612-1.686.612zm0-2.817c.289 0 .549-.072.782-.217.239-.144.427-.352.565-.622.145-.27.217-.59.217-.961 0-.377-.072-.7-.217-.97a1.444 1.444 0 00-.565-.613 1.452 1.452 0 00-.782-.217c-.289 0-.553.072-.792.217-.239.144-.43.352-.575.622-.138.27-.207.59-.207.961 0 .37.069.694.207.97.145.27.336.478.575.622.239.139.503.208.792.208zm5.143.782c-.515 0-.946-.12-1.291-.358a2.001 2.001 0 01-.735-.933l.716-.32c.119.289.295.512.528.669.238.157.499.235.782.235.301 0 .559-.06.773-.179.213-.126.32-.301.32-.528a.559.559 0 00-.255-.48c-.169-.126-.436-.233-.8-.32l-.585-.151a2.098 2.098 0 01-.942-.48 1.139 1.139 0 01-.368-.877c0-.277.082-.518.245-.726.17-.213.393-.377.67-.49.276-.113.574-.17.895-.17.421 0 .794.092 1.121.274.333.182.569.437.707.763l-.698.32c-.213-.427-.593-.64-1.14-.64-.264 0-.496.063-.697.188-.195.12-.292.274-.292.462 0 .176.069.32.207.433.138.107.346.195.622.264l.697.18c.472.119.827.298 1.065.536.239.233.358.519.358.858 0 .295-.084.556-.254.782-.17.22-.399.39-.688.509-.289.12-.609.179-.961.179z" fill="#6F767E"/><rect opacity=".1" x="177.434" y="56.346" width="33.654" height="33.654" rx="6.623" fill="#FA5F1C"/><path fill-rule="evenodd" clip-rule="evenodd" d="M200.056 72.393l-1.966-1.782-2.639 6.993 4.605-5.21zm-4.696 1.95l1.888-5.002.001-.003.48-1.271-2.369-.917v7.194zm-1.088 2.887h-3.634l3.171 1.227.463-1.227zm-.674 2.47l-3.391-1.311 2.527 2.29.864-.978zm-5.656-3.707h6.182V64.867h-6.182v11.126zm13.445-3.239l-8.141 9.212a.616.616 0 01-.879.049l-5.458-4.947-.006-.007-.01-.008c-.036-.036-.06-.08-.087-.124-.013-.022-.033-.041-.044-.064-.001-.003-.003-.004-.003-.007-.014-.03-.015-.065-.023-.098l-.003-.012c-.008-.038-.024-.074-.025-.113v-.015l-.002-.008V64.249c0-.342.277-.618.618-.618h7.418c.342 0 .618.276.618.618v1.575l3.387 1.31a.618.618 0 01.355.795l-.543 1.439 2.779 2.52a.619.619 0 01.049.866zm-10.972-3.25c0 .17.138.308.309.308h.618a1.546 1.546 0 01.309 3.06v.649a.617.617 0 11-1.236 0v-.618h-.619a.618.618 0 110-1.236h1.546a.31.31 0 000-.619h-.618a1.547 1.547 0 01-1.546-1.545c0-.747.533-1.37 1.237-1.514v-.65a.618.618 0 111.236 0v.619h.618a.617.617 0 110 1.236h-1.545a.31.31 0 00-.309.31z" fill="#FA5F1C"/><path d="M86.816 163.747v-1.629H83.81v-1.244h3.006v-3.806h-1.85l-1.54-1.54v-2.784l1.54-1.54h1.85v-1.629h1.303v1.629h2.651v1.244h-2.65v3.436h1.673l1.54 1.54v3.139l-1.54 1.555h-1.674v1.629h-1.303zm-1.244-7.863h1.244v-3.436h-1.229l-.814.815v1.821l.8.8zm2.547 4.99h1.052l.814-.815v-2.176l-.8-.815H88.12v3.806zm6.697 1.244l-1.555-1.555v-7.804l1.555-1.555h4.738l1.555 1.555v7.804l-1.555 1.555h-4.738zm.607-1.2h3.524l.814-.814v-6.886l-.814-.814h-3.524l-.815.814.015 6.886.8.814zm7.626 1.2v-1.748h1.303v1.748h-1.303zm4.94 0l-1.554-1.555v-7.804l1.554-1.555h4.739l1.555 1.555v7.804l-1.555 1.555h-4.739zm.608-1.2h3.524l.814-.814v-6.886l-.814-.814h-3.524l-.815.814.015 6.886.8.814zm9.255 1.2l-1.555-1.555v-7.804l1.555-1.555h4.738l1.555 1.555v7.804l-1.555 1.555h-4.738zm.607-1.2h3.524l.815-.814v-6.886l-.815-.814h-3.524l-.815.814.015 6.886.8.814z" fill="#000"/><path d="M83.007 133.434h.8v1.988l-.037.66h.038c.132-.245.339-.45.622-.613.289-.163.603-.245.942-.245.584 0 1.03.173 1.338.518.308.34.462.792.462 1.357v3.082h-.801v-2.959c0-.434-.11-.754-.33-.961-.22-.208-.506-.311-.858-.311-.25 0-.483.075-.697.226a1.645 1.645 0 00-.678 1.328v2.677h-.801v-6.747zm6.809 6.897c-.352 0-.666-.069-.943-.207a1.567 1.567 0 01-.64-.565 1.552 1.552 0 01-.227-.83c0-.508.192-.904.575-1.187.383-.289.867-.433 1.451-.433.29 0 .556.031.801.094.252.063.443.135.575.217v-.292c0-.359-.125-.644-.377-.858-.251-.22-.568-.33-.952-.33-.27 0-.518.06-.744.179a1.328 1.328 0 00-.537.481l-.603-.452c.188-.289.446-.516.773-.679.332-.163.7-.245 1.102-.245.653 0 1.165.173 1.536.518.377.34.566.804.566 1.395v3.044h-.764v-.688h-.037c-.139.232-.346.43-.622.593a1.793 1.793 0 01-.933.245zm.075-.706c.27 0 .521-.069.754-.208.232-.138.418-.323.556-.556.138-.232.207-.486.207-.763-.15-.1-.336-.182-.556-.245a2.52 2.52 0 00-.697-.094c-.44 0-.773.091-.999.273a.876.876 0 00-.33.707c0 .264.1.477.302.641.2.163.455.245.763.245zm3.395-4.25h.763v.773h.038a1.27 1.27 0 01.546-.651 1.53 1.53 0 01.848-.264c.22 0 .409.032.566.095v.867a1.49 1.49 0 00-.679-.151c-.232 0-.446.066-.64.198a1.455 1.455 0 00-.472.537c-.113.22-.17.458-.17.716v2.686h-.8v-4.806zm3.162 0h.858l1.489 3.863h.018l1.508-3.863h.839l-1.96 4.806h-.81l-1.942-4.806zm7.369 4.956c-.458 0-.87-.11-1.234-.329a2.343 2.343 0 01-.858-.905 2.812 2.812 0 01-.301-1.31c0-.465.094-.892.283-1.281.194-.39.468-.701.819-.933a2.17 2.17 0 011.225-.349c.472 0 .88.107 1.225.32.346.208.61.497.792.867.188.371.283.795.283 1.273 0 .094-.01.175-.029.245h-3.797c.019.364.107.672.264.923.157.251.355.44.593.565.245.126.5.189.764.189.615 0 1.09-.289 1.423-.867l.678.33c-.207.389-.49.697-.848.923-.352.226-.779.339-1.282.339zm1.386-3.062a1.577 1.577 0 00-.17-.603 1.282 1.282 0 00-.481-.509c-.213-.138-.483-.207-.81-.207a1.36 1.36 0 00-.961.367c-.258.239-.427.556-.509.952h2.931zm3.508 3.062c-.515 0-.945-.119-1.291-.358a2.014 2.014 0 01-.735-.933l.717-.32c.119.289.295.512.527.669.239.157.5.236.782.236.302 0 .56-.06.773-.179.214-.126.321-.302.321-.528a.56.56 0 00-.255-.481c-.17-.125-.437-.232-.801-.32l-.584-.151a2.097 2.097 0 01-.942-.48 1.142 1.142 0 01-.368-.877c0-.276.082-.518.245-.725.17-.214.393-.377.669-.49.277-.113.575-.17.895-.17.421 0 .795.091 1.122.273.333.183.568.437.706.764l-.697.32c-.214-.427-.594-.641-1.14-.641-.264 0-.496.063-.697.189-.195.119-.293.273-.293.461 0 .176.07.321.208.434.138.107.345.195.622.264l.697.179c.471.119.826.298 1.065.537.239.232.358.518.358.857 0 .296-.085.556-.255.783a1.63 1.63 0 01-.687.508c-.289.12-.61.179-.962.179zm4.578-.075a1.56 1.56 0 01-.547-.094 1.248 1.248 0 01-.414-.255 1.155 1.155 0 01-.283-.414 1.549 1.549 0 01-.094-.575V136.1h-.839v-.725h.839v-1.357h.801v1.357h1.168v.725h-1.168v2.62c0 .264.05.459.151.584.119.139.292.208.518.208a.979.979 0 00.528-.161v.783a1.236 1.236 0 01-.293.094 1.92 1.92 0 01-.367.028zm3.531.075c-.458 0-.87-.11-1.234-.329a2.343 2.343 0 01-.858-.905 2.812 2.812 0 01-.301-1.31c0-.465.094-.892.283-1.281.194-.39.468-.701.819-.933.352-.233.76-.349 1.225-.349.472 0 .88.107 1.225.32.346.208.61.497.792.867.188.371.283.795.283 1.273 0 .094-.01.175-.029.245h-3.797c.019.364.107.672.264.923.157.251.355.44.593.565.245.126.5.189.764.189.615 0 1.09-.289 1.422-.867l.679.33c-.207.389-.49.697-.848.923-.352.226-.779.339-1.282.339zm1.386-3.062a1.577 1.577 0 00-.17-.603 1.282 1.282 0 00-.481-.509c-.213-.138-.483-.207-.81-.207a1.36 1.36 0 00-.961.367c-.258.239-.427.556-.509.952h2.931zm3.866 3.062c-.427 0-.816-.11-1.168-.329a2.332 2.332 0 01-.82-.905 2.832 2.832 0 01-.301-1.319c0-.484.1-.921.301-1.31a2.31 2.31 0 01.82-.914c.352-.22.741-.33 1.168-.33.371 0 .701.085.99.254.289.164.509.368.659.613h.038l-.038-.669v-1.988h.801v6.747h-.763v-.707h-.038c-.15.239-.37.443-.659.612a1.97 1.97 0 01-.99.245zm.095-.725c.282 0 .543-.076.782-.226.245-.151.44-.365.584-.641.151-.277.226-.597.226-.961a1.97 1.97 0 00-.226-.961 1.6 1.6 0 00-.584-.641 1.463 1.463 0 00-1.564 0 1.66 1.66 0 00-.594.65 2.019 2.019 0 00-.217.952c0 .358.072.678.217.961.151.276.349.49.594.641.245.15.505.226.782.226zm5.729-6.172h.801v6.747h-.801v-6.747zm4.156 6.897a2.41 2.41 0 01-2.158-1.262 2.71 2.71 0 01-.311-1.291c0-.471.104-.902.311-1.291a2.406 2.406 0 012.158-1.263c.471 0 .895.113 1.272.339.377.226.669.534.876.924.214.389.321.82.321 1.291s-.107.901-.321 1.291a2.336 2.336 0 01-.876.923 2.426 2.426 0 01-1.272.339zm0-.725c.295 0 .569-.072.82-.217.257-.151.462-.364.612-.641.157-.276.236-.6.236-.97 0-.371-.079-.694-.236-.971a1.558 1.558 0 00-.612-.631 1.563 1.563 0 00-.82-.226 1.61 1.61 0 00-.829.226 1.62 1.62 0 00-.622.631c-.151.277-.226.6-.226.971 0 .37.075.694.226.97.157.277.364.49.622.641.257.145.534.217.829.217zm5.03.725c-.515 0-.945-.119-1.291-.358a2.014 2.014 0 01-.735-.933l.716-.32c.12.289.296.512.528.669.239.157.5.236.782.236.302 0 .559-.06.773-.179.214-.126.32-.302.32-.528a.56.56 0 00-.254-.481c-.17-.125-.437-.232-.801-.32l-.584-.151a2.1 2.1 0 01-.943-.48 1.14 1.14 0 01-.367-.877c0-.276.082-.518.245-.725.17-.214.393-.377.669-.49.276-.113.575-.17.895-.17.421 0 .795.091 1.122.273.332.183.568.437.706.764l-.697.32c-.214-.427-.594-.641-1.14-.641-.264 0-.497.063-.698.189-.194.119-.292.273-.292.461 0 .176.069.321.208.434.138.107.345.195.622.264l.697.179c.471.119.826.298 1.065.537.238.232.358.518.358.857 0 .296-.085.556-.255.783a1.634 1.634 0 01-.688.508c-.289.12-.609.179-.961.179zm4.454 0c-.515 0-.945-.119-1.291-.358a2.014 2.014 0 01-.735-.933l.716-.32c.12.289.296.512.528.669.239.157.5.236.782.236.302 0 .559-.06.773-.179.213-.126.32-.302.32-.528a.562.562 0 00-.254-.481c-.17-.125-.437-.232-.801-.32l-.584-.151a2.095 2.095 0 01-.943-.48 1.14 1.14 0 01-.367-.877c0-.276.081-.518.245-.725.169-.214.392-.377.669-.49.276-.113.575-.17.895-.17.421 0 .795.091 1.121.273.333.183.569.437.707.764l-.697.32c-.214-.427-.594-.641-1.14-.641-.264 0-.497.063-.698.189-.194.119-.292.273-.292.461 0 .176.069.321.208.434.138.107.345.195.621.264l.698.179c.471.119.826.298 1.065.537.238.232.358.518.358.857 0 .296-.085.556-.255.783a1.634 1.634 0 01-.688.508c-.289.12-.609.179-.961.179zm4.962 0c-.459 0-.87-.11-1.235-.329a2.333 2.333 0 01-.857-.905 2.812 2.812 0 01-.302-1.31c0-.465.095-.892.283-1.281.195-.39.468-.701.82-.933.352-.233.76-.349 1.225-.349.471 0 .879.107 1.225.32.345.208.609.497.791.867.189.371.283.795.283 1.273a.938.938 0 01-.028.245h-3.798c.019.364.107.672.264.923.157.251.355.44.594.565.245.126.499.189.763.189.616 0 1.09-.289 1.423-.867l.679.33c-.208.389-.49.697-.849.923-.351.226-.779.339-1.281.339zm1.385-3.062a1.542 1.542 0 00-.17-.603c-.1-.201-.26-.371-.48-.509-.214-.138-.484-.207-.81-.207-.377 0-.698.122-.962.367-.257.239-.427.556-.509.952h2.931zm3.509 3.062c-.515 0-.946-.119-1.291-.358a2.001 2.001 0 01-.735-.933l.716-.32c.119.289.295.512.528.669.239.157.499.236.782.236.301 0 .559-.06.773-.179.213-.126.32-.302.32-.528a.562.562 0 00-.254-.481c-.17-.125-.437-.232-.801-.32l-.585-.151a2.097 2.097 0 01-.942-.48 1.14 1.14 0 01-.367-.877c0-.276.081-.518.245-.725.169-.214.392-.377.669-.49.276-.113.574-.17.895-.17.421 0 .794.091 1.121.273.333.183.569.437.707.764l-.697.32c-.214-.427-.594-.641-1.141-.641-.263 0-.496.063-.697.189-.195.119-.292.273-.292.461 0 .176.069.321.207.434.138.107.346.195.622.264l.698.179c.471.119.826.298 1.064.537.239.232.358.518.358.857 0 .296-.084.556-.254.783a1.64 1.64 0 01-.688.508c-.289.12-.609.179-.961.179z" fill="#6F767E"/><rect opacity=".1" x="34.067" y="131.181" width="33.654" height="33.654" rx="6.863" fill="#1A55AF"/><path fill-rule="evenodd" clip-rule="evenodd" d="M44.5 143.854h-1.602a.64.64 0 100 1.281h.64v.64a.64.64 0 101.281 0v-.673a1.603 1.603 0 001.281-1.568c0-.884-.718-1.602-1.6-1.602h-.641a.32.32 0 010-.64h1.6a.64.64 0 000-1.281h-.64v-.641a.64.64 0 00-1.28 0v.673a1.603 1.603 0 00-1.282 1.569c0 .883.718 1.601 1.602 1.601h.64a.321.321 0 010 .641m10.568 9.608H45.46a.641.641 0 01-.64-.641v-2.937l.827.828a.64.64 0 00.906-.906l-1.921-1.921a.639.639 0 00-.906 0l-1.922 1.921a.64.64 0 10.906.906l.828-.828v2.937c0 1.059.862 1.922 1.922 1.922h9.607a.64.64 0 000-1.281m2.883-.641h1.6a.64.64 0 100-1.281h-.64v-.64a.64.64 0 10-1.28 0v.673a1.603 1.603 0 00-1.282 1.568c0 .884.719 1.602 1.601 1.602h.64a.32.32 0 010 .64h-1.6a.64.64 0 100 1.281h.64v.641a.64.64 0 101.281 0v-.674a1.601 1.601 0 00-.32-3.169h-.64a.321.321 0 010-.641m2.695-6.858a.64.64 0 00-.906 0l-.828.828v-2.937c0-1.06-.863-1.922-1.922-1.922h-9.607a.64.64 0 000 1.281h9.607a.64.64 0 01.64.641v2.937l-.828-.828a.64.64 0 00-.905.906l1.921 1.921a.64.64 0 00.906 0l1.922-1.921a.64.64 0 000-.906" fill="#1A55AF"/><path d="M229.626 163.496v-1.629h-3.006v-1.244h3.006v-3.806h-1.851l-1.54-1.54v-2.783l1.54-1.54h1.851v-1.629h1.303v1.629h2.651v1.243h-2.651v3.436h1.674l1.54 1.54v3.139l-1.54 1.555h-1.674v1.629h-1.303zm-1.244-7.863h1.244v-3.436h-1.229l-.814.815v1.821l.799.8zm2.547 4.99h1.052l.814-.814v-2.177l-.799-.815h-1.067v3.806zm6.386 1.244l-1.496-1.51.874-.874 1.199 1.185h3.406l.814-.815v-2.784l-.814-.814h-4.976v-5.301h6.664v1.243h-5.316v2.858h4.235l1.555 1.555v3.702l-1.555 1.555h-4.59zm7.489 1.629l.592-3.376h1.303l-1.14 3.376h-.755zm5.222-1.629l-1.496-1.51.874-.874 1.199 1.185h3.406l.814-.815v-2.784l-.814-.814h-4.976v-5.301h6.664v1.243h-5.316v2.858h4.235l1.555 1.555v3.702l-1.555 1.555h-4.59zm9.769 0l-1.495-1.51.873-.874 1.2 1.185h3.539l.8-.815v-2.991l-.904.903h-3.953l-1.54-1.555v-3.702l1.54-1.554h4.664l1.54 1.554v7.804l-1.54 1.555h-4.724zm.682-5.301h3.228l1.007-1.052v-2.547l-.8-.814h-3.435l-.815.814v2.784l.815.815zm9.165 5.301l-1.555-1.555v-7.804l1.555-1.554h4.872l1.495 1.51-.873.874-1.2-1.185h-3.687l-.815.814v3.051l.919-.903h4.087l1.54 1.554v3.643l-1.54 1.555h-4.798zm.607-1.199h3.583l.8-.815v-2.739l-.8-.815h-3.435l-.963 1.007v2.547l.815.815zm7.727 1.199v-1.747h1.304v1.747h-1.304zm4.941 0l-1.555-1.555v-3.213l1.066-1.066-.711-.741v-2.784l1.555-1.554h4.191l1.555 1.554v2.784l-.711.741 1.066 1.066v3.213l-1.555 1.555h-4.901zm.725-6.353h3.451l.577-.622v-1.925l-.799-.829-2.992.015-.814.814v1.925l.577.622zm-.118 5.154h3.687l.815-.815v-2.325l-.815-.829h-3.672l-.829.829v2.325l.814.815zm9.414 1.199l-1.555-1.555v-7.804l1.555-1.554h4.739l1.555 1.554v7.804l-1.555 1.555h-4.739zm.607-1.199h3.525l.814-.815v-6.886l-.814-.814h-3.525l-.814.814.015 6.886.799.815z" fill="#000"/><path d="M227.362 134.197h-1.894v-.763h4.58v.763h-1.885v5.984h-.801v-5.984zm4.994 6.134a2.41 2.41 0 01-2.158-1.262 2.71 2.71 0 01-.311-1.291c0-.471.104-.902.311-1.291a2.406 2.406 0 012.158-1.263c.471 0 .895.113 1.272.339.377.226.669.534.877.924.213.389.32.82.32 1.291s-.107.901-.32 1.291c-.208.389-.5.697-.877.923a2.426 2.426 0 01-1.272.339zm0-.725c.296 0 .569-.072.82-.217.258-.151.462-.364.613-.641.157-.276.235-.6.235-.97 0-.371-.078-.694-.235-.971a1.56 1.56 0 00-.613-.631 1.56 1.56 0 00-.82-.226c-.295 0-.571.075-.829.226a1.62 1.62 0 00-.622.631c-.151.277-.226.6-.226.971 0 .37.075.694.226.97.157.277.364.49.622.641.258.145.534.217.829.217zm5.108.65a1.55 1.55 0 01-.546-.094 1.243 1.243 0 01-.415-.255 1.155 1.155 0 01-.283-.414 1.549 1.549 0 01-.094-.575V136.1h-.839v-.725h.839v-1.357h.801v1.357h1.168v.725h-1.168v2.62c0 .264.05.459.151.584.119.139.292.208.518.208a.979.979 0 00.528-.161v.783a1.228 1.228 0 01-.292.094 1.938 1.938 0 01-.368.028zm3.048.075c-.352 0-.666-.069-.942-.207a1.566 1.566 0 01-.641-.565 1.55 1.55 0 01-.226-.83c0-.508.191-.904.575-1.187.383-.289.867-.433 1.451-.433.289 0 .556.031.801.094.251.063.443.135.575.217v-.292c0-.359-.126-.644-.377-.858-.252-.22-.569-.33-.952-.33-.27 0-.518.06-.745.179a1.33 1.33 0 00-.537.481l-.603-.452c.189-.289.446-.516.773-.679.333-.163.7-.245 1.102-.245.654 0 1.166.173 1.536.518.377.34.566.804.566 1.395v3.044h-.763v-.688h-.038a1.72 1.72 0 01-.622.593 1.79 1.79 0 01-.933.245zm.075-.706c.271 0 .522-.069.754-.208a1.56 1.56 0 00.556-.556c.138-.232.208-.486.208-.763a2.013 2.013 0 00-.556-.245 2.525 2.525 0 00-.698-.094c-.439 0-.772.091-.999.273a.877.877 0 00-.329.707c0 .264.1.477.301.641.201.163.456.245.763.245zm3.395-6.191h.801v6.747h-.801v-6.747zm4.55 2.666h-.886v-.725h.886v-.518c0-.302.069-.566.207-.792.138-.226.324-.399.556-.518.233-.126.49-.189.773-.189.27 0 .506.038.707.113v.782a2.625 2.625 0 00-.321-.103c-.1-.032-.22-.047-.358-.047a.733.733 0 00-.537.226c-.151.144-.226.349-.226.612v.434h1.234v.725h-1.234v4.081h-.801V136.1zm4.934 4.231a2.4 2.4 0 01-2.157-1.262 2.698 2.698 0 01-.311-1.291c0-.471.103-.902.311-1.291a2.397 2.397 0 012.157-1.263c.472 0 .896.113 1.273.339.376.226.669.534.876.924.214.389.32.82.32 1.291s-.106.901-.32 1.291c-.207.389-.5.697-.876.923a2.427 2.427 0 01-1.273.339zm0-.725c.296 0 .569-.072.82-.217.258-.151.462-.364.613-.641.157-.276.235-.6.235-.97 0-.371-.078-.694-.235-.971a1.56 1.56 0 00-.613-.631 1.56 1.56 0 00-.82-.226c-.295 0-.571.075-.829.226a1.627 1.627 0 00-.622.631c-.151.277-.226.6-.226.971 0 .37.075.694.226.97.157.277.365.49.622.641.258.145.534.217.829.217zm3.307-4.231h.764v.773h.037c.095-.264.277-.481.547-.651a1.53 1.53 0 01.848-.264c.22 0 .408.032.565.095v.867a1.489 1.489 0 00-.678-.151c-.233 0-.446.066-.641.198a1.45 1.45 0 00-.471.537c-.113.22-.17.458-.17.716v2.686h-.801v-4.806zm7.26 4.956c-.352 0-.666-.069-.942-.207a1.572 1.572 0 01-.641-.565 1.55 1.55 0 01-.226-.83c0-.508.192-.904.575-1.187.383-.289.867-.433 1.451-.433.289 0 .556.031.801.094.251.063.443.135.575.217v-.292c0-.359-.126-.644-.377-.858-.251-.22-.569-.33-.952-.33-.27 0-.518.06-.744.179a1.317 1.317 0 00-.537.481l-.604-.452c.189-.289.446-.516.773-.679a2.476 2.476 0 011.103-.245c.653 0 1.165.173 1.536.518.377.34.565.804.565 1.395v3.044h-.763v-.688h-.038c-.138.232-.345.43-.622.593a1.79 1.79 0 01-.933.245zm.076-.706c.27 0 .521-.069.753-.208a1.56 1.56 0 00.556-.556c.139-.232.208-.486.208-.763a2 2 0 00-.556-.245 2.525 2.525 0 00-.698-.094c-.439 0-.772.091-.998.273a.875.875 0 00-.33.707c0 .264.1.477.301.641.201.163.456.245.764.245zm3.394-6.191h.801v6.747h-.801v-6.747zm1.988 0h.801v6.747h-.801v-6.747zm6.289 8.933c-.566 0-1.034-.132-1.404-.396-.365-.264-.61-.581-.735-.952l.725-.311c.107.277.283.5.528.669.251.176.546.264.886.264.496 0 .879-.144 1.149-.433.277-.289.415-.698.415-1.225v-.537h-.038c-.157.245-.38.446-.669.603a2.025 2.025 0 01-.97.226c-.415 0-.795-.107-1.141-.32a2.287 2.287 0 01-.81-.896 2.778 2.778 0 01-.302-1.31c0-.483.101-.917.302-1.3a2.28 2.28 0 01.81-.905c.346-.213.726-.32 1.141-.32.364 0 .688.079.97.236.289.15.512.351.669.603h.038v-.688h.763v4.617c0 .773-.213 1.36-.641 1.762-.427.409-.989.613-1.686.613zm0-2.818c.289 0 .549-.072.782-.216.239-.145.427-.352.565-.622.145-.27.217-.591.217-.962 0-.376-.072-.7-.217-.97a1.45 1.45 0 00-.565-.613 1.456 1.456 0 00-.782-.216 1.505 1.505 0 00-1.367.838 2.09 2.09 0 00-.207.961c0 .371.069.695.207.971.145.27.336.478.575.622.239.138.503.207.792.207zm5.68.782a2.41 2.41 0 01-2.158-1.262 2.71 2.71 0 01-.311-1.291c0-.471.104-.902.311-1.291a2.406 2.406 0 012.158-1.263c.471 0 .895.113 1.272.339.377.226.669.534.876.924.214.389.321.82.321 1.291s-.107.901-.321 1.291a2.336 2.336 0 01-.876.923 2.426 2.426 0 01-1.272.339zm0-.725c.295 0 .569-.072.82-.217.257-.151.462-.364.612-.641.157-.276.236-.6.236-.97 0-.371-.079-.694-.236-.971a1.558 1.558 0 00-.612-.631 1.563 1.563 0 00-.82-.226 1.61 1.61 0 00-.829.226 1.62 1.62 0 00-.622.631c-.151.277-.226.6-.226.971 0 .37.075.694.226.97.157.277.364.49.622.641.257.145.534.217.829.217zm4.935.725c-.352 0-.666-.069-.942-.207a1.566 1.566 0 01-.641-.565 1.55 1.55 0 01-.226-.83c0-.508.191-.904.575-1.187.383-.289.866-.433 1.451-.433.289 0 .556.031.801.094.251.063.443.135.574.217v-.292c0-.359-.125-.644-.376-.858-.252-.22-.569-.33-.952-.33-.27 0-.518.06-.745.179a1.33 1.33 0 00-.537.481l-.603-.452c.189-.289.446-.516.773-.679.333-.163.7-.245 1.102-.245.654 0 1.166.173 1.536.518.377.34.566.804.566 1.395v3.044h-.764v-.688h-.037a1.72 1.72 0 01-.622.593 1.796 1.796 0 01-.933.245zm.075-.706c.27 0 .522-.069.754-.208a1.56 1.56 0 00.556-.556c.138-.232.207-.486.207-.763-.15-.1-.336-.182-.555-.245a2.525 2.525 0 00-.698-.094c-.44 0-.773.091-.999.273a.875.875 0 00-.329.707c0 .264.1.477.301.641.201.163.456.245.763.245zm3.395-6.191h.801v6.747h-.801v-6.747zm3.619 6.897c-.515 0-.945-.119-1.291-.358a2.014 2.014 0 01-.735-.933l.716-.32c.12.289.296.512.528.669.239.157.499.236.782.236.302 0 .559-.06.773-.179.213-.126.32-.302.32-.528a.562.562 0 00-.254-.481c-.17-.125-.437-.232-.801-.32l-.584-.151a2.095 2.095 0 01-.943-.48 1.14 1.14 0 01-.367-.877c0-.276.081-.518.245-.725.169-.214.392-.377.669-.49.276-.113.575-.17.895-.17.421 0 .795.091 1.121.273.333.183.569.437.707.764l-.697.32c-.214-.427-.594-.641-1.14-.641-.264 0-.497.063-.698.189-.195.119-.292.273-.292.461 0 .176.069.321.207.434.139.107.346.195.622.264l.698.179c.471.119.826.298 1.064.537.239.232.359.518.359.857 0 .296-.085.556-.255.783a1.634 1.634 0 01-.688.508c-.289.12-.609.179-.961.179z" fill="#6F767E"/><rect opacity=".1" x="177.434" y="131.181" width="33.654" height="33.654" rx="6.731" fill="#5843BE"/><path fill-rule="evenodd" clip-rule="evenodd" d="M194.396 152.315a2.156 2.156 0 01-2.154-2.154c0-1.187.966-2.153 2.154-2.153s2.154.966 2.154 2.153a2.156 2.156 0 01-2.154 2.154zm0-5.385a3.234 3.234 0 00-3.231 3.231 3.234 3.234 0 003.231 3.231 3.234 3.234 0 003.23-3.231 3.234 3.234 0 00-3.23-3.231z" fill="#5843BE"/><path fill-rule="evenodd" clip-rule="evenodd" d="M197.541 145.152a5.873 5.873 0 00-2.223-.834l2.068-3.31h2.989l-2.834 4.144zm1.701 5.01a4.852 4.852 0 01-4.847 4.846 4.852 4.852 0 01-4.846-4.846 4.852 4.852 0 014.846-4.847 4.852 4.852 0 014.847 4.847zm-10.826-9.154h2.989l2.069 3.31a5.871 5.871 0 00-2.224.834l-2.834-4.144zm13.456-.791a.54.54 0 00-.476-.287h-4.308a.539.539 0 00-.457.254l-2.236 3.577-2.235-3.577a.539.539 0 00-.457-.254h-4.308a.539.539 0 00-.444.843l3.442 5.034a5.907 5.907 0 00-1.921 4.355 5.93 5.93 0 005.923 5.923 5.93 5.93 0 005.924-5.923 5.904 5.904 0 00-1.922-4.355l3.443-5.034a.54.54 0 00.032-.556z" fill="#5843BE"/></svg>