<svg width="480" height="401" fill="none" xmlns="http://www.w3.org/2000/svg"><g filter="url(#filter0_dddddd_1_571)"><rect x="80" y="2" width="319.021" height="219" rx="10" fill="#fff"/></g><path d="M113.06 56V43.04h4.131c.108 0 .321.003.639.009.324.006.636.027.936.063 1.026.132 1.893.498 2.601 1.098.714.594 1.254 1.353 1.62 2.277.366.924.549 1.935.549 3.033 0 1.098-.183 2.109-.549 3.033-.366.924-.906 1.686-1.62 2.286-.708.594-1.575.957-2.601 1.089a9.004 9.004 0 01-.927.063c-.324.006-.54.009-.648.009h-4.131zm2.205-2.043h1.926c.18 0 .408-.006.684-.018.282-.012.531-.039.747-.081.612-.114 1.11-.387 1.494-.819.384-.432.666-.957.846-1.575a6.71 6.71 0 00.279-1.944c0-.702-.093-1.362-.279-1.98-.186-.618-.474-1.137-.864-1.557-.384-.42-.876-.687-1.476-.801a3.846 3.846 0 00-.747-.081 16.297 16.297 0 00-.684-.018h-1.926v8.874zm13.116 2.313c-.702 0-1.296-.132-1.782-.396a2.8 2.8 0 01-1.107-1.071 2.976 2.976 0 01-.369-1.467c0-.468.078-.888.234-1.26.156-.378.396-.702.72-.972.324-.276.744-.501 1.26-.675.39-.126.846-.24 1.368-.342a31.946 31.946 0 011.71-.279c.618-.09 1.263-.186 1.935-.288l-.774.441c.006-.672-.144-1.167-.45-1.485-.306-.318-.822-.477-1.548-.477-.438 0-.861.102-1.269.306-.408.204-.693.555-.855 1.053l-1.98-.621a3.679 3.679 0 011.368-1.98c.678-.498 1.59-.747 2.736-.747.864 0 1.623.141 2.277.423.66.282 1.149.744 1.467 1.386.174.342.279.693.315 1.053.036.354.054.741.054 1.161V56h-1.899v-2.106l.315.342c-.438.702-.951 1.218-1.539 1.548-.582.324-1.311.486-2.187.486zm.432-1.728c.492 0 .912-.087 1.26-.261.348-.174.624-.387.828-.639.21-.252.351-.489.423-.711.114-.276.177-.591.189-.945.018-.36.027-.651.027-.873l.666.198c-.654.102-1.215.192-1.683.27-.468.078-.87.153-1.206.225a7.683 7.683 0 00-.891.225c-.252.09-.465.195-.639.315s-.309.258-.405.414a1.08 1.08 0 00-.135.549c0 .24.06.453.18.639.12.18.294.324.522.432.234.108.522.162.864.162zm7.401-9.738v-1.989h2.169v1.989h-2.169zm0 11.196v-9.72h2.169V56h-2.169zm5.045 0V42.77h2.169V56h-2.169zm6.143 4.32l1.872-5.139.036 1.512-4.239-10.413h2.259l3.006 7.704h-.576l2.925-7.704h2.169l-5.418 14.04h-2.034zM158.9 56l4.086-12.96h3.177L170.249 56h-2.232l-3.708-11.628h.486L161.132 56H158.9zm2.277-2.808v-2.025h6.804v2.025h-6.804zm14.92 3.078c-1.002 0-1.857-.222-2.565-.666a4.434 4.434 0 01-1.629-1.836c-.372-.774-.561-1.65-.567-2.628.006-.996.201-1.878.585-2.646.39-.774.942-1.38 1.656-1.818.714-.444 1.563-.666 2.547-.666 1.104 0 2.037.279 2.799.837.768.552 1.269 1.308 1.503 2.268l-2.16.585c-.168-.522-.447-.927-.837-1.215a2.155 2.155 0 00-1.332-.441c-.564 0-1.029.135-1.395.405-.366.264-.636.63-.81 1.098-.174.468-.261.999-.261 1.593 0 .924.207 1.671.621 2.241.414.57 1.029.855 1.845.855.576 0 1.029-.132 1.359-.396.336-.264.588-.645.756-1.143l2.214.495c-.3.99-.825 1.752-1.575 2.286-.75.528-1.668.792-2.754.792zm11.829-.27a8.861 8.861 0 01-1.89.153 4.332 4.332 0 01-1.647-.333 2.283 2.283 0 01-1.107-1.017 2.899 2.899 0 01-.351-1.287 54.764 54.764 0 01-.018-1.485V43.58h2.16v8.325c0 .39.003.732.009 1.026.012.294.075.534.189.72.216.36.561.561 1.035.603a6.952 6.952 0 001.62-.072V56zm-6.777-8.019V46.28h6.777v1.701h-6.777zm9.048-3.177v-1.989h2.169v1.989h-2.169zm0 11.196v-9.72h2.169V56h-2.169zm7.493 0l-3.528-9.72h2.169l2.448 7.047 2.439-7.047h2.178L199.868 56h-2.178zm7.501-11.196v-1.989h2.169v1.989h-2.169zm0 11.196v-9.72h2.169V56h-2.169zm10.562 0a8.861 8.861 0 01-1.89.153 4.332 4.332 0 01-1.647-.333 2.283 2.283 0 01-1.107-1.017 2.899 2.899 0 01-.351-1.287 54.764 54.764 0 01-.018-1.485V43.58h2.16v8.325c0 .39.003.732.009 1.026.012.294.075.534.189.72.216.36.561.561 1.035.603a6.952 6.952 0 001.62-.072V56zm-6.777-8.019V46.28h6.777v1.701h-6.777zm9.047-3.177v-1.989h2.169v1.989h-2.169zm0 11.196v-9.72h2.169V56h-2.169zm9.284.27c-.984 0-1.848-.213-2.592-.639a4.55 4.55 0 01-1.746-1.773c-.414-.756-.621-1.626-.621-2.61 0-1.062.204-1.983.612-2.763a4.47 4.47 0 011.701-1.827c.726-.432 1.566-.648 2.52-.648 1.008 0 1.863.237 2.565.711.708.468 1.233 1.131 1.575 1.989.342.858.471 1.869.387 3.033h-2.151v-.792c-.006-1.056-.192-1.827-.558-2.313-.366-.486-.942-.729-1.728-.729-.888 0-1.548.276-1.98.828-.432.546-.648 1.347-.648 2.403 0 .984.216 1.746.648 2.286.432.54 1.062.81 1.89.81.534 0 .993-.117 1.377-.351.39-.24.69-.585.9-1.035l2.142.648a4.342 4.342 0 01-1.728 2.043 4.727 4.727 0 01-2.565.729zm-3.348-4.527v-1.638h6.687v1.638h-6.687zm13.51 4.527c-1.2 0-2.175-.27-2.925-.81s-1.206-1.299-1.368-2.277l2.214-.342c.114.48.366.858.756 1.134.39.276.882.414 1.476.414.522 0 .924-.102 1.206-.306.288-.21.432-.495.432-.855 0-.222-.054-.399-.162-.531-.102-.138-.33-.27-.684-.396a21.768 21.768 0 00-1.629-.477c-.816-.216-1.464-.447-1.944-.693-.48-.252-.825-.549-1.035-.891-.21-.342-.315-.756-.315-1.242 0-.606.159-1.134.477-1.584.318-.45.762-.795 1.332-1.035.57-.246 1.242-.369 2.016-.369.756 0 1.425.117 2.007.351.588.234 1.062.567 1.422.999.36.432.582.939.666 1.521l-2.214.396a1.394 1.394 0 00-.567-.981c-.318-.24-.744-.375-1.278-.405-.51-.03-.921.048-1.233.234-.312.18-.468.435-.468.765 0 .186.063.345.189.477s.378.264.756.396c.384.132.954.294 1.71.486.774.198 1.392.426 1.854.684.468.252.804.555 1.008.909.21.354.315.783.315 1.287 0 .978-.357 1.746-1.071 2.304-.708.558-1.689.837-2.943.837z" fill="#000"/><path d="M120.108 184.2v9.8h-1.61v-6.986l-2.982 4.928h-.196L112.338 187v7h-1.61v-9.8h1.736l2.954 4.9 2.968-4.9h1.722zm5.16 9.982c-1.027 0-1.899-.355-2.618-1.064-.719-.709-1.078-1.582-1.078-2.618 0-1.036.359-1.909 1.078-2.618.719-.709 1.591-1.064 2.618-1.064 1.036 0 1.909.355 2.618 1.064.719.709 1.078 1.582 1.078 2.618 0 1.036-.359 1.909-1.078 2.618-.709.709-1.582 1.064-2.618 1.064zm-1.554-2.1c.42.42.938.63 1.554.63.616 0 1.134-.21 1.554-.63.42-.42.63-.947.63-1.582 0-.635-.21-1.162-.63-1.582-.42-.42-.938-.63-1.554-.63-.616 0-1.134.21-1.554.63-.42.42-.63.947-.63 1.582 0 .635.21 1.162.63 1.582zm10.299-5.264c.803 0 1.452.257 1.946.77.495.513.742 1.218.742 2.114V194h-1.512v-4.144c0-.523-.14-.924-.42-1.204-.28-.28-.662-.42-1.148-.42-.532 0-.961.168-1.288.504-.326.327-.49.831-.49 1.512V194h-1.512v-7h1.512v.896c.458-.719 1.181-1.078 2.17-1.078z" fill="#A9A9A9"/><rect x="118.98" y="77" width="12.309" height="94" rx="6.155" fill="#4F46BA"/><rect x="202.069" y="104" width="12.309" height="67" rx="6.155" fill="#4F46BA"/><path d="M197.776 194l-2.772-9.8h1.694l2.058 7.658 2.226-7.658h1.484l2.212 7.658 2.058-7.658h1.694l-2.772 9.8h-1.862l-2.072-7.154-2.086 7.154h-1.862zm12.172-2.856c.112.532.369.943.77 1.232.401.28.891.42 1.47.42.803 0 1.405-.289 1.806-.868l1.246.728c-.691 1.017-1.713 1.526-3.066 1.526-1.139 0-2.058-.345-2.758-1.036-.7-.7-1.05-1.582-1.05-2.646 0-1.045.345-1.918 1.036-2.618.691-.709 1.577-1.064 2.66-1.064 1.027 0 1.867.359 2.52 1.078.663.719.994 1.591.994 2.618 0 .159-.019.369-.056.63h-5.572zm-.014-1.232h4.116c-.103-.569-.341-.999-.714-1.288a2.01 2.01 0 00-1.288-.434c-.56 0-1.027.154-1.4.462-.373.308-.611.728-.714 1.26zm12.476-5.712h1.512v9.8h-1.512v-1.008c-.57.793-1.386 1.19-2.45 1.19-.962 0-1.783-.355-2.464-1.064-.682-.719-1.022-1.591-1.022-2.618 0-1.036.34-1.909 1.022-2.618.681-.709 1.502-1.064 2.464-1.064 1.064 0 1.88.392 2.45 1.176V184.2zm-3.794 7.91c.42.42.947.63 1.582.63.634 0 1.162-.21 1.582-.63.42-.429.63-.966.63-1.61 0-.644-.21-1.176-.63-1.596-.42-.429-.948-.644-1.582-.644-.635 0-1.162.215-1.582.644-.42.42-.63.952-.63 1.596 0 .644.21 1.181.63 1.61z" fill="#A9A9A9"/><rect x="160.012" y="96" width="12.309" height="75" rx="6.155" fill="#F9896B"/><path d="M163.762 184.2v1.54h-2.758V194h-1.61v-8.26h-2.772v-1.54h7.14zm4.69 2.8h1.512v7h-1.512v-.896c-.458.719-1.181 1.078-2.17 1.078-.803 0-1.452-.257-1.946-.77-.495-.513-.742-1.218-.742-2.114V187h1.512v4.144c0 .523.14.924.42 1.204.28.28.662.42 1.148.42.532 0 .961-.163 1.288-.49.326-.336.49-.845.49-1.526V187zm4.47 4.144c.112.532.368.943.77 1.232.401.28.891.42 1.47.42.802 0 1.404-.289 1.806-.868l1.246.728c-.691 1.017-1.713 1.526-3.066 1.526-1.139 0-2.058-.345-2.758-1.036-.7-.7-1.05-1.582-1.05-2.646 0-1.045.345-1.918 1.036-2.618.69-.709 1.577-1.064 2.66-1.064 1.026 0 1.866.359 2.52 1.078.662.719.994 1.591.994 2.618 0 .159-.019.369-.056.63h-5.572zm-.014-1.232h4.116c-.103-.569-.341-.999-.714-1.288a2.011 2.011 0 00-1.288-.434c-.56 0-1.027.154-1.4.462-.374.308-.612.728-.714 1.26z" fill="#A9A9A9"/><rect x="244.127" y="85" width="12.309" height="86" rx="6.155" fill="#F9896B"/><path d="M246.879 184.2v1.54h-2.758V194h-1.61v-8.26h-2.772v-1.54h7.14zm4.775 2.618c.802 0 1.451.257 1.946.77.494.513.742 1.218.742 2.114V194h-1.512v-4.144c0-.523-.14-.924-.42-1.204-.28-.28-.663-.42-1.148-.42-.532 0-.962.168-1.288.504-.327.327-.49.831-.49 1.512V194h-1.512v-9.8h1.512v3.696c.457-.719 1.18-1.078 2.17-1.078zm9.034.182h1.512v7h-1.512v-.896c-.458.719-1.181 1.078-2.17 1.078-.803 0-1.452-.257-1.946-.77-.495-.513-.742-1.218-.742-2.114V187h1.512v4.144c0 .523.14.924.42 1.204.28.28.662.42 1.148.42.532 0 .961-.163 1.288-.49.326-.336.49-.845.49-1.526V187z" fill="#A9A9A9"/><defs><filter id="filter0_dddddd_1_571" x="0" y=".704" width="479.021" height="400.296" filterUnits="userSpaceOnUse" color-interpolation-filters="sRGB"><feFlood flood-opacity="0" result="BackgroundImageFix"/><feColorMatrix in="SourceAlpha" values="0 0 0 0 0 0 0 0 0 0 0 0 0 0 0 0 0 0 127 0" result="hardAlpha"/><feOffset dy="1.852"/><feGaussianBlur stdDeviation="1.574"/><feColorMatrix values="0 0 0 0 0 0 0 0 0 0 0 0 0 0 0 0 0 0 0.01 0"/><feBlend in2="BackgroundImageFix" result="effect1_dropShadow_1_571"/><feColorMatrix in="SourceAlpha" values="0 0 0 0 0 0 0 0 0 0 0 0 0 0 0 0 0 0 127 0" result="hardAlpha"/><feOffset dy="8.148"/><feGaussianBlur stdDeviation="3.259"/><feColorMatrix values="0 0 0 0 0 0 0 0 0 0 0 0 0 0 0 0 0 0 0.0117778 0"/><feBlend in2="effect1_dropShadow_1_571" result="effect2_dropShadow_1_571"/><feColorMatrix in="SourceAlpha" values="0 0 0 0 0 0 0 0 0 0 0 0 0 0 0 0 0 0 127 0" result="hardAlpha"/><feOffset dy="20"/><feGaussianBlur stdDeviation="6.5"/><feColorMatrix values="0 0 0 0 0 0 0 0 0 0 0 0 0 0 0 0 0 0 0.015 0"/><feBlend in2="effect2_dropShadow_1_571" result="effect3_dropShadow_1_571"/><feColorMatrix in="SourceAlpha" values="0 0 0 0 0 0 0 0 0 0 0 0 0 0 0 0 0 0 127 0" result="hardAlpha"/><feOffset dy="38.519"/><feGaussianBlur stdDeviation="12.741"/><feColorMatrix values="0 0 0 0 0 0 0 0 0 0 0 0 0 0 0 0 0 0 0.0182222 0"/><feBlend in2="effect3_dropShadow_1_571" result="effect4_dropShadow_1_571"/><feColorMatrix in="SourceAlpha" values="0 0 0 0 0 0 0 0 0 0 0 0 0 0 0 0 0 0 127 0" result="hardAlpha"/><feOffset dy="64.815"/><feGaussianBlur stdDeviation="23.426"/><feColorMatrix values="0 0 0 0 0 0 0 0 0 0 0 0 0 0 0 0 0 0 0.0227778 0"/><feBlend in2="effect4_dropShadow_1_571" result="effect5_dropShadow_1_571"/><feColorMatrix in="SourceAlpha" values="0 0 0 0 0 0 0 0 0 0 0 0 0 0 0 0 0 0 127 0" result="hardAlpha"/><feOffset dy="100"/><feGaussianBlur stdDeviation="40"/><feColorMatrix values="0 0 0 0 0 0 0 0 0 0 0 0 0 0 0 0 0 0 0.03 0"/><feBlend in2="effect5_dropShadow_1_571" result="effect6_dropShadow_1_571"/><feBlend in="SourceGraphic" in2="effect6_dropShadow_1_571" result="shape"/></filter></defs></svg>