<svg width="289" height="71" fill="none" xmlns="http://www.w3.org/2000/svg"><rect x=".41" y=".739" width="288.079" height="70" rx="10" fill="#fff"/><path d="M75.573 30.921c-1.521 0-2.571-.597-3.15-1.792l1.386-.812c.318.69.91 1.036 1.778 1.036.56 0 .99-.135 1.288-.406.308-.28.462-.672.462-1.176v-6.832h1.61v6.832c0 1.008-.317 1.787-.952 2.338-.634.541-1.442.812-2.422.812zm8.367 0c-1.027 0-1.9-.355-2.618-1.064-.719-.71-1.078-1.582-1.078-2.618 0-1.036.359-1.909 1.078-2.618.718-.71 1.591-1.064 2.618-1.064 1.036 0 1.908.355 2.618 1.064.718.71 1.078 1.582 1.078 2.618 0 1.036-.36 1.909-1.078 2.618-.71.71-1.582 1.064-2.618 1.064zm-1.554-2.1c.42.42.938.63 1.554.63.616 0 1.134-.21 1.554-.63.42-.42.63-.947.63-1.582 0-.635-.21-1.162-.63-1.582-.42-.42-.938-.63-1.554-.63-.616 0-1.134.21-1.554.63-.42.42-.63.947-.63 1.582 0 .635.21 1.162.63 1.582zm10.299-5.264c.802 0 1.451.257 1.946.77.495.513.742 1.218.742 2.114v4.298H93.86v-4.144c0-.523-.14-.924-.42-1.204-.28-.28-.663-.42-1.148-.42-.532 0-.962.168-1.288.504-.327.327-.49.83-.49 1.512v3.752h-1.512v-9.8h1.512v3.696c.457-.719 1.18-1.078 2.17-1.078zm7.998 0c.803 0 1.451.257 1.946.77.495.513.742 1.218.742 2.114v4.298h-1.512v-4.144c0-.523-.14-.924-.42-1.204-.28-.28-.663-.42-1.148-.42-.532 0-.961.168-1.288.504-.327.327-.49.83-.49 1.512v3.752H97v-7h1.512v.896c.457-.719 1.18-1.078 2.17-1.078zm11.764-2.618c1.344 0 2.459.471 3.346 1.414.896.943 1.344 2.105 1.344 3.486 0 1.372-.448 2.534-1.344 3.486-.887.943-2.002 1.414-3.346 1.414h-3.85v-9.8h3.85zm0 8.26c.924 0 1.675-.317 2.254-.952.588-.635.882-1.437.882-2.408 0-.98-.294-1.783-.882-2.408-.579-.635-1.33-.952-2.254-.952h-2.24v6.72h2.24zm9.364 1.722c-1.027 0-1.9-.355-2.618-1.064-.719-.71-1.078-1.582-1.078-2.618 0-1.036.359-1.909 1.078-2.618.718-.71 1.591-1.064 2.618-1.064 1.036 0 1.908.355 2.618 1.064.718.71 1.078 1.582 1.078 2.618 0 1.036-.36 1.909-1.078 2.618-.71.71-1.582 1.064-2.618 1.064zm-1.554-2.1c.42.42.938.63 1.554.63.616 0 1.134-.21 1.554-.63.42-.42.63-.947.63-1.582 0-.635-.21-1.162-.63-1.582-.42-.42-.938-.63-1.554-.63-.616 0-1.134.21-1.554.63-.42.42-.63.947-.63 1.582 0 .635.21 1.162.63 1.582z" fill="#000"/><path d="M80.693 41.839v8.4H79.59v-6.564l-2.748 4.572h-.144l-2.748-4.56v6.552h-1.116v-8.4h1.26l2.676 4.44 2.664-4.44h1.26zm6.753 7.644c-.616.608-1.364.912-2.244.912-.88 0-1.628-.304-2.244-.912-.608-.608-.912-1.356-.912-2.244 0-.888.304-1.636.912-2.244.616-.608 1.364-.912 2.244-.912.88 0 1.628.304 2.244.912.616.608.924 1.356.924 2.244 0 .888-.308 1.636-.924 2.244zm-2.244-.108c.6 0 1.104-.204 1.512-.612.408-.408.612-.916.612-1.524s-.204-1.116-.612-1.524c-.408-.408-.912-.612-1.512-.612a2.04 2.04 0 00-1.5.612c-.408.408-.612.916-.612 1.524s.204 1.116.612 1.524a2.04 2.04 0 001.5.612zm7.386-5.292c.704 0 1.268.224 1.692.672.424.44.636 1.04.636 1.8v3.684h-1.044v-3.624c0-.488-.132-.864-.396-1.128-.264-.272-.628-.408-1.092-.408-.52 0-.94.164-1.26.492-.32.32-.48.816-.48 1.488v3.18H89.6v-6h1.044v.864c.424-.68 1.072-1.02 1.944-1.02zm5.346 4.92l-.78 2.916h-.9l.48-2.916h1.2zm9.419-6.108h-3.72v2.724h3.564v1.056h-3.564v3.564h-1.116v-8.4h4.836v1.056zm1.975 4.824c.104.536.348.952.732 1.248.392.296.872.444 1.44.444.792 0 1.368-.292 1.728-.876l.888.504c-.584.904-1.464 1.356-2.64 1.356-.952 0-1.728-.296-2.328-.888-.592-.6-.888-1.356-.888-2.268 0-.904.292-1.656.876-2.256.584-.6 1.34-.9 2.268-.9.88 0 1.596.312 2.148.936.56.616.84 1.36.84 2.232 0 .152-.012.308-.036.468h-5.028zm2.076-2.652c-.56 0-1.024.16-1.392.48-.368.312-.596.732-.684 1.26h4.008c-.088-.568-.312-1-.672-1.296a1.924 1.924 0 00-1.26-.444zm7.501-.984c.84 0 1.556.308 2.148.924.592.608.888 1.352.888 2.232 0 .88-.296 1.628-.888 2.244-.592.608-1.308.912-2.148.912-.992 0-1.748-.396-2.268-1.188v1.032h-1.044v-8.4h1.044v3.432c.52-.792 1.276-1.188 2.268-1.188zm-.132 5.304c.6 0 1.104-.204 1.512-.612.408-.416.612-.928.612-1.536s-.204-1.116-.612-1.524a2.034 2.034 0 00-1.512-.624c-.608 0-1.116.208-1.524.624-.408.408-.612.916-.612 1.524s.204 1.12.612 1.536c.408.408.916.612 1.524.612zm7.053.852v-.912l2.964-3.024c.792-.792 1.188-1.472 1.188-2.04 0-.472-.144-.84-.432-1.104a1.506 1.506 0 00-1.056-.396c-.792 0-1.368.376-1.728 1.128l-.936-.552c.264-.544.628-.956 1.092-1.236.472-.28.992-.42 1.56-.42.704 0 1.316.232 1.836.696.52.464.78 1.088.78 1.872 0 .848-.5 1.772-1.5 2.772l-2.148 2.136h3.804v1.08h-5.424zm10.734-4.344c.408.208.728.488.96.84.232.352.348.752.348 1.2 0 .768-.268 1.372-.804 1.812-.536.432-1.228.648-2.076.648-.84 0-1.528-.216-2.064-.648-.536-.44-.804-1.044-.804-1.812 0-.448.116-.848.348-1.2a2.46 2.46 0 01.96-.84c-.688-.432-1.032-1.044-1.032-1.836 0-.76.252-1.344.756-1.752.512-.416 1.124-.624 1.836-.624.72 0 1.332.208 1.836.624.512.408.768.992.768 1.752 0 .792-.344 1.404-1.032 1.836zm-1.572-3.144c-.424 0-.78.112-1.068.336-.28.224-.42.556-.42.996 0 .424.144.756.432.996.288.232.64.348 1.056.348.416 0 .768-.116 1.056-.348.288-.24.432-.572.432-.996 0-.44-.14-.772-.42-.996-.28-.224-.636-.336-1.068-.336zm0 6.576c.536 0 .964-.124 1.284-.372.328-.256.492-.62.492-1.092 0-.464-.164-.82-.492-1.068-.32-.256-.748-.384-1.284-.384-.528 0-.956.128-1.284.384-.32.248-.48.604-.48 1.068 0 .472.16.836.48 1.092.328.248.756.372 1.284.372z" fill="#C6C6C6"/><path d="M57.026 31.739c0 7.738-6.23 14-13.9 14-7.671 0-13.901-6.262-13.901-14s6.23-14 13.9-14c7.671 0 13.901 6.262 13.901 14z" fill="#EBEBF5" stroke="#4F46BA" stroke-width="2"/></svg>