<svg width="196" height="110" fill="none" xmlns="http://www.w3.org/2000/svg"><rect y=".116" width="196" height="109.017" rx="10" fill="#fff"/><ellipse cx="22" cy="24.45" rx="8" ry="7.787" fill="#00E1F0"/><path d="M38.98 31.663v-10.08h3.892c.098 0 .208.005.329.014.126.005.252.019.378.042.527.08.973.264 1.337.553.369.285.646.644.833 1.078.191.434.287.915.287 1.442 0 .76-.2 1.421-.602 1.981-.401.56-.975.912-1.722 1.057l-.357.084h-3.346v3.83H38.98zm6.104 0l-1.988-4.102.987-.378 2.184 4.48h-1.183zm-5.075-4.809h2.835c.084 0 .182-.005.294-.014a2.54 2.54 0 00.329-.049 1.72 1.72 0 00.847-.427c.224-.21.39-.46.497-.749.112-.29.168-.59.168-.903a2.48 2.48 0 00-.168-.903 1.926 1.926 0 00-.497-.756 1.72 1.72 0 00-.847-.427 1.929 1.929 0 00-.329-.042 3.611 3.611 0 00-.294-.014h-2.835v4.284zm11.002 5.02c-.737 0-1.377-.164-1.918-.49a3.326 3.326 0 01-1.253-1.38c-.299-.593-.448-1.288-.448-2.086 0-.826.147-1.54.441-2.142a3.278 3.278 0 011.239-1.393c.537-.327 1.169-.49 1.897-.49.747 0 1.384.173 1.911.518.527.34.926.83 1.197 1.47.27.64.394 1.402.371 2.29h-1.05v-.365c-.019-.98-.231-1.72-.637-2.219-.401-.5-.99-.749-1.764-.749-.812 0-1.435.264-1.869.791-.43.527-.644 1.279-.644 2.254 0 .952.215 1.692.644 2.22.434.522 1.048.783 1.841.783.541 0 1.013-.124 1.414-.37.406-.253.726-.615.959-1.086l.959.371a3.428 3.428 0 01-1.323 1.533c-.579.36-1.234.54-1.967.54zM48.12 28.17v-.86h5.775v.86H48.12zm9.652 3.493l-2.744-7.56h1.043l2.233 6.216 2.219-6.216h1.057l-2.744 7.56h-1.064zm7.991.21c-.737 0-1.377-.163-1.918-.49a3.325 3.325 0 01-1.253-1.379c-.299-.593-.448-1.288-.448-2.086 0-.826.147-1.54.441-2.142a3.278 3.278 0 011.239-1.393c.537-.327 1.169-.49 1.897-.49.747 0 1.384.173 1.911.518.527.34.926.83 1.197 1.47.27.64.394 1.402.371 2.29h-1.05v-.365c-.019-.98-.231-1.72-.637-2.219-.401-.5-.99-.749-1.764-.749-.812 0-1.435.264-1.869.791-.43.527-.644 1.279-.644 2.254 0 .952.215 1.692.644 2.22.434.522 1.048.783 1.841.783.541 0 1.013-.124 1.414-.37.406-.253.726-.615.959-1.086l.959.371a3.43 3.43 0 01-1.323 1.533c-.579.36-1.234.54-1.967.54zm-2.891-3.703v-.86h5.775v.86h-5.775zm13.136 3.493v-3.857c0-.42-.04-.805-.119-1.155a2.665 2.665 0 00-.385-.924 1.76 1.76 0 00-.679-.616c-.275-.145-.611-.217-1.008-.217-.364 0-.686.063-.966.19a1.902 1.902 0 00-.7.545 2.445 2.445 0 00-.427.854 4.104 4.104 0 00-.147 1.148l-.728-.16c0-.776.136-1.427.406-1.954a2.82 2.82 0 011.12-1.197c.476-.27 1.022-.406 1.638-.406.453 0 .847.07 1.183.21.341.14.628.33.861.567.238.238.43.511.574.82.145.302.25.627.315.972.066.34.098.681.098 1.022v4.158h-1.036zm-5.467 0v-7.56h.931v1.862h.105v5.698h-1.036zm11.21.19c-.452 0-.849-.07-1.19-.21a2.634 2.634 0 01-.86-.568 2.988 2.988 0 01-.567-.812 4.088 4.088 0 01-.315-.973 5.519 5.519 0 01-.098-1.029v-4.158h1.036v3.857c0 .415.04.8.119 1.155.08.355.205.665.378.931.177.261.403.464.679.61.28.144.618.216 1.015.216.364 0 .684-.063.959-.189a1.86 1.86 0 00.7-.539c.191-.238.336-.525.434-.86a4.15 4.15 0 00.147-1.149l.728.161c0 .775-.135 1.426-.406 1.953-.27.527-.644.926-1.12 1.197-.476.27-1.022.406-1.638.406zm2.542-.19v-1.862h-.105v-5.698h1.029v7.56h-.924zm6.08.21c-.738 0-1.377-.163-1.919-.49a3.325 3.325 0 01-1.253-1.379c-.298-.593-.448-1.288-.448-2.086 0-.826.147-1.54.441-2.142a3.278 3.278 0 011.24-1.393c.536-.327 1.168-.49 1.896-.49.747 0 1.384.173 1.911.518.528.34.927.83 1.197 1.47.271.64.395 1.402.371 2.29h-1.05v-.365c-.018-.98-.23-1.72-.637-2.219-.401-.5-.989-.749-1.764-.749-.812 0-1.435.264-1.869.791-.429.527-.644 1.279-.644 2.254 0 .952.215 1.692.644 2.22.434.522 1.048.783 1.841.783.542 0 1.013-.124 1.414-.37.406-.253.726-.615.96-1.086l.958.371a3.43 3.43 0 01-1.323 1.533c-.578.36-1.234.54-1.967.54zM87.48 28.17v-.86h5.775v.86H87.48zM18.136 69.323v-1.896h1.928v1.895h-1.928zm0-12.8v-1.897h1.928v1.897h-1.928zm1.008 11.447c-.81 0-1.536-.149-2.176-.448a4.126 4.126 0 01-1.576-1.264c-.405-.543-.664-1.189-.776-1.935l1.904-.304c.15.655.47 1.178.96 1.567.496.385 1.088.576 1.776.576.661 0 1.205-.154 1.632-.464.427-.314.64-.711.64-1.191 0-.337-.101-.609-.304-.817-.203-.213-.528-.389-.976-.527l-2.776-.864c-1.616-.502-2.424-1.483-2.424-2.944 0-.683.163-1.278.488-1.784a3.18 3.18 0 011.392-1.176c.597-.278 1.301-.414 2.112-.409.752.006 1.421.142 2.008.409a3.81 3.81 0 011.472 1.151c.395.502.675 1.105.84 1.809l-1.976.36a2.394 2.394 0 00-.44-1 2.249 2.249 0 00-.824-.673 2.665 2.665 0 00-1.104-.256 2.622 2.622 0 00-1.048.184c-.31.123-.555.3-.736.529a1.176 1.176 0 00-.272.76c0 .314.125.584.376.807.256.224.659.416 1.208.576l2.072.6c.997.289 1.715.68 2.152 1.177.443.49.664 1.144.664 1.96 0 .714-.179 1.34-.536 1.88-.357.538-.859.96-1.504 1.263-.645.3-1.395.448-2.248.448zm9.319-.023c-.576 0-1.12-.112-1.632-.337a3.954 3.954 0 01-1.336-.951 3.68 3.68 0 01-.808-1.457l1.864-.504c.133.46.376.814.728 1.065.357.245.75.365 1.176.36.379 0 .717-.089 1.016-.264a1.92 1.92 0 00.704-.712 2.04 2.04 0 00.256-1.017c0-.57-.184-1.047-.552-1.431-.368-.384-.843-.576-1.424-.576-.176 0-.35.024-.52.072a2.338 2.338 0 00-.48.2l-.88-1.52 3.872-3.313.168.465h-5.48V56.21h7.064v1.824l-3.112 2.992-.016-.569c.698.049 1.293.243 1.784.584.496.342.875.782 1.136 1.32.267.54.4 1.128.4 1.768 0 .726-.179 1.377-.536 1.953a3.853 3.853 0 01-1.424 1.368 3.967 3.967 0 01-1.968.496zm9.985.023c-.752 0-1.43-.175-2.032-.528a3.917 3.917 0 01-1.424-1.48c-.352-.629-.528-1.352-.528-2.168v-3.503c0-.875.173-1.635.52-2.28a3.714 3.714 0 011.472-1.497c.634-.352 1.37-.528 2.208-.528.581 0 1.133.1 1.656.297.522.191.986.5 1.392.928l-1.392 1.352a2.18 2.18 0 00-.744-.569 2.076 2.076 0 00-.912-.208c-.448 0-.84.107-1.176.32a2.192 2.192 0 00-.784.825 2.3 2.3 0 00-.272 1.096v1.911l-.352-.384c.33-.384.728-.682 1.192-.896.464-.218.95-.328 1.456-.328.725 0 1.365.166 1.92.497a3.53 3.53 0 011.312 1.343c.32.566.48 1.211.48 1.936 0 .72-.184 1.374-.552 1.96a4.073 4.073 0 01-1.448 1.392 3.972 3.972 0 01-1.992.513zm0-1.847c.373 0 .714-.089 1.024-.264a2.05 2.05 0 00.736-.728c.186-.31.28-.651.28-1.025a2.029 2.029 0 00-1.008-1.76 1.903 1.903 0 00-1.016-.28c-.374 0-.715.094-1.024.28a2.027 2.027 0 00-1.008 1.76c0 .363.088.7.264 1.009.181.303.424.549.728.736a2 2 0 001.024.272zm5.793 3.647l.112-.831c.246.02.44-.022.584-.128a.733.733 0 00.288-.44c.054-.187.067-.4.04-.64h-1.024v-2.056h1.976v2.136c0 .698-.165 1.226-.496 1.583-.33.358-.824.483-1.48.376zm9.004-1.8c-.752 0-1.43-.175-2.032-.528a3.917 3.917 0 01-1.424-1.48c-.352-.629-.528-1.352-.528-2.168v-3.503c0-.875.173-1.635.52-2.28a3.715 3.715 0 011.472-1.497c.634-.352 1.37-.528 2.208-.528.581 0 1.133.1 1.656.297a3.63 3.63 0 011.392.928l-1.392 1.352a2.193 2.193 0 00-.744-.569 2.076 2.076 0 00-.912-.208c-.448 0-.84.107-1.176.32a2.192 2.192 0 00-.784.825 2.302 2.302 0 00-.272 1.096v1.911l-.352-.384c.33-.384.728-.682 1.192-.896a3.384 3.384 0 011.456-.328c.725 0 1.365.166 1.92.497.554.325.992.773 1.312 1.343.32.566.48 1.211.48 1.936 0 .72-.184 1.374-.552 1.96a4.07 4.07 0 01-1.448 1.392 3.972 3.972 0 01-1.992.513zm0-1.847c.373 0 .714-.089 1.024-.264.309-.182.554-.424.736-.728.186-.31.28-.651.28-1.025a2.027 2.027 0 00-1.008-1.76 1.903 1.903 0 00-1.016-.28c-.374 0-.715.094-1.024.28a2.029 2.029 0 00-1.008 1.76c0 .363.088.7.264 1.009.181.303.424.549.728.736.309.18.65.272 1.024.272zm9.721 1.847c-.763 0-1.44-.154-2.032-.463a3.491 3.491 0 01-1.392-1.288c-.336-.55-.504-1.18-.504-1.888 0-.635.147-1.225.44-1.769a3.29 3.29 0 011.288-1.303l-.04.615a3.78 3.78 0 01-1.032-1.16 3.071 3.071 0 01-.36-1.487c0-.662.155-1.235.464-1.72a3.154 3.154 0 011.288-1.128c.544-.273 1.17-.408 1.88-.408s1.336.136 1.88.408c.55.266.979.642 1.288 1.128.315.485.472 1.058.472 1.72a3.08 3.08 0 01-.352 1.48c-.23.437-.579.831-1.048 1.184l-.008-.624a3.19 3.19 0 011.272 1.295c.299.544.448 1.134.448 1.769 0 .709-.17 1.338-.512 1.888a3.487 3.487 0 01-1.4 1.288c-.592.309-1.272.463-2.04.463zm0-1.816c.566 0 1.024-.154 1.376-.463.358-.31.536-.763.536-1.36 0-.598-.176-1.051-.528-1.36-.352-.315-.813-.472-1.384-.472-.565 0-1.021.157-1.368.471-.346.31-.52.763-.52 1.36 0 .598.173 1.051.52 1.36.347.31.803.465 1.368.465zm0-5.487c.475 0 .859-.118 1.152-.352.299-.24.448-.603.448-1.088 0-.486-.15-.846-.448-1.08-.293-.24-.677-.36-1.152-.36-.47 0-.853.12-1.152.36-.293.234-.44.594-.44 1.08 0 .485.147.848.44 1.088.299.234.683.352 1.152.352zM73.14 67.97c-.816 0-1.536-.173-2.16-.52a3.787 3.787 0 01-1.464-1.463c-.347-.624-.52-1.344-.52-2.16v-3.712c0-.817.173-1.537.52-2.16a3.73 3.73 0 011.464-1.456c.624-.352 1.344-.529 2.16-.529.816 0 1.533.177 2.152.529a3.73 3.73 0 011.464 1.456c.352.623.528 1.343.528 2.16v3.712c0 .816-.176 1.535-.528 2.16a3.787 3.787 0 01-1.464 1.464c-.619.346-1.336.52-2.152.52zm0-1.832a2.16 2.16 0 001.104-.288c.33-.197.592-.458.784-.783.192-.331.288-.7.288-1.104V59.97c0-.411-.096-.78-.288-1.104a2.126 2.126 0 00-.784-.784 2.113 2.113 0 00-1.104-.297c-.405 0-.773.1-1.104.297-.33.192-.592.453-.784.784a2.13 2.13 0 00-.288 1.104v3.992c0 .405.096.773.288 1.104.192.325.453.586.784.784.33.192.699.287 1.104.287z" fill="#000"/><path d="M86.435 58.49v1.327h-2.197v2.197h-1.326v-2.197h-2.197V58.49h2.197v-2.197h1.326v2.197h2.197zm3.273-3.886h1.3v9.1h-1.495v-7.501l-1.833.52-.364-1.274 2.392-.845zm2.68 9.1v-1.17l3.171-3.237c.772-.772 1.157-1.44 1.157-2.002 0-.442-.134-.785-.403-1.027-.26-.252-.593-.377-1-.377-.763 0-1.327.377-1.69 1.13l-1.262-.74c.286-.607.69-1.066 1.21-1.378a3.296 3.296 0 011.728-.468c.798 0 1.482.25 2.054.754.572.502.858 1.187.858 2.054 0 .927-.515 1.915-1.547 2.964L94.61 62.26h3.77v1.443h-5.993zm10.64-5.707c-.398.398-.901.598-1.508.598-.606 0-1.113-.2-1.52-.598a2.018 2.018 0 01-.612-1.482c0-.581.204-1.07.611-1.47.408-.407.915-.61 1.521-.61.607 0 1.11.199 1.508.598.408.398.611.892.611 1.482 0 .58-.203 1.074-.611 1.482zm-1.521-.546a.89.89 0 00.676-.273.923.923 0 00.26-.663.94.94 0 00-.26-.676.89.89 0 00-.676-.273.878.878 0 00-.663.273.944.944 0 00-.26.676c0 .26.087.48.26.663a.878.878 0 00.663.273zm-1.352 4.914l5.993-6.67.702.404-5.993 6.682-.702-.416zm5.525 1.495c-.606 0-1.113-.2-1.521-.598a2.02 2.02 0 01-.611-1.482c0-.581.204-1.07.611-1.47.408-.407.915-.61 1.521-.61.598 0 1.101.203 1.508.61.408.4.611.889.611 1.47 0 .58-.203 1.074-.611 1.482-.407.398-.91.598-1.508.598zm-.013-1.144a.89.89 0 00.676-.273.923.923 0 00.26-.663.94.94 0 00-.26-.676.89.89 0 00-.676-.273.878.878 0 00-.663.273.944.944 0 00-.26.676c0 .26.087.48.26.663a.878.878 0 00.663.273z" fill="#00E1F0"/><path d="M17.615 84.268c-.717 0-1.322-.158-1.815-.475a3.011 3.011 0 01-1.12-1.325c-.253-.563-.38-1.213-.38-1.95 0-.737.127-1.386.38-1.95a2.979 2.979 0 011.12-1.32c.493-.32 1.098-.48 1.815-.48.837 0 1.52.215 2.05.645.53.427.893 1 1.09 1.72l-.75.195c-.153-.57-.428-1.022-.825-1.355-.397-.333-.918-.5-1.565-.5-.563 0-1.032.129-1.405.385a2.359 2.359 0 00-.845 1.075c-.187.457-.283.985-.29 1.585-.003.6.088 1.129.275 1.585.19.457.473.815.85 1.075.38.257.852.385 1.415.385.647 0 1.168-.166 1.565-.5.397-.337.672-.788.825-1.355l.75.195c-.197.72-.56 1.295-1.09 1.725-.53.427-1.213.64-2.05.64zm6.498 0c-.537 0-.995-.121-1.375-.365a2.375 2.375 0 01-.875-1.01c-.203-.43-.305-.923-.305-1.48 0-.566.104-1.063.31-1.49.207-.427.5-.758.88-.995.383-.24.838-.36 1.365-.36.54 0 1 .122 1.38.365a2.3 2.3 0 01.875 1.005c.204.427.305.918.305 1.475 0 .567-.101 1.065-.305 1.495-.203.427-.496.76-.88 1-.383.24-.841.36-1.375.36zm0-.705c.6 0 1.047-.198 1.34-.595.294-.4.44-.918.44-1.555 0-.653-.148-1.173-.445-1.56-.293-.386-.738-.58-1.335-.58-.403 0-.736.092-1 .275a1.63 1.63 0 00-.585.755c-.127.32-.19.69-.19 1.11 0 .65.15 1.172.45 1.565.3.39.742.585 1.325.585zm10.103.555l.005-3.545c0-.416-.116-.743-.35-.98-.23-.24-.523-.36-.88-.36-.203 0-.401.047-.595.14a1.147 1.147 0 00-.48.45c-.123.207-.185.477-.185.81l-.435-.125a1.96 1.96 0 01.225-1.015c.163-.29.387-.515.67-.675.287-.163.61-.245.97-.245.544 0 .978.169 1.305.505.327.334.49.785.49 1.355l-.005 3.685h-.735zm-6.445 0v-5.4h.66v1.33h.08v4.07h-.74zm3.23 0l.005-3.495c0-.43-.115-.768-.345-1.015-.227-.25-.527-.375-.9-.375s-.675.129-.905.385c-.23.254-.345.592-.345 1.015l-.44-.24c0-.347.082-.656.245-.93.164-.276.387-.493.67-.65.284-.16.605-.24.965-.24.343 0 .648.074.915.22.27.147.482.36.635.64.153.28.23.62.23 1.02l-.005 3.665h-.725zm7.677.15c-.497 0-.917-.125-1.26-.375a2.353 2.353 0 01-.78-1.025 3.824 3.824 0 01-.265-1.455c0-.546.088-1.033.265-1.46.18-.43.443-.768.79-1.015.346-.246.773-.37 1.28-.37.493 0 .916.125 1.27.375.353.25.623.59.81 1.02.19.43.285.913.285 1.45 0 .54-.095 1.025-.285 1.455-.19.43-.464.772-.82 1.025-.357.25-.787.375-1.29.375zm-2.43 2.25v-7.8h.66v4.065h.08v3.735h-.74zm2.355-2.935c.376 0 .69-.095.94-.285a1.7 1.7 0 00.56-.775c.126-.33.19-.7.19-1.11 0-.406-.062-.773-.185-1.1a1.685 1.685 0 00-.565-.775c-.25-.19-.569-.285-.955-.285-.377 0-.69.092-.94.275a1.651 1.651 0 00-.555.765 3.131 3.131 0 00-.185 1.12c0 .417.061.79.185 1.12.123.327.31.584.56.77.25.187.566.28.95.28zm5.113.685c-.407 0-.749-.073-1.025-.22a1.493 1.493 0 01-.615-.585 1.596 1.596 0 01-.205-.795c0-.293.058-.543.175-.75.12-.21.281-.382.485-.515.206-.133.445-.235.715-.305.273-.067.575-.125.905-.175.333-.053.658-.098.975-.135.32-.04.6-.078.84-.115l-.26.16c.01-.533-.094-.928-.31-1.185-.217-.257-.594-.385-1.13-.385-.37 0-.684.084-.94.25-.254.167-.432.43-.535.79l-.715-.21c.123-.483.371-.858.745-1.125.373-.267.858-.4 1.455-.4.493 0 .911.094 1.255.28.346.183.591.45.735.8.066.157.11.332.13.525.02.194.03.39.03.59v3.355h-.655v-1.355l.19.08a2.14 2.14 0 01-.855 1.06c-.387.243-.85.365-1.39.365zm.085-.635c.343 0 .643-.061.9-.185a1.629 1.629 0 00.925-1.235c.04-.173.061-.363.065-.57.003-.21.005-.367.005-.47l.28.145c-.25.034-.522.067-.815.1-.29.033-.577.072-.86.115-.28.043-.534.095-.76.155a2.059 2.059 0 00-.445.185c-.144.077-.262.18-.355.31a.832.832 0 00-.135.485.97.97 0 00.115.455c.08.147.206.268.38.365.176.097.41.145.7.145zm3.926.485v-5.4h.66v1.3l-.13-.17a1.857 1.857 0 01.55-.775c.14-.123.304-.216.49-.28.187-.067.375-.105.565-.115.19-.013.364 0 .52.04v.69a1.782 1.782 0 00-.645-.035c-.233.027-.448.12-.645.28-.18.14-.315.308-.405.505-.09.194-.15.4-.18.62-.03.217-.045.432-.045.645v2.695h-.735zm5.791.15c-.526 0-.983-.117-1.37-.35a2.376 2.376 0 01-.895-.985c-.213-.423-.32-.92-.32-1.49 0-.59.105-1.1.315-1.53.21-.43.505-.761.885-.995.383-.233.835-.35 1.355-.35.534 0 .989.124 1.365.37.377.243.662.593.855 1.05.194.457.282 1.002.265 1.635h-.75v-.26c-.013-.7-.165-1.228-.455-1.585-.287-.357-.706-.535-1.26-.535-.58 0-1.025.189-1.335.565-.306.377-.46.913-.46 1.61 0 .68.154 1.208.46 1.585.31.373.748.56 1.315.56a1.88 1.88 0 001.01-.265c.29-.18.519-.438.685-.775l.685.265c-.213.47-.528.835-.945 1.095a2.609 2.609 0 01-1.405.385zm-2.065-2.645v-.615h4.125v.615h-4.125zm7.725 2.645c-.503 0-.933-.125-1.29-.375a2.432 2.432 0 01-.82-1.025 3.564 3.564 0 01-.285-1.455 3.6 3.6 0 01.28-1.45c.19-.43.462-.77.815-1.02.353-.25.776-.375 1.27-.375.506 0 .933.124 1.28.37.347.247.608.585.785 1.015.18.427.27.913.27 1.46 0 .537-.088 1.022-.265 1.455-.177.43-.437.772-.78 1.025-.344.25-.764.375-1.26.375zm.075-.685c.383 0 .7-.093.95-.28.25-.186.436-.443.56-.77.123-.33.185-.703.185-1.12 0-.423-.062-.796-.185-1.12a1.636 1.636 0 00-.56-.765c-.247-.183-.559-.275-.935-.275-.387 0-.707.095-.96.285-.254.19-.442.449-.565.775-.12.327-.18.694-.18 1.1 0 .41.061.78.185 1.11.127.327.315.585.565.775.25.19.563.285.94.285zm1.695.535v-4.065h-.08v-3.135h.74v7.2h-.66zm7.005 0a3.601 3.601 0 01-.9.075 1.999 1.999 0 01-.79-.19 1.14 1.14 0 01-.526-.53c-.096-.2-.15-.401-.16-.605a22.01 22.01 0 01-.01-.705v-4.945h.73v4.915c0 .227.002.417.005.57.007.15.042.284.105.4a.75.75 0 00.57.4c.264.043.589.034.975-.03v.645zm-3.54-4.77v-.63h3.54v.63h-3.54zm6.663 4.92c-.537 0-.995-.121-1.375-.365a2.375 2.375 0 01-.875-1.01c-.203-.43-.305-.923-.305-1.48 0-.566.103-1.063.31-1.49.207-.427.5-.758.88-.995.383-.24.838-.36 1.365-.36.54 0 1 .122 1.38.365a2.3 2.3 0 01.875 1.005c.203.427.305.918.305 1.475 0 .567-.102 1.065-.305 1.495-.203.427-.497.76-.88 1s-.842.36-1.375.36zm0-.705c.6 0 1.047-.198 1.34-.595.293-.4.44-.918.44-1.555 0-.653-.148-1.173-.445-1.56-.293-.386-.738-.58-1.335-.58-.403 0-.737.092-1 .275a1.63 1.63 0 00-.585.755c-.127.32-.19.69-.19 1.11 0 .65.15 1.172.45 1.565.3.39.742.585 1.325.585zm7.565 1.54v-1.14h.735v1.14h-.735zm0-8.035v-1.145h.735v1.145h-.735zm.455 7.2c-.477 0-.907-.085-1.29-.255a2.51 2.51 0 01-.945-.72 2.43 2.43 0 01-.485-1.1l.715-.125c.11.46.347.825.71 1.095.367.267.808.4 1.325.4.523 0 .947-.127 1.27-.38.323-.257.485-.592.485-1.005 0-.306-.09-.552-.27-.735-.18-.183-.485-.34-.915-.47l-1.6-.5c-.967-.303-1.45-.876-1.45-1.72 0-.393.097-.738.29-1.035.197-.3.468-.533.815-.7.35-.166.758-.248 1.225-.245.457 0 .865.087 1.225.26.363.17.662.412.895.725.233.314.388.685.465 1.115l-.735.14a1.782 1.782 0 00-.325-.805 1.684 1.684 0 00-.645-.535 2.008 2.008 0 00-.88-.2c-.307 0-.58.053-.82.16-.24.107-.43.255-.57.445a1.063 1.063 0 00-.205.645c0 .267.095.493.285.68.193.183.498.338.915.465l1.375.415c.58.174.998.407 1.255.7.257.293.385.685.385 1.175 0 .424-.103.793-.31 1.11a2.06 2.06 0 01-.875.74c-.373.174-.812.26-1.315.26zm3.334-.155l.005-.67 3.255-2.94c.28-.253.465-.493.555-.72.093-.23.14-.47.14-.72a1.568 1.568 0 00-.775-1.375 1.504 1.504 0 00-.795-.215c-.307 0-.58.073-.82.22-.24.147-.43.34-.57.58-.137.24-.204.502-.2.785h-.75c0-.437.103-.828.31-1.175.206-.346.486-.618.84-.815.353-.2.753-.3 1.2-.3.436 0 .828.103 1.175.31.35.203.625.48.825.83.203.347.305.733.305 1.16 0 .3-.037.565-.11.795-.07.227-.182.439-.335.635-.15.194-.342.393-.575.6l-2.89 2.61-.115-.3h4.025v.705h-4.7zm8.098.155c-.45 0-.849-.09-1.195-.27a2.034 2.034 0 01-.81-.755c-.194-.326-.29-.708-.29-1.145 0-.447.108-.843.325-1.19.216-.35.546-.615.99-.795l-.01.29a1.624 1.624 0 01-.845-.67 1.908 1.908 0 01-.29-1.03c0-.4.091-.743.275-1.03.183-.29.433-.513.75-.67a2.47 2.47 0 011.1-.235c.413 0 .78.079 1.1.235.32.157.572.38.755.67.183.287.275.63.275 1.03 0 .377-.094.718-.28 1.025-.183.307-.465.532-.845.675l-.025-.29c.443.177.775.44.995.79.223.35.335.748.335 1.195 0 .437-.098.819-.295 1.145a2.026 2.026 0 01-.815.755 2.57 2.57 0 01-1.2.27zm0-.705c.453 0 .822-.125 1.105-.375.283-.253.425-.617.425-1.09 0-.48-.14-.843-.42-1.09-.28-.25-.65-.375-1.11-.375-.46 0-.829.125-1.105.375-.277.247-.415.61-.415 1.09 0 .474.14.837.42 1.09.28.25.647.375 1.1.375zm0-3.64c.4 0 .725-.102.975-.305.25-.206.375-.511.375-.915 0-.403-.125-.705-.375-.905-.25-.203-.575-.305-.975-.305s-.725.102-.975.305c-.247.2-.37.502-.37.905s.123.709.37.915c.25.204.575.305.975.305zm3.506 5.24l.045-.365c.133.01.23-.017.29-.08a.438.438 0 00.11-.255c.013-.106.016-.221.01-.345h-.455v-1.055h.855v1.255c0 .307-.079.537-.235.69-.154.154-.36.205-.62.155zm5.106-.895a2.35 2.35 0 01-1.2-.31 2.308 2.308 0 01-.84-.84 2.35 2.35 0 01-.31-1.2v-2.8a2.323 2.323 0 011.15-2.04 2.35 2.35 0 011.2-.31c.443 0 .841.103 1.195.31a2.32 2.32 0 011.155 2.04v2.8c0 .444-.103.843-.31 1.2a2.324 2.324 0 01-2.04 1.15zm0-.71c.296 0 .567-.072.81-.215.243-.147.437-.342.58-.585a1.56 1.56 0 00.215-.805v-2.87a1.57 1.57 0 00-.215-.81 1.61 1.61 0 00-.58-.58 1.538 1.538 0 00-.81-.22c-.297 0-.567.073-.81.22a1.612 1.612 0 00-.58.58 1.566 1.566 0 00-.215.81v2.87c0 .293.072.562.215.805.143.243.337.439.58.585.243.144.513.215.81.215zm6.103.71c-.443 0-.843-.103-1.2-.31a2.312 2.312 0 01-.84-.84 2.356 2.356 0 01-.31-1.2v-2.8a2.329 2.329 0 011.15-2.04 2.35 2.35 0 011.2-.31 2.32 2.32 0 012.04 1.155c.207.353.31.752.31 1.195v2.8a2.288 2.288 0 01-1.155 2.04 2.32 2.32 0 01-1.195.31zm0-.71c.297 0 .567-.072.81-.215a1.65 1.65 0 00.58-.585 1.55 1.55 0 00.215-.805v-2.87a1.604 1.604 0 00-.795-1.39 1.537 1.537 0 00-.81-.22 1.62 1.62 0 00-1.39.8 1.57 1.57 0 00-.215.81v2.87c0 .293.072.562.215.805.144.243.337.439.58.585.244.144.514.215.81.215zm6.104.71c-.443 0-.843-.103-1.2-.31a2.312 2.312 0 01-.84-.84 2.346 2.346 0 01-.31-1.2v-2.8a2.32 2.32 0 011.15-2.04 2.35 2.35 0 011.2-.31c.443 0 .842.103 1.195.31a2.32 2.32 0 011.155 2.04v2.8c0 .444-.103.843-.31 1.2a2.323 2.323 0 01-2.04 1.15zm0-.71c.297 0 .567-.072.81-.215.243-.147.437-.342.58-.585a1.56 1.56 0 00.215-.805v-2.87a1.57 1.57 0 00-.215-.81 1.612 1.612 0 00-.58-.58 1.537 1.537 0 00-.81-.22c-.297 0-.567.073-.81.22a1.612 1.612 0 00-.58.58 1.57 1.57 0 00-.215.81v2.87c0 .293.072.562.215.805.143.243.337.439.58.585.243.144.513.215.81.215zm5.855.56v-7.2h.735v6.495h3.42v.705h-4.155zm6.553.15c-.407 0-.749-.073-1.025-.22a1.484 1.484 0 01-.615-.585 1.593 1.593 0 01-.205-.795 1.5 1.5 0 01.175-.75c.12-.21.281-.382.485-.515.206-.133.445-.235.715-.305.273-.067.575-.125.905-.175.333-.053.658-.098.975-.135.32-.04.6-.078.84-.115l-.26.16c.01-.533-.094-.928-.31-1.185-.217-.257-.594-.385-1.13-.385-.37 0-.684.084-.94.25-.254.167-.432.43-.535.79l-.715-.21c.123-.483.371-.858.745-1.125.373-.267.858-.4 1.455-.4.493 0 .911.094 1.255.28.346.183.591.45.735.8.066.157.11.332.13.525.02.194.03.39.03.59v3.355h-.655v-1.355l.19.08c-.184.463-.469.817-.855 1.06-.387.243-.85.365-1.39.365zm.085-.635c.343 0 .643-.061.9-.185a1.626 1.626 0 00.925-1.235c.04-.173.061-.363.065-.57.003-.21.005-.367.005-.47l.28.145c-.25.034-.522.067-.815.1-.29.033-.577.072-.86.115-.28.043-.534.095-.76.155a2.038 2.038 0 00-.445.185c-.144.077-.262.18-.355.31a.832.832 0 00-.135.485c0 .157.038.308.115.455.08.147.206.268.38.365.176.097.41.145.7.145zm5.941.63c-.633 0-1.155-.137-1.565-.41a1.714 1.714 0 01-.75-1.14l.75-.125c.08.307.262.552.545.735.287.18.64.27 1.06.27.41 0 .734-.085.97-.255a.828.828 0 00.355-.705.66.66 0 00-.115-.405c-.073-.106-.225-.205-.455-.295s-.573-.197-1.03-.32c-.49-.133-.873-.266-1.15-.4-.276-.133-.473-.286-.59-.46a1.15 1.15 0 01-.175-.645c0-.306.087-.575.26-.805.174-.233.414-.413.72-.54.307-.13.664-.195 1.07-.195.407 0 .77.067 1.09.2.324.13.584.314.78.55.197.237.314.512.35.825l-.75.135a1.08 1.08 0 00-.475-.75c-.263-.187-.598-.283-1.005-.29-.383-.01-.695.064-.935.22-.24.154-.36.359-.36.615a.56.56 0 00.13.37c.087.1.244.195.47.285.23.09.557.189.98.295.497.127.887.26 1.17.4.284.14.485.305.605.495s.18.425.18.705c0 .51-.19.912-.57 1.205-.376.29-.896.435-1.56.435zm6.179-.145a3.599 3.599 0 01-.9.075 2.003 2.003 0 01-.79-.19 1.14 1.14 0 01-.525-.53 1.57 1.57 0 01-.16-.605 24.2 24.2 0 01-.01-.705v-4.945h.73v4.915c0 .227.002.417.005.57.007.15.042.284.105.4a.75.75 0 00.57.4c.264.043.589.034.975-.03v.645zm-3.54-4.77v-.63h3.54v.63h-3.54zm8.321 4.77v-3.015l-2.415-4.185h.85l1.935 3.345 1.925-3.345h.85l-2.405 4.185v3.015h-.74zm5.326.15c-.527 0-.983-.117-1.37-.35a2.376 2.376 0 01-.895-.985c-.213-.423-.32-.92-.32-1.49 0-.59.105-1.1.315-1.53.21-.43.505-.761.885-.995.383-.233.835-.35 1.355-.35.533 0 .988.124 1.365.37.377.243.662.593.855 1.05.193.457.282 1.002.265 1.635h-.75v-.26c-.013-.7-.165-1.228-.455-1.585-.287-.357-.707-.535-1.26-.535-.58 0-1.025.189-1.335.565-.307.377-.46.913-.46 1.61 0 .68.153 1.208.46 1.585.31.373.748.56 1.315.56.387 0 .723-.088 1.01-.265.29-.18.518-.438.685-.775l.685.265c-.213.47-.528.835-.945 1.095a2.609 2.609 0 01-1.405.385zm-2.065-2.645v-.615h4.125v.615h-4.125zm7.077 2.645c-.407 0-.748-.073-1.025-.22a1.496 1.496 0 01-.615-.585 1.593 1.593 0 01-.205-.795 1.5 1.5 0 01.175-.75c.12-.21.282-.382.485-.515a2.45 2.45 0 01.715-.305c.273-.067.575-.125.905-.175.333-.053.658-.098.975-.135.32-.04.6-.078.84-.115l-.26.16c.01-.533-.093-.928-.31-1.185s-.593-.385-1.13-.385c-.37 0-.683.084-.94.25-.253.167-.432.43-.535.79l-.715-.21c.123-.483.372-.858.745-1.125s.858-.4 1.455-.4c.493 0 .912.094 1.255.28.347.183.592.45.735.8.067.157.11.332.13.525.02.194.03.39.03.59v3.355h-.655v-1.355l.19.08a2.137 2.137 0 01-.855 1.06c-.387.243-.85.365-1.39.365zm.085-.635c.343 0 .643-.061.9-.185a1.629 1.629 0 00.925-1.235c.04-.173.062-.363.065-.57.003-.21.005-.367.005-.47l.28.145c-.25.034-.522.067-.815.1-.29.033-.577.072-.86.115-.28.043-.533.095-.76.155a2.059 2.059 0 00-.445.185 1.03 1.03 0 00-.355.31.832.832 0 00-.135.485c0 .157.038.308.115.455.08.147.207.268.38.365.177.097.41.145.7.145zm3.927.485v-5.4h.66v1.3l-.13-.17a1.856 1.856 0 01.55-.775 1.42 1.42 0 01.49-.28c.186-.067.375-.105.565-.115.19-.013.363 0 .52.04v.69a1.783 1.783 0 00-.645-.035c-.234.027-.449.12-.645.28-.18.14-.315.308-.405.505-.09.194-.15.4-.18.62-.03.217-.045.432-.045.645v2.695h-.735z" fill="#718EBF"/></svg>