<svg width="243" height="164" fill="none" xmlns="http://www.w3.org/2000/svg"><rect y=".386" width="243" height="163.525" rx="10" fill="#fff"/><path d="M18.965 31.933V22.84h-3.521v-.987h8.07v.987h-3.52v9.093h-1.03zm7.708.21c-.751 0-1.393-.17-1.925-.51a3.325 3.325 0 01-1.225-1.415c-.285-.602-.427-1.293-.427-2.072 0-.793.145-1.489.434-2.086a3.29 3.29 0 011.232-1.393c.537-.336 1.174-.504 1.911-.504.756 0 1.4.17 1.932.511.537.336.945.805 1.225 1.407.285.597.427 1.286.427 2.065 0 .793-.142 1.491-.427 2.093a3.27 3.27 0 01-1.232 1.4c-.537.336-1.178.504-1.925.504zm0-.987c.84 0 1.466-.278 1.876-.833.41-.56.616-1.286.616-2.177 0-.915-.207-1.643-.623-2.184-.41-.541-1.034-.812-1.869-.812-.564 0-1.031.128-1.4.385a2.282 2.282 0 00-.819 1.057c-.177.448-.266.966-.266 1.554 0 .91.21 1.64.63 2.191.42.546 1.038.82 1.855.82zm9.244.777a5.035 5.035 0 01-1.26.105 2.796 2.796 0 01-1.106-.266 1.596 1.596 0 01-.735-.742 2.18 2.18 0 01-.224-.847c-.009-.29-.014-.618-.014-.987v-6.923H33.6v6.881c0 .317.003.583.007.798.01.21.059.397.147.56.168.313.434.5.798.56.369.06.824.047 1.365-.042v.903zm-4.956-6.678v-.882h4.956v.882h-4.956zm8.609 6.888c-.57 0-1.048-.103-1.435-.308a2.088 2.088 0 01-.861-.819 2.234 2.234 0 01-.287-1.113c0-.41.081-.76.245-1.05a2.08 2.08 0 01.679-.72 3.41 3.41 0 011-.428c.383-.093.806-.175 1.268-.245.466-.075.921-.138 1.365-.189.448-.056.84-.11 1.176-.16l-.364.223c.014-.747-.13-1.3-.434-1.659-.304-.36-.83-.539-1.582-.539-.518 0-.957.117-1.316.35-.355.233-.605.602-.75 1.106l-1-.294c.172-.677.52-1.202 1.043-1.575.522-.373 1.201-.56 2.037-.56.69 0 1.276.13 1.757.392.485.257.828.63 1.029 1.12.093.22.154.464.182.735.028.27.042.546.042.826v4.697h-.917v-1.897l.266.112c-.257.649-.656 1.143-1.197 1.484-.542.34-1.19.511-1.946.511zm.119-.889c.48 0 .9-.086 1.26-.259a2.28 2.28 0 00.868-.707c.22-.303.361-.644.427-1.022.056-.243.086-.509.09-.798.005-.294.008-.513.008-.658l.392.203c-.35.047-.73.093-1.141.14-.406.047-.808.1-1.204.161-.392.06-.747.133-1.064.217-.215.06-.423.147-.623.26-.2.106-.367.251-.497.433a1.165 1.165 0 00-.19.68c0 .218.054.43.162.636.112.205.29.376.532.511.247.135.574.203.98.203zm5.637.68v-10.29h1.03v10.29h-1.03zm5.93 0v-10.08h3.892c.565 0 1.057.116 1.477.35a2.53 2.53 0 011.33 2.246c0 .541-.144 1.024-.434 1.45-.289.42-.676.71-1.162.874l-.014-.343c.654.187 1.167.513 1.54.98.374.467.56 1.031.56 1.694 0 .583-.123 1.087-.37 1.512a2.51 2.51 0 01-1.044.973c-.448.229-.968.343-1.56.343h-4.215zm1.036-.988h2.926c.411 0 .78-.072 1.106-.217.327-.15.584-.36.77-.63.192-.27.287-.597.287-.98a1.957 1.957 0 00-.966-1.722 1.875 1.875 0 00-1.008-.273h-3.115v3.822zm0-4.795h2.85c.321 0 .615-.072.881-.217a1.68 1.68 0 00.868-1.498c0-.476-.165-.863-.497-1.162-.326-.299-.744-.448-1.253-.448h-2.849v3.325zm9.713 5.992c-.569 0-1.047-.103-1.435-.308a2.088 2.088 0 01-.86-.819 2.235 2.235 0 01-.288-1.113c0-.41.082-.76.245-1.05.168-.294.395-.534.68-.72a3.41 3.41 0 011-.428c.383-.093.805-.175 1.267-.245.467-.075.922-.138 1.365-.189.448-.056.84-.11 1.176-.16l-.364.223c.014-.747-.13-1.3-.434-1.659-.303-.36-.83-.539-1.582-.539-.518 0-.956.117-1.316.35-.354.233-.604.602-.749 1.106l-1-.294c.172-.677.52-1.202 1.042-1.575.523-.373 1.202-.56 2.037-.56.691 0 1.277.13 1.757.392.486.257.829.63 1.03 1.12.093.22.153.464.181.735.028.27.042.546.042.826v4.697h-.917v-1.897l.266.112c-.256.649-.655 1.143-1.197 1.484-.541.34-1.19.511-1.946.511zm.12-.889c.48 0 .9-.086 1.26-.259.359-.173.648-.408.867-.707a2.41 2.41 0 00.427-1.022c.056-.243.087-.509.091-.798.005-.294.007-.513.007-.658l.392.203c-.35.047-.73.093-1.14.14-.407.047-.808.1-1.205.161-.392.06-.746.133-1.064.217-.214.06-.422.147-.623.26a1.43 1.43 0 00-.497.433 1.165 1.165 0 00-.189.68c0 .218.054.43.161.636.112.205.29.376.532.511.248.135.574.203.98.203zm5.637.68v-10.29h1.029v10.29h-1.03zm5.29.21c-.57 0-1.048-.104-1.435-.309a2.088 2.088 0 01-.86-.819 2.234 2.234 0 01-.288-1.113c0-.41.082-.76.245-1.05.168-.294.395-.534.68-.72a3.41 3.41 0 011-.428c.383-.093.805-.175 1.267-.245.467-.075.922-.138 1.365-.189.448-.056.84-.11 1.176-.16l-.364.223c.014-.747-.13-1.3-.434-1.659-.303-.36-.83-.539-1.582-.539-.518 0-.957.117-1.316.35-.355.233-.604.602-.749 1.106l-1-.294c.172-.677.52-1.202 1.042-1.575.523-.373 1.202-.56 2.037-.56.69 0 1.276.13 1.757.392.486.257.828.63 1.03 1.12.093.22.153.464.181.735.028.27.042.546.042.826v4.697h-.917v-1.897l.266.112c-.256.649-.655 1.143-1.197 1.484-.541.34-1.19.511-1.946.511zm.12-.89c.48 0 .9-.086 1.26-.259a2.28 2.28 0 00.867-.707 2.41 2.41 0 00.427-1.022c.056-.243.087-.509.091-.798.005-.294.007-.513.007-.658l.392.203c-.35.047-.73.093-1.14.14-.407.047-.808.1-1.205.161-.392.06-.746.133-1.064.217-.215.06-.422.147-.623.26a1.43 1.43 0 00-.497.433 1.165 1.165 0 00-.189.68c0 .218.054.43.161.636.112.205.29.376.532.511.248.135.574.203.98.203zm10.957.68v-3.858c0-.42-.04-.805-.12-1.155a2.665 2.665 0 00-.385-.924 1.76 1.76 0 00-.678-.616c-.276-.145-.612-.217-1.008-.217a2.31 2.31 0 00-.966.19 1.902 1.902 0 00-.7.545 2.445 2.445 0 00-.428.854 4.104 4.104 0 00-.146 1.148l-.728-.16c0-.776.135-1.427.406-1.954.27-.527.643-.926 1.12-1.197.476-.27 1.022-.406 1.638-.406.452 0 .847.07 1.183.21.34.14.627.33.86.567.238.238.43.511.574.82.145.302.25.627.316.972.065.34.098.681.098 1.022v4.158h-1.037zm-5.468 0v-7.56h.931v1.861h.106v5.698h-1.036zm11.415.21c-.76 0-1.405-.171-1.932-.512a3.256 3.256 0 01-1.204-1.407c-.27-.602-.41-1.293-.42-2.072.01-.793.154-1.489.434-2.086a3.203 3.203 0 011.211-1.4c.527-.336 1.167-.504 1.918-.504.765 0 1.43.187 1.995.56.57.373.959.884 1.169 1.533l-1.008.322a2.13 2.13 0 00-.847-1.05 2.338 2.338 0 00-1.316-.378c-.555 0-1.015.128-1.379.385a2.24 2.24 0 00-.812 1.057c-.177.453-.268.973-.273 1.561.01.905.22 1.633.63 2.184.41.546 1.022.82 1.834.82.513 0 .95-.118 1.309-.35.364-.239.64-.584.826-1.037l1.036.308c-.28.672-.69 1.185-1.232 1.54-.541.35-1.188.525-1.939.525zm7.61 0c-.738 0-1.377-.164-1.918-.49a3.326 3.326 0 01-1.253-1.38c-.299-.593-.448-1.288-.448-2.086 0-.826.147-1.54.44-2.142a3.278 3.278 0 011.24-1.393c.537-.327 1.169-.49 1.897-.49.746 0 1.383.173 1.91.518.528.34.927.83 1.198 1.47.271.64.394 1.402.371 2.29h-1.05v-.365c-.019-.98-.231-1.72-.637-2.219-.402-.5-.99-.749-1.764-.749-.812 0-1.435.264-1.87.791-.428.527-.643 1.279-.643 2.254 0 .952.215 1.692.644 2.22.434.522 1.047.783 1.84.783.542 0 1.013-.124 1.415-.37a2.61 2.61 0 00.959-1.086l.959.371a3.432 3.432 0 01-1.323 1.533c-.579.36-1.235.54-1.967.54zm-2.891-3.704v-.86h5.775v.86h-5.775zM20.136 59.86v-1.897h1.928v1.896h-1.928zm0-12.8v-1.897h1.928v1.896h-1.928zm1.008 11.447c-.81 0-1.536-.15-2.176-.448a4.126 4.126 0 01-1.576-1.264c-.405-.544-.664-1.19-.776-1.936l1.904-.304c.15.656.47 1.179.96 1.568.496.384 1.088.576 1.776.576.661 0 1.205-.155 1.632-.464.427-.315.64-.712.64-1.192 0-.336-.101-.608-.304-.816-.203-.213-.528-.39-.976-.528l-2.776-.864c-1.616-.501-2.424-1.483-2.424-2.944 0-.683.163-1.277.488-1.784a3.18 3.18 0 011.392-1.176c.597-.277 1.301-.413 2.112-.408.752.005 1.421.141 2.008.408.592.267 1.083.65 1.472 1.152.395.501.675 1.104.84 1.808l-1.976.36a2.394 2.394 0 00-.44-1 2.249 2.249 0 00-.824-.672 2.667 2.667 0 00-1.104-.256 2.624 2.624 0 00-1.048.184c-.31.123-.555.299-.736.528a1.176 1.176 0 00-.272.76c0 .315.125.584.376.808.256.224.659.416 1.208.576l2.072.6c.997.288 1.715.68 2.152 1.176.443.49.664 1.144.664 1.96 0 .715-.179 1.341-.536 1.88-.357.539-.859.96-1.504 1.264-.645.299-1.395.448-2.248.448zm10.807-.24v-1.904h-5.104v-1.8l3.688-7.816h2.2l-3.688 7.816h2.904v-3h1.952v3h1.08v1.8h-1.08v1.904H31.95zm4.478 2.04l.112-.832c.245.021.44-.021.584-.128a.733.733 0 00.288-.44c.053-.187.066-.4.04-.64h-1.024v-2.056h1.976v2.136c0 .699-.166 1.227-.496 1.584-.33.357-.824.483-1.48.376zm4.7-2.056v-1.68l4.927-4.392c.384-.341.65-.664.8-.968.15-.304.224-.597.224-.88 0-.384-.082-.725-.248-1.024a1.86 1.86 0 00-.688-.72 1.879 1.879 0 00-1-.264c-.4 0-.755.093-1.064.28a1.943 1.943 0 00-.712.728 1.86 1.86 0 00-.24.984h-1.984c0-.768.17-1.437.512-2.008a3.561 3.561 0 011.424-1.328c.608-.315 1.31-.472 2.104-.472.736 0 1.398.165 1.984.496a3.57 3.57 0 011.384 1.36c.336.576.504 1.24.504 1.992 0 .55-.075 1.01-.224 1.384-.15.373-.373.717-.672 1.032a15.15 15.15 0 01-1.096 1.048l-3.496 3.096-.176-.48h5.664v1.816h-7.928zm13.994.256c-.816 0-1.536-.173-2.16-.52a3.787 3.787 0 01-1.464-1.464c-.346-.624-.52-1.344-.52-2.16v-3.712c0-.816.174-1.536.52-2.16.352-.624.84-1.11 1.464-1.456.624-.352 1.344-.528 2.16-.528.816 0 1.534.176 2.152.528a3.731 3.731 0 011.464 1.456c.352.624.528 1.344.528 2.16v3.712c0 .816-.176 1.536-.528 2.16a3.787 3.787 0 01-1.464 1.464c-.618.347-1.336.52-2.152.52zm0-1.832c.406 0 .774-.096 1.104-.288.331-.197.592-.459.784-.784.192-.33.288-.699.288-1.104v-3.992c0-.41-.096-.779-.288-1.104a2.127 2.127 0 00-.784-.784 2.114 2.114 0 00-1.104-.296c-.405 0-.773.099-1.104.296-.33.192-.592.453-.784.784a2.13 2.13 0 00-.288 1.104V54.5c0 .405.096.773.288 1.104.192.325.454.587.784.784a2.16 2.16 0 001.104.288zm10.532 1.832c-.816 0-1.536-.173-2.16-.52a3.787 3.787 0 01-1.464-1.464c-.347-.624-.52-1.344-.52-2.16v-3.712c0-.816.173-1.536.52-2.16.352-.624.84-1.11 1.464-1.456.624-.352 1.344-.528 2.16-.528.816 0 1.533.176 2.152.528a3.731 3.731 0 011.464 1.456c.352.624.528 1.344.528 2.16v3.712c0 .816-.176 1.536-.528 2.16a3.787 3.787 0 01-1.464 1.464c-.619.347-1.336.52-2.152.52zm0-1.832a2.16 2.16 0 001.104-.288c.33-.197.592-.459.784-.784.192-.33.288-.699.288-1.104v-3.992c0-.41-.096-.779-.288-1.104a2.126 2.126 0 00-.784-.784 2.113 2.113 0 00-1.104-.296c-.406 0-.774.099-1.104.296a2.121 2.121 0 00-.784.784 2.13 2.13 0 00-.288 1.104V54.5c0 .405.096.773.288 1.104.192.325.453.587.784.784.33.192.698.288 1.104.288z" fill="#000"/><path d="M80.435 49.027v1.326h-2.197v2.197h-1.326v-2.197h-2.197v-1.326h2.197V46.83h1.326v2.197h2.197zm3.273-3.887h1.3v9.1h-1.495v-7.5l-1.833.52-.364-1.275 2.392-.845zm9.595 6.071v1.391h-1.04v1.638h-1.508v-1.638h-4.472v-1.39l3.133-6.072h1.625l-3.133 6.071h2.847v-2.366h1.508v2.366h1.04zm3.865-2.678c-.399.399-.901.598-1.508.598s-1.114-.2-1.521-.598a2.018 2.018 0 01-.611-1.482c0-.58.204-1.07.61-1.469.408-.407.915-.61 1.522-.61s1.11.199 1.508.597c.407.399.61.893.61 1.482 0 .58-.203 1.075-.61 1.482zm-1.521-.546a.891.891 0 00.676-.273.926.926 0 00.26-.663.942.942 0 00-.26-.676.891.891 0 00-.676-.273.876.876 0 00-.663.273.943.943 0 00-.26.676c0 .26.087.481.26.663a.876.876 0 00.663.273zm-1.352 4.914l5.993-6.669.702.403-5.993 6.682-.702-.416zm5.525 1.495c-.607 0-1.114-.2-1.521-.598a2.018 2.018 0 01-.611-1.482c0-.58.204-1.07.61-1.469.408-.407.915-.61 1.522-.61.598 0 1.101.203 1.508.61.407.399.611.889.611 1.47a2.02 2.02 0 01-.611 1.481c-.407.399-.91.598-1.508.598zm-.013-1.144a.891.891 0 00.676-.273.927.927 0 00.26-.663.944.944 0 00-.26-.676.891.891 0 00-.676-.273.876.876 0 00-.663.273.943.943 0 00-.26.676c0 .26.087.481.26.663a.876.876 0 00.663.273z" fill="#00E1F0"/><path d="M16.443 70.895h.8v5.6h-.92v-4.616l-1.128.32-.224-.784 1.472-.52zm5.537 4.912c-.384.528-.923.792-1.616.792-.694 0-1.235-.264-1.624-.792-.384-.528-.576-1.232-.576-2.112 0-.88.192-1.584.576-2.112.39-.528.93-.792 1.624-.792.693 0 1.232.264 1.616.792.39.528.584 1.232.584 2.112 0 .88-.195 1.584-.584 2.112zm-1.616-.104c.416 0 .733-.174.952-.52.218-.347.328-.843.328-1.488s-.11-1.141-.328-1.488a1.058 1.058 0 00-.952-.52c-.41 0-.728.173-.952.52-.219.347-.328.843-.328 1.488s.11 1.141.328 1.488c.224.346.541.52.952.52zm6.559.792H25.89l-1.64-1.848v1.848h-.864v-5.6h.864v3.368l1.552-1.768h1.056l-1.76 1.96 1.824 2.04zm-4.177 16.63v.856h-.64v1.008h-.928V93.98h-2.752v-.856l1.928-3.736h1l-1.928 3.736h1.752v-1.456h.928v1.456h.64zm4.177 1.864H25.89l-1.64-1.848v1.848h-.864v-5.6h.864v3.368l1.552-1.768h1.056l-1.76 1.96 1.824 2.04zm-8.027 18.494v-.72l1.952-1.992c.475-.475.712-.886.712-1.232 0-.272-.082-.483-.248-.632a.848.848 0 00-.616-.232c-.469 0-.816.232-1.04.696l-.776-.456a1.9 1.9 0 01.744-.848 2.03 2.03 0 011.064-.288c.491 0 .912.154 1.264.464.352.309.528.73.528 1.264 0 .57-.317 1.178-.952 1.824l-1.264 1.264h2.32v.888h-3.688zm8.027 0H25.89l-1.64-1.848v1.848h-.864v-5.6h.864v3.368l1.552-1.768h1.056l-1.76 1.96 1.824 2.04zm-.826 18.779c-.384.528-.923.792-1.616.792-.693 0-1.235-.264-1.624-.792-.384-.528-.576-1.232-.576-2.112 0-.88.192-1.584.576-2.112.39-.528.93-.792 1.624-.792.693 0 1.232.264 1.616.792.39.528.584 1.232.584 2.112 0 .88-.195 1.584-.584 2.112zm-1.616-.104c.416 0 .733-.173.952-.52.219-.347.328-.843.328-1.488s-.11-1.141-.328-1.488a1.058 1.058 0 00-.952-.52c-.41 0-.728.173-.952.52-.219.347-.328.843-.328 1.488s.11 1.141.328 1.488c.224.347.541.52.952.52zM45.6 144.734c-.539 0-.998-.122-1.376-.368a1.937 1.937 0 01-.784-1.008l.792-.464c.224.63.688.944 1.392.944.346 0 .605-.066.776-.2a.65.65 0 00.264-.536.577.577 0 00-.28-.52c-.187-.122-.518-.256-.992-.4a6.545 6.545 0 01-.648-.224 3.234 3.234 0 01-.528-.288 1.23 1.23 0 01-.408-.472 1.482 1.482 0 01-.136-.656c0-.496.176-.888.528-1.176.352-.293.776-.44 1.272-.44.448 0 .84.11 1.176.328.336.219.594.52.776.904l-.776.448c-.235-.522-.627-.784-1.176-.784-.267 0-.48.064-.64.192a.601.601 0 00-.24.504c0 .208.08.374.24.496.165.118.461.243.888.376.213.07.368.123.464.16.101.032.24.086.416.16.181.075.317.15.408.224.09.075.186.168.288.28.106.112.181.24.224.384.042.144.064.307.064.488 0 .507-.184.91-.552 1.208-.363.294-.84.44-1.432.44z" fill="#718EBF"/><path d="M35 126.03a3 3 0 013-3h14a3 3 0 013 3v8.68H35v-8.68z" fill="#E8F2FF"/><path d="M72.182 139.03v5.6h-.92v-3.992l-1.704 2.816h-.112l-1.704-2.824v4h-.92v-5.6h.992l1.688 2.8 1.696-2.8h.984z" fill="#718EBF"/><path d="M59 120.19a3 3 0 013-3h14a3 3 0 013 3v14.52H59v-14.52z" fill="#E8F2FF"/><path d="M95.54 139.03v.88h-1.576v4.72h-.92v-4.72H91.46v-.88h4.08z" fill="#718EBF"/><path d="M83 96.83a3 3 0 013-3h14a3 3 0 013 3v37.88H83V96.83z" fill="#E8F2FF"/><path d="M114.748 144.63l-1.584-5.6h.968l1.176 4.376 1.272-4.376h.848l1.264 4.376 1.176-4.376h.968l-1.584 5.6h-1.064l-1.184-4.088-1.192 4.088h-1.064z" fill="#718EBF"/><path d="M107 107.536a3 3 0 013-3h14a3 3 0 013 3v27.174h-20v-27.174z" fill="#3734A9"/><path d="M143.54 139.03v.88h-1.576v4.72h-.92v-4.72h-1.584v-.88h4.08z" fill="#718EBF"/><path d="M131 80.282a3 3 0 013-3h14a3 3 0 013 3v54.428h-20V80.282z" fill="#3734A9"/><path d="M168.27 139.91h-2.36v1.568h2.28v.88h-2.28v2.272h-.92v-5.6h3.28v.88z" fill="#718EBF"/><path d="M155 126.03a3 3 0 013-3h14a3 3 0 013 3v8.68h-20v-8.68z" fill="#E8F2FF"/><path d="M189.6 144.734c-.539 0-.998-.122-1.376-.368a1.933 1.933 0 01-.784-1.008l.792-.464c.224.63.688.944 1.392.944.346 0 .605-.066.776-.2a.65.65 0 00.264-.536.578.578 0 00-.28-.52c-.187-.122-.518-.256-.992-.4a6.49 6.49 0 01-.648-.224 3.185 3.185 0 01-.528-.288 1.22 1.22 0 01-.408-.472 1.478 1.478 0 01-.136-.656c0-.496.176-.888.528-1.176.352-.293.776-.44 1.272-.44.448 0 .84.11 1.176.328.336.219.594.52.776.904l-.776.448c-.235-.522-.627-.784-1.176-.784-.267 0-.48.064-.64.192a.601.601 0 00-.24.504c0 .208.08.374.24.496.165.118.461.243.888.376.213.07.368.123.464.16.101.032.24.086.416.16.181.075.317.15.408.224.09.075.186.168.288.28.106.112.181.24.224.384.042.144.064.307.064.488 0 .507-.184.91-.552 1.208-.363.294-.84.44-1.432.44z" fill="#718EBF"/><path d="M179 107.536a3 3 0 013-3h14a3 3 0 013 3v27.174h-20v-27.174z" fill="#3734A9"/><path d="M214.6 144.734c-.539 0-.998-.122-1.376-.368a1.933 1.933 0 01-.784-1.008l.792-.464c.224.63.688.944 1.392.944.346 0 .605-.066.776-.2a.65.65 0 00.264-.536.578.578 0 00-.28-.52c-.187-.122-.518-.256-.992-.4a6.49 6.49 0 01-.648-.224 3.185 3.185 0 01-.528-.288 1.22 1.22 0 01-.408-.472 1.478 1.478 0 01-.136-.656c0-.496.176-.888.528-1.176.352-.293.776-.44 1.272-.44.448 0 .84.11 1.176.328.336.219.594.52.776.904l-.776.448c-.235-.522-.627-.784-1.176-.784-.267 0-.48.064-.64.192a.601.601 0 00-.24.504c0 .208.08.374.24.496.165.118.461.243.888.376.213.07.368.123.464.16.101.032.24.086.416.16.181.075.317.15.408.224.09.075.186.168.288.28.106.112.181.24.224.384.042.144.064.307.064.488 0 .507-.184.91-.552 1.208-.363.294-.84.44-1.432.44z" fill="#718EBF"/><path d="M203 92.936a3 3 0 013-3h14a3 3 0 013 3v41.774h-20V92.935z" fill="#3734A9"/></svg>