<svg width="35" height="34" viewBox="0 0 35 34" fill="none" xmlns="http://www.w3.org/2000/svg">
<circle cx="17.5196" cy="16.9569" r="16.7401" fill="#BE1111"/>
<path d="M17.5196 8.72264C20.2015 8.72264 20.5192 8.73288 21.5783 8.78121C22.5576 8.82586 23.0894 8.98949 23.4433 9.12704C23.9122 9.30924 24.2467 9.52689 24.5982 9.87835C24.9497 10.2298 25.1673 10.5644 25.3495 11.0333C25.4871 11.3872 25.6507 11.919 25.6954 12.8983C25.7437 13.9574 25.7539 14.2751 25.7539 16.9569C25.7539 19.6388 25.7437 19.9565 25.6954 21.0156C25.6507 21.9949 25.4871 22.5267 25.3495 22.8806C25.1673 23.3495 24.9497 23.6841 24.5982 24.0355C24.2467 24.387 23.9122 24.6047 23.4433 24.7869C23.0894 24.9244 22.5576 25.088 21.5783 25.1327C20.5193 25.181 20.2017 25.1913 17.5196 25.1913C14.8375 25.1913 14.5199 25.181 13.4609 25.1327C12.4816 25.088 11.9498 24.9244 11.5959 24.7869C11.1271 24.6047 10.7925 24.387 10.441 24.0355C10.0896 23.6841 9.87187 23.3495 9.68967 22.8806C9.55212 22.5267 9.38849 21.9949 9.34384 21.0156C9.29551 19.9565 9.28527 19.6388 9.28527 16.9569C9.28527 14.2751 9.29551 13.9574 9.34384 12.8983C9.38849 11.919 9.55212 11.3872 9.68967 11.0333C9.87187 10.5644 10.0895 10.2298 10.441 9.87839C10.7925 9.52689 11.1271 9.30924 11.5959 9.12704C11.9498 8.98949 12.4816 8.82586 13.4609 8.78121C14.52 8.73288 14.8377 8.72264 17.5196 8.72264ZM17.5196 6.9129C14.7918 6.9129 14.4498 6.92447 13.3784 6.97335C12.3094 7.02211 11.5792 7.19191 10.9404 7.44018C10.2799 7.69686 9.71973 8.0403 9.16131 8.59868C8.60293 9.1571 8.25949 9.71723 8.00285 10.3777C7.75454 11.0166 7.58473 11.7467 7.53597 12.8158C7.48709 13.8871 7.47552 14.2292 7.47552 16.9569C7.47552 19.6848 7.48709 20.0268 7.53597 21.0981C7.58473 22.1672 7.75454 22.8973 8.00285 23.5362C8.25949 24.1967 8.60293 24.7568 9.16131 25.3152C9.71973 25.8736 10.2799 26.217 10.9404 26.4737C11.5792 26.722 12.3094 26.8918 13.3784 26.9406C14.4498 26.9894 14.7918 27.001 17.5196 27.001C20.2474 27.001 20.5895 26.9894 21.6608 26.9406C22.7298 26.8918 23.46 26.722 24.0989 26.4737C24.7594 26.217 25.3195 25.8736 25.8779 25.3152C26.4363 24.7568 26.7797 24.1967 27.0364 23.5362C27.2847 22.8973 27.4545 22.1672 27.5032 21.0981C27.5521 20.0268 27.5637 19.6848 27.5637 16.9569C27.5637 14.2292 27.5521 13.8871 27.5032 12.8158C27.4545 11.7467 27.2847 11.0166 27.0364 10.3777C26.7797 9.71723 26.4363 9.1571 25.8779 8.59868C25.3195 8.0403 24.7594 7.69686 24.0989 7.44018C23.46 7.19191 22.7298 7.02211 21.6608 6.97335C20.5895 6.92447 20.2474 6.9129 17.5196 6.9129Z" fill="white"/>
<path d="M17.5242 11.8036C14.6756 11.8036 12.3665 14.1128 12.3665 16.9614C12.3665 19.81 14.6756 22.1192 17.5242 22.1192C20.3728 22.1192 22.682 19.81 22.682 16.9614C22.682 14.1128 20.3728 11.8036 17.5242 11.8036ZM17.5242 20.3094C15.6752 20.3094 14.1762 18.8105 14.1762 16.9614C14.1762 15.1123 15.6752 13.6134 17.5242 13.6134C19.3733 13.6134 20.8723 15.1123 20.8723 16.9614C20.8723 18.8105 19.3733 20.3094 17.5242 20.3094Z" fill="white"/>
<path d="M24.0908 11.597C24.0908 12.2627 23.5512 12.8023 22.8855 12.8023C22.2199 12.8023 21.6802 12.2627 21.6802 11.597C21.6802 10.9314 22.2199 10.3917 22.8855 10.3917C23.5512 10.3917 24.0908 10.9314 24.0908 11.597Z" fill="white"/>
</svg>
