<svg width="21" height="21" fill="none" xmlns="http://www.w3.org/2000/svg"><g clip-path="url(#clip0_1_448)" fill="#3734A9"><path d="M20.58 20.5h.005v-7.336c0-3.588-.79-6.352-5.08-6.352-2.061 0-3.445 1.106-4.01 2.155h-.06v-1.82H7.368v13.352h4.235v-6.612c0-1.74.338-3.424 2.542-3.424 2.172 0 2.204 1.987 2.204 3.536v6.5h4.23zM.473 7.148h4.24V20.5H.473V7.148zM2.59.5C1.236.5.136 1.576.136 2.902c0 1.325 1.1 2.424 2.456 2.424 1.355 0 2.455-1.098 2.455-2.424C5.046 1.576 3.946.5 2.591.5z"/></g><defs><clipPath id="clip0_1_448"><path fill="#fff" transform="translate(.135 .5)" d="M0 0h20.45v20H0z"/></clipPath></defs></svg>