<svg width="96" height="17" fill="none" xmlns="http://www.w3.org/2000/svg"><path d="M8.727.5l2.309 5.203 5.991.45-4.565 3.667 1.395 5.481-5.13-2.937-5.13 2.937L4.993 9.82.427 6.153l5.992-.45L8.727.5zm19.637 0l2.308 5.203 5.992.45-4.565 3.667 1.394 5.481-5.13-2.937-5.13 2.937L24.63 9.82l-4.566-3.667 5.992-.45L28.364.5zM48 .5l2.309 5.203 5.991.45-4.565 3.667 1.395 5.48L48 12.364 42.87 15.3l1.395-5.481L39.7 6.153l5.992-.45L48 .5zm19.636 0l2.309 5.203 5.992.45L71.37 9.82l1.395 5.481-5.13-2.937-5.13 2.937L63.9 9.82l-4.565-3.667 5.992-.45L67.636.5zm19.637 0l2.308 5.203 5.992.45-4.565 3.667 1.394 5.481-5.13-2.937-5.13 2.937 1.396-5.481-4.565-3.667 5.991-.45L87.273.5z" fill="#FE8B75"/></svg>