<svg width="106" height="127" fill="none" xmlns="http://www.w3.org/2000/svg"><path fill-rule="evenodd" clip-rule="evenodd" d="M16.288 23.94c4.33-8.387 9.638-16.163 15.248-23.73.64.16.078.546.306.79.364.162.768-.685 1.235.068.43.693.175 1.214-.127 1.75-1.593 2.829-3.892 5.217-5.28 8.2-.475 1.019-.683 2.268-1.854 3.062-.721.489-.551 1.725-1.188 2.539-.4.51-.621 1.223-1.065 1.798-1.768 2.29-2.787 4.881-3.078 7.73-.052.512-.273.976-.764.992-1.34.044-2.67.58-3.983-.554-.953-.824-1.041-1.57-.772-2.563.65-2.393 1.94-4.504 3.205-6.614 1.48-2.468 3.161-4.82 4.73-7.233 2.108-3.245 4.47-6.31 6.709-9.461.213-.3.417-.919.884-.646.352.205-.019.695-.22.993-1.265 1.88-2.62 3.697-4.009 5.498-1.33 1.726-2.445 3.617-3.556 5.49-1.796 3.028-3.774 5.954-5.398 9.077-.463.89-.921 1.791-1.023 2.814zM9.445 60.137c-.814.633-1.402-.352-1.66-.552-.695-.54-1.786.017-2.058-.623-.411-.97-1.298-1.79-.93-3.09.71-2.512 1.789-4.877 2.791-7.276.727-1.738 1.42-3.494 2.48-5.084.474-.709 1.018-1.334 1.821-1.69.824-.366 1.547-.392 2.34.266.588.486 1.345.805 1.888 1.377.518.543.928 1.112.318 1.853-.428.52-.35 1.2-.566 1.792-.867 2.38-1.197 4.943-2.588 7.144-1.032 1.633-1.794 3.39-2.589 5.132-.228.5-.448 1.102-1.247.751zm51.29-17.824l-.433.945c.14.179.271.072.412.034.288-.078.386-.612.735-.4.422.259-.12.568-.088.874.462.104.585-.448.961-.464.584.87.278 1.569-.266 2.348-1.477 2.119-2.757 4.345-3.619 6.781-.325.92-1.542 1.37-1.566 2.437-.03 1.355-.683 2.53-1.417 3.499-1.267 1.673-1.538 3.64-2.293 5.458-.212.512.079 1.142-.443 1.561-.169.136-.434.444-.544.184-.377-.889-1.113-.46-1.722-.608-1.13-.274-1.352-1.347-1.463-2.29-.174-1.487.27-2.925.893-4.25 2.387-5.076 5.162-9.945 8.595-14.436.523-.684.992-1.543 2.258-1.673zM44.923 22.16c-.261.79-.514 1.617-.809 2.43-1.864 5.155-4.283 10.068-6.903 14.896-1.004 1.85-2.162 3.626-2.922 5.601-.217.566-.608 1.012-1.305.41-.165-.141-.409-.206-.626-.28-1.446-.495-2.01-1.568-1.557-3.024.465-1.494 1.324-2.802 2.158-4.113 3.525-5.547 6.841-11.198 9.372-17.25.321-.767.414-.766.977-.182a.387.387 0 00.274.101c1.05-.09 1.145.654 1.341 1.412zM9.573 80.05c-.96 2.29-2.532 4.042-3.448 6.115-.926 2.095-2.046 4.115-2.628 6.352.843-1.793 1.68-3.589 2.53-5.38.973-2.054 2.208-3.963 3.422-5.89.61-.967 1.294-.918 1.98-.385.67.52.809 1.396.178 2.006-1.285 1.244-2.008 2.833-2.477 4.395-.818 2.718-2.255 5.238-2.688 8.078-.1.654-.589 1.212-.69 1.941-.112.82-.156 1.523.264 2.287.243.444.844 1.028.31 1.523-.436.406-1.075.703-1.803.334-.278-.141-.682-.049-1.03-.06-2.029-.067-3.227-1.347-2.924-3.328.406-2.656 1.437-5.141 2.525-7.595 1.427-3.215 2.977-6.369 5.089-9.232.311-.423.572-.89 1.39-1.16zm55.331 25.055c-2.748-.006-3.576-1.17-2.646-3.376.727-1.725 1.964-3.146 3.158-4.57 2.787-3.324 5.688-6.552 8.776-9.623.756-.752 1.673-1.02 2.614-1.3.329-.096 1.062-.288 1.034-.01-.058.566.53 1.08 0 1.687-2.362 2.708-4.47 5.606-6.654 8.448-.963 1.253-2.029 2.434-2.956 3.71-.627.864-1.268 1.796-.632 2.959.076.138.037.502-.031.524-1.085.35-1.741 1.469-2.663 1.551zm28.094-60.232c1.411-1.535 2.29-3.402 3.681-4.927.41-.449.901-.838 1.252-1.325.578-.805 1.174-.192 1.556.062.372.245.546.816.147 1.356-1.627 2.206-2.935 4.62-4.034 7.077-.783 1.752-2.084 3.286-2.355 5.324-.103.772-.648 1.663-.95 2.527-.404 1.155-1.234.198-1.874.156-.1-.006-.19-.294-.283-.292-.394.005-.626.976-1.088.302-.626-.914-1.295-1.777-.857-3.129.697-2.146 1.766-4.082 2.936-5.982 1.587-2.576 3.05-5.242 5.31-7.368.166-.157.318-.328.496-.472.184-.148.43-.274.628-.092.25.231.117.511-.102.685-1.915 1.518-2.869 3.707-4.21 5.624-.103.146-.17.315-.253.474zm-47.24 38.123c.591-.54 1.258-1.02 1.752-1.632.577-.714 1.22-.87 2.032-.56.483.186.38.676.334.99-.12.804-.613 1.424-1.416 1.71-.193.069-.482-.072-.481.264.004 1.644-1.485 2.518-2.125 3.835-.196.403-.562.786-.82 1.2-.752 1.208-1.367 2.52-2.962 2.984-.371.107-.96.429-.76.975.613 1.667-.593 2.78-1.277 4.015-1.125 2.03-2.552 3.895-3.595 5.975-.117.234-.19.568-.528.486-.423-.102.137-.464-.156-.678-.526.271-.989 1.004-1.723.139-.261-.308-.646.213-.834.541-.144.249-.301.483-.624.3-.391-.221-.054-.453.049-.656 1.88-3.708 4.201-7.156 6.61-10.552l6.365-8.974.16-.362zm20.544-13.16c1.301-1.948 2.612-3.894 4.06-5.751-1.651 1.198-3.642 3.98-4.06 5.751zm2.546 2.958c-.404.114.628-1.248-.476-.412-.03.023-.087.057-.1.047-.728-.546-1.368-.516-2.033.152-.175.175-1.53-1.294-1.559-1.728-.044-.656.128-1.276.425-1.85 1.681-3.24 4.046-5.931 7.034-8.11 1.464-1.067 3-.95 4.532-.156.823.427.819.94.135 1.58a28.592 28.592 0 00-2.05 2.125c-.745.855-1.368 1.793-2.187 2.606-1.076 1.067-1.447 2.581-2.229 3.849-.433.7-.813 1.41-1.492 1.897zm34.098 1.946l-.432 1.425c.262-.196.421-.255.469-.361.389-.862 1.105-.639 1.668-.36.604.298.76.971.519 1.552-.394.948-.849 1.886-1.405 2.753-.766 1.197-1.633 2.353-2.155 3.659-.546 1.364-1.341 2.692-1.001 4.296.161.757-.493 1.202-1.207.892-.389-.169-.738-.15-1.122-.131-2.432.118-3.688-1.552-2.743-3.8 1.332-3.168 3.482-5.846 5.721-8.451.428-.498.723-1.16 1.688-1.473zm-88.672 49.48c-.015.846.723 1.257.825 1.932-1.078.142-1.757-.423-1.993-1.588-.256-1.265.153-2.43.789-3.438 1.353-2.146 2.482-4.415 4.372-6.268.74-.725 1.251-1.898 1.97-2.775 2.051-2.501 4.191-4.933 6.305-7.385a5.474 5.474 0 011.51-1.227c.297-.165.59-.202.867.013.298.232.265.528.099.813-.247.425-.469.873-.778 1.253-2.856 3.512-5.79 6.969-8.566 10.539a16.433 16.433 0 00-2.508 4.661c-.269.771.02 1.618.11 2.429.025.221.344.522-.06.688-.776.319-1.426.634-.744 1.612.156.223-.197.34-.443.346-.44.01-.944.003-.996-.525-.047-.485-.331-.731-.76-1.08zm18.601-57.69c-.252-.172-.393-.205-.503.054-.4.943-.734 1.926-1.257 2.802-.316.53-.248 1.621-1.46 1.303-.192-.05-.153.184-.065.317.204.31.077.538-.144.8-.378.445-.482.94-.384 1.55.182 1.127-.628 1.677-1.694 1.214-.128-.056-.355-.244-.366-.166-.273 1.837-1.301-.599-1.721.291-.315-.253-.463-.576-.5-.974-.081-.914.305-1.686.742-2.445 1.66-2.873 4.035-5.166 6.472-7.398.586-.539 1.47-.568 2.231-.784.447-.127.71.23.879.573.231.468-.024.517-.42.392-.053.841-.621 1.424-1.088 2.063-.205.28-.338.62-.722.409zm34.689-46.186l-.287-.206c-.55.843-1.106 1.684-1.643 2.535-.063.1-.185.28 0 .388.13.075.352.097.396-.062.28-1.008 1.257-1.65 1.534-2.655zm-4.056 10.242c-.34.476-.098 1.29-1.17 1.355-.775.047-.635-.315-.635-.701-.667.058-.4.824-.99.976-.243-1.037.152-2.03.104-3.025a.626.626 0 00.015-.097c.828-.688 1.018-1.716 1.477-2.6.19-.366.256-.801.488-1.132 1.87-2.663 3.392-5.538 5.406-8.119 1.58-2.022 2.977-4.175 4.663-6.123.388-.447.73-.938 1.563-1.408-.642 1.125-1.13 1.981-1.62 2.837.013-.034.023-.069.033-.105-1.287.986-1.811 2.509-2.913 3.645.376.309.49-.013.67-.05.31-.061.502.127.621.385.06.126.177.313-.031.365-.925.23-.703.972-.73 1.56-.03.651-.395 1.009-.92 1.3-.81.447-1.292 1.082-1.205 2.03l-.426.61c-.885.42-2.15 2.466-2.06 3.33-.506.026-.705.952-1.393.444-.203-.547-.319-.806-.848-.125-.668.861-.56 2.033-1.367 2.802-.12.114-.112.283.053.38.213.127.411.034.444-.17.142-.877.865-1.493 1.085-2.328.092-.352.19-.66.666-.59.289 1.625-1.005 2.736-1.448 4.124-.058.184-.771-.312-.512.307.125.302.6.452.98.123zm26.47 75.091c-.237.632-.054 1.203.155 1.751.11.288.193.507-.164.627-.325.109-.526-.113-.641-.353-.295-.613-.222-1.297-.047-1.881.667-2.231 1.918-4.167 3.46-5.933.459-.524 1.001-.998 1.36-1.58.652-1.055 1.761-1.356 2.819-1.69.493-.156.588.485.69.83.057.197-.093.58-.275.696-1.757 1.112-2.04 3.185-3.233 4.676-.392.491-.212 1.487-.72 2.139-.4.516-.617 1.16-1.363 1.405-.43.142-.104.677-.298.996-.1.164-.161.36-.373.387-.212.026-.478-.148-.44-.279.256-.88-.817-1.104-.93-1.791z" fill="#000"/><path fill-rule="evenodd" clip-rule="evenodd" d="M45.758 82.996l-.16.362c-1.543 1.317-2.788 2.904-3.997 4.485-1.662 2.173-3.166 4.47-4.613 6.786-1.226 1.96-2.788 3.722-3.648 5.905-.349.887-.927 1.696-1.937 2.301-.238-1.335.64-2.19 1.146-3.13 1.334-2.48 3.018-4.75 4.675-7.03 2.989-4.113 5.796-8.365 9.521-11.93.213-.203.384-.484.896-.332-.334 1.08-1.404 1.646-1.883 2.583zm45.236-15.747c-.459.325.081 1.203-.62 1.06-.599-.122-.383-.828-.233-1.276.933-2.775 2.771-4.829 5.432-6.174.404-.204.989-.515 1.361.062.332.512-.18.823-.473 1.143-1.225 1.344-2.388 2.715-2.693 4.567-.077.466-.467.633-.864.79a1.045 1.045 0 00-.377.254c-.777.856-1.364.946-1.533-.426zM66.998 17.452c-.128 1.382-1.35 2.145-2.013 3.221-.492.797-.893 1.702-1.678 2.335-.196.157-.274.504-.597.328-.257-.14-.31-.423-.136-.69 1.044-1.6 2.06-3.222 3.306-4.689.295-.346.759-.337 1.151-.477l-.033-.028zm.033.028c-.146-.306-.315-.59-.05-.94 1.504-1.98 2.976-3.984 4.718-5.781.135-.14.21-.469.514-.263.193.131.145.334.013.496-1.704 2.084-3.357 4.205-4.904 6.402-.044.061-.213.04-.324.058l.033.028zm-6.199 11.614a.633.633 0 01-.015.097c-.206.504-.655.912-.616 1.514.013.215.043.52-.295.491-.301-.025-.26-.296-.234-.527.236-2.055.958-3.977 1.762-5.87.138-.324.543-.673.912-.506.437.197.107.615-.048.86-.77 1.22-1.107 2.583-1.466 3.94zm12.01-16.65c-.01.036-.02.07-.032.105.492-.485 1.348-.628 1.431-1.521.014-.147.402-.687.794-.354.372.316-.026.65-.241.847-.975.894-1.749 1.903-2.192 3.258-.374-.423-.934-.7-.189-1.213.4-.276.24-.764.43-1.122zm-4.934 9.846l.426-.61c.17-.131.341-.26.512-.39l.18.12c-.393.678-.786 1.355-1.178 2.034l-.252-.08.312-1.074zM63.962 30c-.228-.778.358-1.295.665-1.895.301-.588.652-1.153.982-1.729.116.293.089.552-.08.839-.54.918-1.047 1.855-1.566 2.785z" fill="#000"/></svg>