<svg width="22" height="21" fill="none" xmlns="http://www.w3.org/2000/svg"><g clip-path="url(#clip0_1_452)"><path d="M19.077 6.427a8.27 8.27 0 002.1-2.128 8.91 8.91 0 01-2.415.647 4.096 4.096 0 001.845-2.266 8.503 8.503 0 01-2.659.992 4.244 4.244 0 00-3.062-1.297c-2.321 0-4.19 1.842-4.19 4.1 0 .326.029.638.098.936a11.96 11.96 0 01-8.642-4.29 4.066 4.066 0 00-.575 2.073c0 1.42.748 2.678 1.863 3.408a4.216 4.216 0 01-1.894-.505v.045c0 1.992 1.453 3.647 3.359 4.029a4.256 4.256 0 01-1.1.135c-.268 0-.539-.015-.793-.07a4.223 4.223 0 003.917 2.856 8.549 8.549 0 01-5.198 1.749 8.07 8.07 0 01-1.003-.056 12 12 0 006.431 1.84c7.399 0 12.22-6.037 11.918-12.198z" fill="#3734A9"/></g><defs><clipPath id="clip0_1_452"><path fill="#fff" transform="translate(.728 .5)" d="M0 0h20.45v20H0z"/></clipPath></defs></svg>