<svg width="21" height="21" fill="none" xmlns="http://www.w3.org/2000/svg"><g clip-path="url(#clip0_1_454)"><path d="M9.145 14.6c.054-.046.11-.092.16-.142C6.46 17.19 1.818 15.915.73 12.062v-.005C-.731 6.815 5.424 2.833 9.304 6.5l5.1 5.32h.016c.8.806 1.957.717 2.646.012.74-.756.767-1.991.04-2.76-1.148-1.293-3.402-.327-3.186 1.589l-1.29-1.285-1.497-1.4a5.447 5.447 0 011.22-1.576c-.054.046-.11.093-.16.14 2.857-2.74 7.496-1.436 8.577 2.4v.005c1.463 5.24-4.699 9.223-8.576 5.556L7.097 9.148l-.003-.012c-.014 0-.014-.013-.014-.013-.84-.847-1.98-.72-2.646-.026-.74.757-.766 1.992-.038 2.75 1.098 1.262 3.4.326 3.183-1.628l2.79 2.801c-.468.912-.992 1.332-1.224 1.58z" fill="#3734A9"/></g><defs><clipPath id="clip0_1_454"><path fill="#fff" transform="translate(.525 .5)" d="M0 0h20.45v20H0z"/></clipPath></defs></svg>