<svg width="185" height="36" fill="none" xmlns="http://www.w3.org/2000/svg"><path d="M15.366 4.83c1.137-2.085 4.13-2.085 5.268 0l2.291 4.202a3 3 0 002.082 1.512l4.705.881c2.334.437 3.26 3.284 1.628 5.01l-3.289 3.478a3 3 0 00-.795 2.447l.616 4.747c.306 2.355-2.116 4.115-4.262 3.096l-4.324-2.052a3 3 0 00-2.573 0l-4.324 2.052c-2.145 1.019-4.567-.74-4.262-3.096l.616-4.747a3 3 0 00-.795-2.447L4.66 16.435c-1.632-1.726-.707-4.573 1.628-5.01l4.704-.88a3 3 0 002.082-1.513l2.292-4.203zm38 0c1.137-2.085 4.13-2.085 5.267 0l2.292 4.202a3 3 0 002.082 1.512l4.705.881c2.334.437 3.26 3.284 1.628 5.01l-3.289 3.478a3 3 0 00-.795 2.447l.616 4.747c.306 2.355-2.116 4.115-4.261 3.096l-4.325-2.052a3 3 0 00-2.573 0l-4.324 2.052c-2.145 1.019-4.567-.74-4.262-3.096l.616-4.747a3 3 0 00-.795-2.447l-3.288-3.478c-1.632-1.726-.706-4.573 1.628-5.01l4.705-.88a3 3 0 002.081-1.513l2.292-4.203zm37 0c1.137-2.085 4.13-2.085 5.267 0l2.292 4.202a3 3 0 002.082 1.512l4.705.881c2.334.437 3.259 3.284 1.628 5.01l-3.289 3.478a3 3 0 00-.795 2.447l.616 4.747c.306 2.355-2.116 4.115-4.261 3.096l-4.325-2.052a3 3 0 00-2.573 0l-4.324 2.052c-2.145 1.019-4.567-.74-4.261-3.096l.615-4.747a3 3 0 00-.795-2.447l-3.288-3.478c-1.632-1.726-.706-4.573 1.628-5.01l4.705-.88a3 3 0 002.081-1.513l2.292-4.203zm38 0c1.137-2.085 4.131-2.085 5.268 0l2.291 4.202a3.001 3.001 0 002.082 1.512l4.705.881c2.334.437 3.259 3.284 1.628 5.01l-3.289 3.478a3 3 0 00-.795 2.447l.616 4.747c.306 2.355-2.116 4.115-4.262 3.096l-4.324-2.052a3 3 0 00-2.573 0l-4.324 2.052c-2.145 1.019-4.567-.74-4.262-3.096l.616-4.747a3 3 0 00-.795-2.447l-3.288-3.478c-1.632-1.726-.707-4.573 1.628-5.01l4.705-.88a3 3 0 002.081-1.513l2.292-4.203z" fill="#FFB648"/><path d="M164.366 4.83c1.137-2.085 4.131-2.085 5.268 0l2.291 4.202a3.001 3.001 0 002.082 1.512l4.705.881c2.334.437 3.259 3.284 1.628 5.01l-3.289 3.478a3 3 0 00-.795 2.447l.616 4.747c.306 2.355-2.116 4.115-4.262 3.096l-4.324-2.052a3 3 0 00-2.573 0l-4.324 2.052c-2.145 1.019-4.567-.74-4.262-3.096l.616-4.747a3 3 0 00-.795-2.447l-3.288-3.478c-1.632-1.726-.707-4.573 1.628-5.01l4.705-.88a3 3 0 002.081-1.513l2.292-4.203z" fill="#D7D1C7"/><mask id="mask0_482_1635" style="mask-type:alpha" maskUnits="userSpaceOnUse" x="152" y="3" width="30" height="28"><path d="M164.366 4.83c1.137-2.085 4.131-2.085 5.268 0l2.291 4.202a3.001 3.001 0 002.082 1.512l4.705.881c2.334.437 3.259 3.284 1.628 5.01l-3.289 3.478a3 3 0 00-.795 2.447l.616 4.747c.306 2.355-2.116 4.115-4.262 3.096l-4.324-2.052a3 3 0 00-2.573 0l-4.324 2.052c-2.145 1.019-4.567-.74-4.262-3.096l.616-4.747a3 3 0 00-.795-2.447l-3.288-3.478c-1.632-1.726-.707-4.573 1.628-5.01l4.705-.88a3 3 0 002.081-1.513l2.292-4.203z" fill="#D7D1C7"/></mask><g mask="url(#mask0_482_1635)"><path fill="#FFB648" d="M166 38h-16V-5h16z"/></g></svg>