<svg width="71" height="70" fill="none" xmlns="http://www.w3.org/2000/svg"><ellipse cx="35.763" cy="35" rx="34.831" ry="35" fill="#5CBA99"/><path d="M45.832 43h1.696v-4.496c0-.683.099-1.227.296-1.632.203-.41.47-.707.8-.888.33-.181.696-.272 1.096-.272.459 0 .832.093 1.12.28.288.187.51.432.664.736.155.304.259.635.312.992.059.352.088.696.088 1.032V43H53.6v-4.8c0-.267-.024-.576-.072-.928a5.258 5.258 0 00-.272-1.08 3.4 3.4 0 00-.584-1.016 2.723 2.723 0 00-.984-.76c-.405-.192-.907-.288-1.504-.288-.624 0-1.178.112-1.664.336-.48.224-.877.533-1.192.928V31.48h-1.496V43zm9.852 0h1.688v-4.36c0-.507.08-.976.24-1.408a2.07 2.07 0 01.848-1.04 2.07 2.07 0 01.952-.328c.347-.032.659-.01.936.064V34.36a3.346 3.346 0 00-1.24.008c-.432.08-.81.24-1.136.48a2.54 2.54 0 00-.8.888V34.36h-1.488V43zm-40.614.988h11.687V41.6h-7.812l5.004-4.464a17.894 17.894 0 001.56-1.536c.416-.472.728-.984.936-1.536.208-.56.312-1.232.312-2.016 0-1.096-.252-2.072-.756-2.928a5.366 5.366 0 00-2.04-2.016c-.864-.496-1.84-.744-2.928-.744-1.144 0-2.164.24-3.06.72a5.24 5.24 0 00-2.088 1.98c-.504.84-.756 1.82-.756 2.94h2.568a3.086 3.086 0 01.408-1.608c.288-.496.68-.892 1.176-1.188.496-.304 1.064-.456 1.704-.456.928 0 1.692.312 2.292.936.6.624.9 1.4.9 2.328 0 .488-.112.976-.336 1.464-.216.48-.628.992-1.236 1.536l-7.524 6.744-.012 2.232zM35.765 44h2.544v-3.012h1.716v-2.376H38.31v-4.68h-2.544v4.68h-4.932L36.45 26.72h-2.868l-5.616 11.892v2.376h7.8V44z" fill="#fff"/></svg>