<svg width="752" height="235" fill="none" xmlns="http://www.w3.org/2000/svg"><circle cx="370" cy="193" r="6" fill="red"/><circle cx="168" cy="139" r="10" fill="#0AC05E"/><circle cx="79" cy="104" r="4" fill="#33EA23"/><circle cx="73" cy="229" r="6" fill="#9B77EC"/><circle cx="192" cy="9" r="6" fill="#392BD3"/><circle cx="3" cy="64" r="3" fill="#C87C00"/><circle cx="19" cy="3" r="3" fill="#B13DE1"/><circle r="10" transform="matrix(1 0 0 -1 544 96)" fill="#0AC05E"/><circle r="4" transform="matrix(1 0 0 -1 455 131)" fill="#33EA23"/><circle r="6" transform="matrix(1 0 0 -1 449 6)" fill="#9B77EC"/><circle r="6" transform="matrix(1 0 0 -1 746 42)" fill="red"/><circle r="6" transform="matrix(1 0 0 -1 568 226)" fill="#392BD3"/><circle r="3" transform="matrix(1 0 0 -1 379 171)" fill="#C87C00"/><circle r="3" transform="matrix(1 0 0 -1 395 232)" fill="#B13DE1"/></svg>