<svg width="23" height="23" fill="none" xmlns="http://www.w3.org/2000/svg"><g clip-path="url(#clip0_1_460)"><path fill="#fff" d="M.09.5h22.496v22H.09z"/><path fill-rule="evenodd" clip-rule="evenodd" d="M13.153 20.438a2.065 2.065 0 01-2.062-2.063c0-1.137.925-2.062 2.062-2.062 1.138 0 2.063.925 2.063 2.062a2.065 2.065 0 01-2.063 2.063zM4.216 7.375c1.137 0 2.062.925 2.062 2.063A2.065 2.065 0 014.216 11.5a2.065 2.065 0 01-2.063-2.062c0-1.138.926-2.063 2.063-2.063zm8.937 7.563c-1.733 0-3.157 1.294-3.39 2.964l-5.075-5.074c1.67-.234 2.965-1.657 2.965-3.39A3.441 3.441 0 004.216 6 3.441 3.441 0 00.778 9.438c0 .942.383 1.797 1 2.418l.008.013 8.937 8.937c.004.004.009.004.012.008a3.428 3.428 0 002.418.999 3.441 3.441 0 003.438-3.438 3.441 3.441 0 00-3.438-3.437zM11.09 1.188a.687.687 0 100 1.375c4.929 0 8.938 4.01 8.938 8.937a.687.687 0 101.375 0c0-5.686-4.626-10.312-10.312-10.312z" fill="#181433"/><path fill-rule="evenodd" clip-rule="evenodd" d="M11.09 4.625a.687.687 0 100 1.375c3.033 0 5.5 2.467 5.5 5.5a.687.687 0 101.376 0 6.883 6.883 0 00-6.875-6.875z" fill="#181433"/><path fill-rule="evenodd" clip-rule="evenodd" d="M13.153 11.5a.687.687 0 101.375 0 3.441 3.441 0 00-3.437-3.437.687.687 0 100 1.375c1.137 0 2.062.925 2.062 2.062z" fill="#181433"/></g><defs><clipPath id="clip0_1_460"><path fill="#fff" transform="translate(.09 .5)" d="M0 0h22.495v22H0z"/></clipPath></defs></svg>