<svg width="97" height="22" fill="none" xmlns="http://www.w3.org/2000/svg"><path d="M4.825 9.025c.4-.65.975-1.175 1.725-1.575.75-.4 1.608-.6 2.575-.6 1.15 0 2.192.292 3.125.875.933.583 1.667 1.417 2.2 2.5.55 1.083.825 2.342.825 3.775 0 1.433-.275 2.7-.825 3.8-.533 1.083-1.267 1.925-2.2 2.525-.933.583-1.975.875-3.125.875-.983 0-1.842-.192-2.575-.575-.733-.4-1.308-.925-1.725-1.575V21H.55V2.5h4.275v6.525zm6.1 4.975c0-1.067-.3-1.9-.9-2.5-.583-.617-1.308-.925-2.175-.925-.85 0-1.575.308-2.175.925-.583.617-.875 1.458-.875 2.525s.292 1.908.875 2.525c.6.617 1.325.925 2.175.925.85 0 1.575-.308 2.175-.925.6-.633.9-1.483.9-2.55zm9.368-4.625a5.521 5.521 0 011.875-1.8 4.766 4.766 0 012.5-.675v4.525h-1.175c-1.067 0-1.867.233-2.4.7-.534.45-.8 1.25-.8 2.4V21h-4.275V7.05h4.275v2.325zM24.36 14c0-1.433.267-2.692.8-3.775.55-1.083 1.292-1.917 2.225-2.5.934-.583 1.975-.875 3.125-.875.983 0 1.842.2 2.575.6.75.4 1.325.925 1.725 1.575V7.05h4.275V21H34.81v-1.975c-.416.65-1 1.175-1.75 1.575-.733.4-1.591.6-2.575.6a5.733 5.733 0 01-3.1-.875c-.933-.6-1.675-1.442-2.225-2.525-.533-1.1-.8-2.367-.8-3.8zm10.45.025c0-1.067-.3-1.908-.9-2.525a2.844 2.844 0 00-2.15-.925c-.85 0-1.575.308-2.175.925-.583.6-.875 1.433-.875 2.5s.292 1.917.875 2.55c.6.617 1.325.925 2.175.925.85 0 1.567-.308 2.15-.925.6-.617.9-1.458.9-2.525zM49.18 6.9c1.633 0 2.933.533 3.9 1.6.983 1.05 1.475 2.5 1.475 4.35V21h-4.25v-7.575c0-.933-.242-1.658-.725-2.175-.483-.517-1.133-.775-1.95-.775s-1.467.258-1.95.775c-.483.517-.725 1.242-.725 2.175V21H40.68V7.05h4.275V8.9c.433-.617 1.017-1.1 1.75-1.45.733-.367 1.558-.55 2.475-.55zm5.996 7.1c0-1.433.266-2.692.8-3.775.55-1.083 1.291-1.917 2.225-2.5.933-.583 1.975-.875 3.125-.875.916 0 1.75.192 2.5.575.766.383 1.366.9 1.8 1.55V2.5H69.9V21h-4.275v-2c-.4.667-.975 1.2-1.725 1.6-.734.4-1.592.6-2.575.6-1.15 0-2.192-.292-3.125-.875-.934-.6-1.675-1.442-2.225-2.525-.534-1.1-.8-2.367-.8-3.8zm10.45.025c0-1.067-.3-1.908-.9-2.525a2.844 2.844 0 00-2.15-.925c-.85 0-1.575.308-2.175.925-.584.6-.875 1.433-.875 2.5s.291 1.917.875 2.55c.6.617 1.325.925 2.175.925.85 0 1.566-.308 2.15-.925.6-.617.9-1.458.9-2.525zm7.867 7.175c-.75 0-1.366-.217-1.85-.65-.466-.45-.7-1-.7-1.65 0-.667.234-1.225.7-1.675.484-.45 1.1-.675 1.85-.675.734 0 1.334.225 1.8.675.484.45.725 1.008.725 1.675 0 .65-.241 1.2-.725 1.65-.466.433-1.066.65-1.8.65zm5.706-15.6c-.75 0-1.367-.217-1.85-.65-.467-.45-.7-1-.7-1.65 0-.667.233-1.217.7-1.65.483-.45 1.1-.675 1.85-.675.733 0 1.333.225 1.8.675.483.433.725.983.725 1.65 0 .65-.242 1.2-.725 1.65-.467.433-1.067.65-1.8.65zm2.125 1.45V21h-4.275V7.05h4.275zm7.948 14.15c-1.367 0-2.6-.292-3.7-.875a6.513 6.513 0 01-2.575-2.5c-.617-1.083-.925-2.35-.925-3.8 0-1.433.317-2.692.95-3.775a6.423 6.423 0 012.6-2.525c1.1-.583 2.333-.875 3.7-.875s2.6.292 3.7.875a6.423 6.423 0 012.6 2.525c.633 1.083.95 2.342.95 3.775 0 1.433-.325 2.7-.975 3.8a6.429 6.429 0 01-2.625 2.5c-1.1.583-2.333.875-3.7.875zm0-3.7c.817 0 1.508-.3 2.075-.9.583-.6.875-1.458.875-2.575 0-1.117-.283-1.975-.85-2.575-.55-.6-1.233-.9-2.05-.9-.833 0-1.525.3-2.075.9-.55.583-.825 1.442-.825 2.575 0 1.117.267 1.975.8 2.575.55.6 1.233.9 2.05.9z" fill="#313131"/></svg>