<svg width="120" height="26" fill="none" xmlns="http://www.w3.org/2000/svg"><path d="M11.668 8.695a2.027 2.027 0 00-.524-.37c.71-.863 1.08-1.973 1.08-3.114 0-1.51-.679-2.93-1.85-3.885-.926-.77-2.097-1.14-3.64-1.14H.322v18.562h7.216c1.757 0 3.083-.401 4.1-1.265a5.647 5.647 0 002.097-4.378 5.54 5.54 0 00-2.066-4.41zm-8.14-5.519H6.15c1.48 0 1.973.308 2.251.648.34.37.555.863.555 1.387S8.77 6.198 8.4 6.6c-.308.339-.77.647-2.25.647H3.527v-4.07zm6.198 11.717c-.432.432-1.08.833-2.775.833H3.528v-5.458h3.454c1.696 0 2.312.4 2.744.833a2.77 2.77 0 01.77 1.88c0 .71-.277 1.388-.77 1.912zM27.21 6.074h-3.023v12.673h3.022V6.074zM25.668.154c-1.049 0-1.881.833-1.881 1.912 0 1.048.832 1.88 1.88 1.88 1.08 0 1.912-.832 1.912-1.88A1.921 1.921 0 0025.667.154zm12.919 6.753c-1.017-.71-2.189-1.08-3.515-1.08-1.14 0-2.22.278-3.114.802-2.005 1.172-3.238 3.392-3.238 5.767 0 2.405 1.203 4.563 3.238 5.735.894.524 2.066.832 3.176.832 1.264 0 2.405-.339 3.36-1.017v.092c0 1.388-.184 2.313-.616 2.96-.555.833-1.48 1.265-2.713 1.265-1.943 0-2.991-1.049-3.762-2.035l-.185-.247-2.19 2.035.124.185c.863 1.357 2.99 2.93 6.136 2.93 2.436 0 4.44-1.142 5.489-3.146.524-1.017.74-2.282.74-4.1V6.074h-2.93v.832zm-.092 7.678c-.74.956-1.881 1.542-3.053 1.542-2.097 0-3.73-1.635-3.73-3.7 0-2.128 1.54-3.7 3.607-3.7 1.202 0 2.405.585 3.176 1.541v4.317zm11.008-8.757c-1.45 0-2.56.524-3.269 1.017V.155h-3.022v18.593h3.022v-8.48c.617-.71 1.665-1.542 3.207-1.542.894 0 1.758.401 2.282 1.08.34.431.647 1.017.647 2.62v6.321h3.022V12.55c0-2.035-.37-3.361-1.233-4.471-1.141-1.419-2.806-2.251-4.656-2.251zm25.593.802c-.895-.525-1.974-.802-3.115-.802-1.326 0-2.497.37-3.515 1.079v-.802h-2.93v18.84h3.023v-6.968c.956.678 2.096 1.017 3.36 1.017 1.11 0 2.313-.308 3.177-.832 2.035-1.203 3.237-3.33 3.237-5.736a6.699 6.699 0 00-3.237-5.797zm-3.485 9.497c-1.14 0-2.282-.586-3.052-1.542v-4.348c.77-.956 1.942-1.542 3.176-1.542 2.066 0 3.607 1.604 3.607 3.7 0 2.097-1.634 3.732-3.73 3.732zM85.826 5.828c-3.577 0-6.167 2.775-6.167 6.598 0 3.762 2.806 6.599 6.537 6.599 3.145 0 4.749-1.665 5.304-2.374l.154-.216-2.004-1.881-.185.216c-.679.77-1.635 1.542-3.269 1.542a3.65 3.65 0 01-3.608-3.084h9.251l.03-.247c.032-.246.032-.431.032-.555 0-3.761-2.621-6.598-6.075-6.598zm-2.93 4.748c.494-1.233 1.666-2.066 3.023-2.066 1.202 0 2.374.864 2.806 2.066h-5.828zm20.136-3.669c-1.018-.71-2.189-1.08-3.515-1.08-1.141 0-2.22.278-3.115.802-2.004 1.172-3.237 3.392-3.237 5.767 0 2.405 1.202 4.563 3.237 5.735.895.524 2.066.832 3.176.832 1.265 0 2.467-.37 3.454-1.048v.802h2.929V6.074h-2.929v.833zm-.093 7.678c-.74.956-1.881 1.542-3.052 1.542-2.097 0-3.731-1.635-3.731-3.7 0-2.128 1.541-3.7 3.607-3.7 1.203 0 2.405.585 3.176 1.541v4.317zM119.59 0h-3.022v18.747h3.022V0zM63.84 15.972c-.4.124-1.078.185-1.51.185-.74 0-1.48-.277-1.82-.678-.308-.37-.37-.956-.37-1.696V8.788h3.7V6.074h-3.7V.154h-3.02v13.444c0 1.665.37 2.899 1.14 3.731.957 1.08 2.313 1.634 3.978 1.634.525 0 1.11-.061 1.604-.154v-2.837zM22.584 5.951a5.674 5.674 0 00-1.264-.123c-1.45 0-2.56.524-3.269 1.018v-.771H15.03v12.673h3.022v-8.48c.617-.709 1.665-1.541 3.207-1.541.463 0 .925.123 1.357.308l-.031-3.084zm92.628 0a5.68 5.68 0 00-1.265-.123 5.7 5.7 0 00-3.268 1.018v-.771h-3.022v12.673h3.022v-8.48c.617-.709 1.665-1.541 3.207-1.541.462 0 .925.123 1.356.308l-.03-3.084z" fill="#313131"/></svg>