<svg width="150" height="21" fill="none" xmlns="http://www.w3.org/2000/svg"><path d="M61.563 0h4.679v19.663h-4.68V0zm8.855 8.4h-2.26V5.373h2.26c0-4.105 1.433-5.372 5.43-5.372.74 0 1.511.055 2.255.082v3.305a9.714 9.714 0 00-1.265-.082c-1.073 0-1.735.137-1.735 1.431v.636h2.808v3.029h-2.808v11.262h-4.685V8.401zm20.606 6.553c0 .716.301 1.237.772 1.598.438.332 1.072.497 1.734.497.908 0 2.2-.388 2.2-1.516 0-1.1-1.46-1.323-2.282-1.518-2.949-.74-6.637-.822-6.637-4.68 0-3.441 3.715-4.377 6.527-4.377 3.137 0 6.414.91 6.578 4.625h-4.322c0-.604-.22-.99-.607-1.238-.384-.248-.908-.358-1.488-.358-.768 0-2.009.082-2.009 1.074 0 1.348 3.14 1.599 5.29 2.064 2.89.58 3.634 2.674 3.634 3.856 0 3.83-3.634 5.095-6.857 5.095-3.386 0-6.856-1.128-6.997-5.122h4.464zM102.099 0h4.683v7.324h.055c.716-1.457 2.643-2.367 4.35-2.367 4.766 0 5.15 3.47 5.15 5.537v9.17h-4.68V12.75c0-1.956.22-3.94-2.342-3.94-1.762 0-2.533 1.49-2.533 3.057v7.795h-4.683V0zm20.551 13.66c.083 1.955 1.214 3.25 3.199 3.25 1.124 0 2.228-.527 2.667-1.57h4.382c-.854 3.305-3.912 4.735-7.107 4.735-4.652 0-7.824-2.808-7.824-7.6 0-4.38 3.5-7.518 7.714-7.518 5.122 0 7.683 3.853 7.463 8.704H122.65zm5.812-2.618c-.083-1.597-1.211-2.917-2.781-2.917-1.652 0-2.753 1.184-3.031 2.917h5.812zm6.594-5.67h4.546v2.502h.055c.689-1.813 2.286-2.778 4.295-2.778.36 0 .744.025 1.104.108v4.27c-.607-.165-1.158-.277-1.793-.277-2.31 0-3.524 1.598-3.524 3.388v7.078h-4.683V5.372zm-54.96 0h4.683v14.292h-4.683V5.372zM84.761.074h-4.67v3.314h4.67V.074zm64.56 19.579h-4.669v-3.315h4.669v3.315zM21.743 13.66c.082 1.955 1.213 3.25 3.195 3.25 1.131 0 2.232-.527 2.67-1.57h4.378c-.85 3.305-3.908 4.735-7.103 4.735-4.652 0-7.82-2.808-7.82-7.6 0-4.38 3.497-7.518 7.71-7.518 5.122 0 7.683 3.853 7.463 8.704H21.743zm5.81-2.618c-.082-1.597-1.21-2.917-2.78-2.917-1.652 0-2.753 1.184-3.03 2.917h5.81zm15.623 8.621c-.165-.442-.22-.884-.274-1.35-1.214 1.268-3.004 1.762-4.707 1.762-2.73 0-4.875-1.378-4.875-4.323 0-4.655 5.063-4.293 8.317-4.957.795-.164 1.237-.44 1.237-1.321 0-1.073-1.296-1.488-2.259-1.488-1.292 0-2.119.578-2.342 1.79h-4.378c.083-1.874.964-3.086 2.232-3.827 1.269-.716 2.918-.992 4.543-.992 3.39 0 6.664.742 6.664 4.791v9.915h-4.158zm-3.22-2.478c2.23 0 2.973-1.269 2.863-4.214-.661.413-1.872.495-2.89.772-1.049.247-1.93.69-1.93 1.817 0 1.155.909 1.625 1.958 1.625zm9.851-11.813h4.546v2.502h.051c.69-1.813 2.287-2.778 4.296-2.778.36 0 .744.025 1.104.108v4.27c-.607-.165-1.159-.277-1.79-.277-2.314 0-3.527 1.598-3.527 3.388v7.078h-4.68V5.372zM.847.09h9.15c3.711 0 7.2 1.703 7.2 6.422 0 4.939-2.818 6.865-7.2 6.865h-3.96v6.642H.848V.091zm5.19 9.265h3.179c1.619 0 2.79-.668 2.79-2.484 0-1.87-1.199-2.62-2.79-2.62H6.038v5.104z" fill="#313131"/><path d="M149.254 19.718h-4.697v-3.334h4.697v3.334z" fill="#313131"/></svg>