<svg width="156" height="33" fill="none" xmlns="http://www.w3.org/2000/svg"><path fill-rule="evenodd" clip-rule="evenodd" d="M124.795 22.209c.228-.668.314-1.511.314-2.906 0-1.395-.086-2.209-.314-2.906-.459-1.395-1.518-2.093-3.035-2.093-1.518 0-2.549.727-3.007 2.093-.229.755-.315 1.656-.315 2.906 0 1.279.086 2.18.315 2.906.458 1.366 1.489 2.121 3.007 2.121 1.517 0 2.576-.726 3.035-2.121zm.601 4.069c-.172 0-.287-.117-.287-.291V24.65h-.028c-.659 1.104-1.833 1.947-3.894 1.947-2.376 0-4.037-1.133-4.724-3.342-.372-1.104-.487-2.208-.487-3.952 0-1.715.115-2.82.487-3.923.687-2.21 2.348-3.343 4.724-3.343 2.061 0 3.235.814 3.894 1.918h.028V6.807c0-.175.115-.291.287-.291h1.832c.172 0 .286.116.286.29v19.181c0 .174-.114.29-.286.29h-1.832zm13.915-4.505v-1.54c0-.117-.057-.175-.172-.175h-2.748c-2.377 0-3.407.698-3.407 2.267 0 1.424 1.03 2.18 2.863 2.18 2.147 0 3.464-1.017 3.464-2.732zm.344 4.505c-.172 0-.287-.117-.287-.291v-1.22h-.028c-.63 1.046-1.976 1.83-4.066 1.83-2.605 0-4.609-1.366-4.609-4.185 0-2.935 2.004-4.3 5.354-4.3h3.12c.115 0 .172-.059.172-.175V16.92c0-1.918-.745-2.732-3.292-2.732-1.546 0-2.52.407-3.322.988-.143.116-.315.116-.401-.03l-.773-1.336c-.085-.174-.057-.29.058-.407 1.03-.813 2.634-1.365 4.667-1.365 3.894 0 5.382 1.307 5.382 4.737v9.212c0 .174-.114.29-.286.29h-1.689zm5.698 5.23c-.172 0-.286-.116-.286-.29v-1.686c0-.174.114-.29.286-.29h.516c1.116 0 1.717-.494 2.319-2.093l.458-1.278-5.039-13.223c-.058-.175.028-.291.229-.291h2.004c.172 0 .286.087.343.29l3.608 10.056h.057l3.465-10.055c.057-.204.172-.291.343-.291h1.947c.172 0 .286.116.229.29l-5.411 14.706c-1.203 3.284-2.262 4.156-4.323 4.156h-.745zM75.834 12.416c0-2.15-1.403-3.487-3.808-3.487h-4.351c-.115 0-.172.058-.172.174v6.627c0 .116.057.174.172.174h4.351c2.406 0 3.808-1.337 3.808-3.488zM65.241 26.28c-.172 0-.287-.116-.287-.291V6.808c0-.175.115-.291.287-.291h6.929c3.75 0 6.184 2.325 6.184 5.9 0 3.574-2.434 5.899-6.184 5.899h-4.495c-.115 0-.172.058-.172.174v7.498c0 .175-.115.29-.287.29h-1.975zm19.04.145c-2.405 0-3.35-1.162-3.35-3.662V6.808c0-.175.115-.291.287-.291h1.832c.172 0 .287.116.287.29v15.81c0 1.162.43 1.54 1.374 1.54h.544c.172 0 .286.116.286.29v1.686c0 .175-.114.291-.286.291h-.973zm11.74-4.65v-1.54c0-.116-.058-.175-.172-.175h-2.748c-2.377 0-3.408.698-3.408 2.267 0 1.424 1.031 2.18 2.863 2.18 2.148 0 3.465-1.017 3.465-2.732zm.343 4.505c-.172 0-.286-.116-.286-.29v-1.221h-.029c-.63 1.046-1.975 1.83-4.065 1.83-2.606 0-4.61-1.365-4.61-4.184 0-2.936 2.004-4.302 5.354-4.302h3.121c.114 0 .172-.057.172-.174v-1.017c0-1.918-.745-2.732-3.293-2.732-1.546 0-2.52.407-3.321.988-.143.117-.315.117-.401-.029l-.773-1.337c-.086-.174-.057-.29.057-.406 1.031-.814 2.634-1.366 4.667-1.366 3.894 0 5.383 1.307 5.383 4.737v9.212c0 .175-.115.29-.287.29h-1.689zm14.603 0c-.172 0-.286-.116-.286-.29v-8.14c0-2.238-1.003-3.546-3.064-3.546-1.861 0-3.149 1.338-3.149 3.4v8.283c0 .175-.115.29-.287.29h-1.832c-.172 0-.286-.115-.286-.29v-13.34c0-.173.114-.29.286-.29h1.832c.172 0 .287.117.287.29v1.28h.028c.659-1.076 1.976-1.89 3.837-1.89 2.978 0 4.753 2.064 4.753 5.232v8.718c0 .175-.115.29-.287.29h-1.832zM41.061 13.44a13.514 13.514 0 00-4.485-7.458c-5.847-4.98-14.14-3.995-18.817 1.662L.772 28.195C-.33 29.526-.244 31.01.98 32.05c1.223 1.042 2.677.87 3.779-.463l10.17-12.304 6.77-8.188h.001c.016-.018.03-.038.046-.057.092-.112.187-.22.283-.326l.047-.05c3.104-3.355 7.988-3.415 11.196-.683l.055.032c3.768 3.256 3.568 8.469.92 11.673-.093.112-.316.36-.331.376-3.104 3.355-7.914 3.427-11.251.65a8.424 8.424 0 01-1.692-1.98 1.437 1.437 0 00-2.344-.17l-2.179 2.643a13.65 13.65 0 002.965 3.538c5.847 4.98 14.14 3.995 18.816-1.662 0 0 3.738-4.4 2.831-11.64z" fill="#313131"/><path fill-rule="evenodd" clip-rule="evenodd" d="M41.07 13.442L51.24 1.138c1.103-1.333 2.557-1.505 3.78-.463 1.223 1.041 1.309 2.524.207 3.858L38.23 25.08c-4.677 5.657-12.97 6.642-18.817 1.662a13.658 13.658 0 01-2.965-3.539l2.179-2.642a1.438 1.438 0 012.344.17 8.482 8.482 0 001.7 1.982c3.312 2.766 8.133 2.705 11.238-.65.004-.004.262-.294.33-.376l6.83-8.245z" fill="#313131"/></svg>