<svg width="136" height="23" fill="none" xmlns="http://www.w3.org/2000/svg"><path d="M120.342 13.78c0-5.404 1.47-9.187 7.752-9.187s7.753 3.783 7.753 9.186c0 5.404-1.471 9.187-7.753 9.187-6.148 0-7.752-3.783-7.752-9.187zm11.628 0c0-3.783-.534-5.945-3.742-5.945s-3.743 2.162-3.743 5.944c0 3.783.535 5.944 3.743 5.944 3.208 0 3.742-2.296 3.742-5.944zM13.01 22.29c.134.135.267.27.401.27h1.47c.268 0 .535-.27.535-.54V5.404c0-.27-.267-.54-.535-.54h-2.807c-.267 0-.534.27-.534.54v13.104c-1.203.675-2.674 1.08-4.01 1.08-1.871 0-2.807-.81-2.807-2.567V5.404c0-.27-.267-.54-.535-.54H1.381c-.267 0-.534.27-.534.54v11.888c0 3.377 1.604 5.674 6.015 5.674 2.004 0 4.01-.676 5.613-1.892l.535 1.216zm32.614-12.158c0-3.377-1.604-5.674-5.748-5.674-2.005 0-3.876.675-5.613 1.756-.669-1.08-2.14-1.756-4.411-1.756a8.25 8.25 0 00-5.213 1.891l-.535-1.216c-.134-.135-.267-.27-.4-.27h-1.471c-.268 0-.535.27-.535.54V22.02c0 .27.267.54.535.54h2.94c.268 0 .535-.27.535-.54V8.916c1.07-.675 2.406-1.08 3.609-1.08 1.604 0 2.54.54 2.54 2.296V22.02c0 .27.267.54.534.54h2.94c.268 0 .535-.27.535-.54V8.916c1.07-.675 2.406-1.08 3.61-1.08 1.47 0 2.539.54 2.539 2.296V22.02c0 .27.267.54.535.54h2.94c.268 0 .535-.27.535-.54l-.401-11.888zm8.955 10.942a9.377 9.377 0 005.614 1.892c5.08 0 6.95-3.513 6.95-9.187 0-5.674-1.87-9.186-6.95-9.186-1.604 0-3.341.54-4.678 1.351V.54c0-.27-.267-.54-.535-.54h-2.94c-.268 0-.401.27-.401.54v21.48c0 .27.267.54.534.54h1.47c.134 0 .402-.135.402-.27l.534-1.216zm4.679-1.486a7.13 7.13 0 01-3.743-1.08V8.915c1.203-.675 2.406-1.08 3.743-1.08 3.475 0 3.876 2.701 3.876 5.943 0 3.242-.401 5.81-3.876 5.81zM81.579 7.97c-.4 0-.935-.135-1.336-.135-1.604 0-3.075.27-4.411 1.081V22.02c0 .27-.267.54-.535.54h-2.94c-.268 0-.535-.27-.535-.54V5.404c0-.27.267-.54.535-.54h1.47c.133 0 .4.134.4.27l.535 1.215c1.605-1.216 3.476-1.891 5.48-1.891.402 0 .936 0 1.337.135.268 0 .535.405.535.676V7.43c0 .27-.267.54-.535.54zm10.025 6.485c-1.737.27-2.807.81-2.807 2.702 0 1.35.535 2.566 2.673 2.566 1.337 0 2.674-.405 3.743-1.215v-4.594l-3.609.54zm4.678 6.62a8.25 8.25 0 01-5.212 1.89c-4.545 0-6.015-2.836-6.015-5.673 0-3.783 2.405-5.404 6.415-5.81l3.877-.27v-.81c0-1.756-.802-2.567-3.476-2.567a15 15 0 00-4.811.81h-.134c-.267 0-.535-.27-.535-.54V5.81c0-.27.134-.405.401-.54 1.738-.54 3.61-.946 5.347-.946 5.747 0 7.084 2.567 7.084 6.214V21.75c0 .27-.267.54-.535.54h-1.47c-.134 0-.401-.135-.401-.27l-.535-.946zm19.782-2.162h.134c.267 0 .535.27.535.54v2.297c0 .27-.134.405-.268.54-1.47.54-2.94.81-4.544.676-6.149 0-8.02-3.783-8.02-9.187 0-5.403 1.871-9.186 8.02-9.186 1.47 0 3.074.135 4.411.676.133.135.267.27.267.54v2.296c0 .27-.267.54-.535.54h-.133c-1.203-.404-2.54-.54-3.876-.54-3.342 0-4.411 2.297-4.411 5.81 0 3.512.935 5.808 4.411 5.808 1.47-.27 2.807-.405 4.009-.81" fill="#313131"/></svg>