<svg width="17" height="16" fill="none" xmlns="http://www.w3.org/2000/svg"><g clip-path="url(#clip0_714_476)"><path d="M15.347 0H1.713C1.059 0 .53.502.53 1.122v13.323c0 .62.528 1.125 1.181 1.125h13.635c.653 0 1.184-.504 1.184-1.122V1.122C16.531.502 16 0 15.347 0zM5.278 13.268H2.903V5.836h2.375v7.432zM4.091 4.823c-.763 0-1.379-.599-1.379-1.338 0-.739.616-1.338 1.379-1.338.759 0 1.375.6 1.375 1.338 0 .736-.616 1.338-1.375 1.338zm10.075 8.445h-2.372V9.656c0-.861-.016-1.971-1.235-1.971-1.234 0-1.421.94-1.421 1.91v3.673h-2.37V5.836h2.276v1.016h.031c.316-.584 1.09-1.202 2.244-1.202 2.403 0 2.847 1.54 2.847 3.54v4.078z" fill="#282938"/></g><defs><clipPath id="clip0_714_476"><path fill="#fff" transform="translate(.531)" d="M0 0h16v15.57H0z"/></clipPath></defs></svg>