<svg width="17" height="16" fill="none" xmlns="http://www.w3.org/2000/svg"><g clip-path="url(#clip0_714_469)"><path d="M5.877 14.11c6.036 0 9.339-4.867 9.339-9.088 0-.136-.003-.276-.01-.413a6.572 6.572 0 001.638-1.654 6.613 6.613 0 01-1.884.502 3.229 3.229 0 001.443-1.767 6.71 6.71 0 01-2.084.775 3.316 3.316 0 00-1.862-.964 3.366 3.366 0 00-2.081.336 3.236 3.236 0 00-1.443 1.498 3.12 3.12 0 00-.21 2.043 9.525 9.525 0 01-3.746-.968A9.281 9.281 0 011.96 2.043 3.124 3.124 0 001.6 4.37c.19.792.68 1.484 1.375 1.936a3.356 3.356 0 01-1.488-.399v.04c0 .738.262 1.453.742 2.024s1.149.963 1.892 1.108a3.35 3.35 0 01-1.48.055c.209.635.617 1.19 1.167 1.588.55.398 1.213.619 1.897.632a6.7 6.7 0 01-4.861 1.322 9.501 9.501 0 005.033 1.434z" fill="#282938"/></g><defs><clipPath id="clip0_714_469"><path fill="#fff" transform="translate(.844)" d="M0 0h16v15.57H0z"/></clipPath></defs></svg>