<svg width="70" height="55" fill="none" xmlns="http://www.w3.org/2000/svg"><path d="M67.945 50.635h-4.137V23.273c0-1.134-.92-2.052-2.056-2.052H50.405a2.053 2.053 0 00-2.055 2.052v27.362h-5.62V15.143a2.054 2.054 0 00-2.056-2.051H29.326a2.054 2.054 0 00-2.055 2.051v35.492h-5.62V21.101c0-1.133-.92-2.052-2.056-2.052H8.248a2.054 2.054 0 00-2.056 2.052v29.534H2.055A2.054 2.054 0 000 52.687c0 1.133.92 2.052 2.055 2.052h65.89A2.054 2.054 0 0070 52.687c0-1.133-.92-2.052-2.055-2.052zm-57.642 0V23.153h7.237v27.482h-7.237zm21.078 0v-33.44h7.238v33.44H31.38zm21.079 0v-25.31h7.237v25.31H52.46z" fill="#313131"/><path d="M68.497 7.808c.068-.858-.432-1.91-1.576-2.177l-6.63-1.612a2.05 2.05 0 10-.969 3.988l1.875.455-5.315 3.28L35.728.27a2.05 2.05 0 00-1.886-.074L13.809 9.598 4.232 3.62A2.051 2.051 0 102.06 7.102l10.523 6.568a2.05 2.05 0 001.958.117L34.623 4.36 54.91 15.91c.528.277 1.264.42 2.093-.037l6.443-3.977-.429 2.01c-.472 2.673 3.312 3.432 4.013.857l1.422-6.66c.017-.094.023-.08.046-.296z" fill="#0AC05E"/></svg>