<svg width="70" height="74" fill="none" xmlns="http://www.w3.org/2000/svg"><path d="M63.538 15.036a6.47 6.47 0 00-6.463 6.463v16.763l-1.252 1.295a6.573 6.573 0 00-1.426-2.08c-2.596-2.555-6.796-2.531-9.364.052L35 47.625 24.966 37.529c-2.567-2.584-6.767-2.607-9.363-.053a6.577 6.577 0 00-1.427 2.08l-1.251-1.294V21.5a6.47 6.47 0 00-6.463-6.463A6.47 6.47 0 000 21.5v20.45c0 2.108.57 4.179 1.65 5.989l12.185 17.914-1.395 8.144h45.12l-1.395-8.144L68.35 47.938A11.7 11.7 0 0070 41.95V21.499a6.47 6.47 0 00-6.462-6.463zM32.949 69.894H17.304l.853-4.98L5.143 45.787a7.596 7.596 0 01-1.041-3.838v-20.45a2.364 2.364 0 012.36-2.361 2.363 2.363 0 012.361 2.36v18.423l13.995 14.474 2.949-2.85-7.442-7.697a2.544 2.544 0 01.155-3.448 2.541 2.541 0 013.577.02l10.892 10.96v18.514zM65.9 41.95c0 1.349-.36 2.674-1.042 3.838L51.843 64.913l.853 4.981H37.051V51.38l10.892-10.96a2.541 2.541 0 013.577-.02 2.544 2.544 0 01.155 3.448l-7.442 7.696 2.949 2.852L61.176 39.92V21.499a2.364 2.364 0 012.36-2.361 2.364 2.364 0 012.361 2.36V41.95z" fill="#313131"/><path d="M35 0l4.266 12.092H53.07l-11.168 7.474 4.266 12.092L35 24.184l-11.168 7.474 4.266-12.092-11.168-7.474h13.804L35 0z" fill="#0AC05E"/></svg>