<svg width="34" height="34" fill="none" xmlns="http://www.w3.org/2000/svg"><rect width="34" height="34" rx="4" fill="#0AC05E"/><path d="M23.444 11.938a1.381 1.381 0 11-2.762 0 1.381 1.381 0 012.762 0z" fill="#F8F8F8"/><path fill-rule="evenodd" clip-rule="evenodd" d="M16.998 21.607a4.604 4.604 0 100-9.208 4.604 4.604 0 000 9.208zm0-1.842a2.762 2.762 0 100-5.525 2.762 2.762 0 000 5.525z" fill="#F8F8F8"/><path fill-rule="evenodd" clip-rule="evenodd" d="M7.79 16.634c0-3.094 0-4.641.602-5.823a5.525 5.525 0 012.415-2.414c1.182-.603 2.729-.603 5.823-.603h.737c3.094 0 4.641 0 5.823.603a5.525 5.525 0 012.415 2.414c.602 1.182.602 2.73.602 5.823v.737c0 3.094 0 4.642-.602 5.823a5.525 5.525 0 01-2.415 2.415c-1.182.602-2.729.602-5.823.602h-.737c-3.094 0-4.641 0-5.823-.602a5.525 5.525 0 01-2.415-2.415c-.602-1.181-.602-2.729-.602-5.823v-.737zm8.84-6.998h.737c1.577 0 2.65.002 3.479.07.807.065 1.22.185 1.508.332a3.684 3.684 0 011.61 1.61c.146.287.266.7.332 1.508.068.829.069 1.9.069 3.478v.737c0 1.578-.001 2.65-.07 3.479-.065.807-.185 1.22-.331 1.508a3.684 3.684 0 01-1.61 1.61c-.288.147-.701.266-1.508.332-.83.068-1.902.07-3.48.07h-.736c-1.577 0-2.65-.002-3.479-.07-.807-.066-1.22-.185-1.508-.332a3.684 3.684 0 01-1.61-1.61c-.147-.288-.266-.7-.332-1.508-.068-.829-.07-1.901-.07-3.479v-.737c0-1.577.002-2.65.07-3.478.066-.808.185-1.22.332-1.509a3.683 3.683 0 011.61-1.61c.288-.146.7-.266 1.508-.332.83-.067 1.902-.069 3.479-.069z" fill="#F8F8F8"/></svg>