<svg width="34" height="34" fill="none" xmlns="http://www.w3.org/2000/svg"><rect width="34" height="34" rx="4" fill="#0AC05E"/><path d="M12.233 10.02c0 1.23-.995 2.226-2.222 2.226A2.224 2.224 0 017.79 10.02c0-1.229.995-2.226 2.221-2.226 1.227 0 2.222.997 2.222 2.226zm-4.139 3.863h3.797V26.21H8.094V13.883zm9.911 0h-3.798V26.21h3.798v-6.308c0-1.456.464-2.92 2.316-2.92 2.093 0 2.08 1.907 2.07 3.384-.012 1.93.019 3.9.019 5.844h3.797v-6.507c-.033-4.154-1.043-6.069-4.367-6.069-1.974 0-3.198.96-3.835 1.83v-1.582z" fill="#F8F8F8"/></svg>