<svg width="62" height="70" fill="none" xmlns="http://www.w3.org/2000/svg"><path d="M56.892 27.606L33.697 4.411a6.158 6.158 0 00-8.699 0c-2.155 2.155-2.341 5.443-.75 7.79l-.032.162a42.917 42.917 0 01-11.774 22L1.803 45.003a6.147 6.147 0 000 8.698L7.602 59.5a6.147 6.147 0 008.698 0l1.45-1.45 10.148 10.148a6.147 6.147 0 008.698 0 6.157 6.157 0 000-8.698l-4.35-4.35 1.45-1.45a6.147 6.147 0 000-8.697l-.984-.986a42.924 42.924 0 0116.228-6.93l.164-.034a6.158 6.158 0 007.788-.749 6.158 6.158 0 000-8.698zM13.401 56.6a2.05 2.05 0 01-2.9 0l-5.799-5.799a2.049 2.049 0 010-2.9L14.85 37.755l8.699 8.698L13.4 56.6zm20.296 5.8c.799.8.799 2.1 0 2.9-.8.799-2.1.799-2.9 0L20.65 55.15l2.9-2.9L33.697 62.4zm-7.249-13.047c.616-.617 1.539-1.56 2.995-2.804l1.354 1.354a2.049 2.049 0 010 2.9l-1.45 1.45-2.899-2.9zm.087-5.712l-8.873-8.873a46.95 46.95 0 009.982-19.012l17.904 17.903a46.947 46.947 0 00-19.013 9.982zm27.457-10.235a2.05 2.05 0 01-2.899 0L27.898 10.209a2.05 2.05 0 112.9-2.9l23.195 23.196c.799.8.799 2.1 0 2.9z" fill="#313131"/><path d="M16.298 45.003c-.8-.8-2.1-.8-2.9 0l-2.9 2.9a2.05 2.05 0 002.9 2.898l2.9-2.899c.8-.8.8-2.099 0-2.9z" fill="#313131"/><path d="M43.105 0a2.05 2.05 0 00-2.05 2.05v4.1a2.05 2.05 0 104.1 0v-4.1A2.05 2.05 0 0043.105 0zM59.51 16.4h-4.1a2.05 2.05 0 100 4.101h4.1a2.05 2.05 0 000-4.1zM56.858 4.7c-.8-.8-2.099-.8-2.9 0l-4.1 4.101a2.05 2.05 0 002.9 2.9l4.1-4.1c.8-.801.8-2.1 0-2.9z" fill="#0AC05E"/></svg>