<svg width="102" height="18" fill="none" xmlns="http://www.w3.org/2000/svg"><path d="M9.182 0l2.062 5.948h6.67l-5.396 3.676 2.061 5.948-5.397-3.676-5.397 3.676 2.061-5.948L.45 5.948h6.672L9.182 0zm20.659 0l2.062 5.948h6.67l-5.396 3.676 2.061 5.948-5.397-3.676-5.397 3.676 2.062-5.948-5.397-3.676h6.67L29.842 0zm20.661 0l2.062 5.948h6.671l-5.397 3.676 2.062 5.948-5.398-3.676-5.397 3.676 2.062-5.948-5.397-3.676h6.67L50.503 0zm20.657 0l2.061 5.948h6.671l-5.397 3.676 2.062 5.948-5.397-3.676-5.398 3.676 2.062-5.948-5.397-3.676h6.671L71.16 0zM91.82 0l2.061 5.948h6.671l-5.397 3.676 2.062 5.948-5.397-3.676-5.397 3.676 2.061-5.948-5.397-3.676h6.671L91.82 0z" fill="#FBB040"/></svg>