<svg width="34" height="34" fill="none" xmlns="http://www.w3.org/2000/svg"><rect width="34" height="34" rx="4" fill="#0AC05E"/><path d="M13.57 24.789c-2.127 0-4.11-.638-5.78-1.738 1.417.095 3.919-.131 5.475-1.66-2.34-.11-3.396-1.96-3.534-2.75.199.079 1.147.174 1.683-.047-2.693-.696-3.106-3.13-3.014-3.873.505.364 1.362.49 1.698.459-2.509-1.85-1.606-4.631-1.163-5.232 1.8 2.57 4.5 4.013 7.837 4.093a4.086 4.086 0 01-.096-.884c0-2.182 1.712-3.951 3.825-3.951 1.103 0 2.098.482 2.796 1.255.737-.178 1.847-.595 2.39-.955-.274 1.011-1.125 1.855-1.64 2.168.004.01-.005-.01 0 0 .452-.07 1.676-.313 2.16-.65-.24.567-1.142 1.512-1.883 2.041.138 6.262-4.513 11.724-10.753 11.724z" fill="#F8F8F8"/></svg>